/* XPM */
static char *f777d86af15a4093d315e20414f8cdc95mpkLH4nJiHOZinl[] = {
/* columns rows colors chars-per-pixel */
"48 48 11 1 ",
"  c black",
". c #134C4C",
"X c #265C42",
"o c #1E6F50",
"O c #D45608",
"+ c #F77622",
"@ c #3E8948",
"# c #33984B",
"$ c #5AC54F",
"% c #FEAE34",
"& c #F9E6CF",
/* pixels */
"@@@@@@@@@@@@@@@@@@@@@@@@@@@@@@@@@@@@@@@@@@@@@@@@",
"@@@@@@@@@@@@@@@@@@@@@@@@@@@@@@@@@@@@@@@@@@@@@@@@",
"@@@@@@@@@@@@@@@@@@@@@@@@@@@@@@@@@@@@@@@@@@@@@@@@",
"@@@@@@@@@@@@@@@@@@@@@@@@@@@@@@@@@@@@@@@@@@@@@@@@",
"@@@@@@@@@@@@@@@@@@@@@@@@@@@@@@@@@@@@@@@@@@@@@@@@",
"@@@@@@@@@@@@@@@@@@@@@@@@@@@@@@@@@@@@@@@@@@@@@@@@",
"@@@@@@@@@@@@@@@@@@@@@@@@@@@@@@@@@@@@@@@@@@@@@@@@",
"@@@@@@@@@@@@@@@@@@@@@@@@@@@@@@@@@@@@@@@@@@@@@@@@",
"@@@@@@@@@@@@@@@@@@@@@@@@&&@@&&&&@@&&@@@@@@@@@@@@",
"@@@@@@@@@@@@@@@@@@@@@@@@&&@@&&&&@@&&@@@@@@@@@@@@",
"@@@@@@@@@@@@@@@@@@@@@@&&  &&    &&  &&@@@@@@@@@@",
"@@@@@@@@@@@@@@@@@@@@@@&&  &&    &&  &&@@@@@@@@@@",
"@@@@@@@@@@@@@@@@@@@@&&  $$  $$##  $$  @@@@@@@@@@",
"@@@@@@@@@@@@@@@@@@@@&&  $$  $$##  $$  @@@@@@@@@@",
"@@@@@@@@@@@@@@@@@@@@&&  $$$$##  $$##  @@@@@@@@@@",
"@@@@@@@@@@@@@@@@@@@@&&  $$$$##  $$##  @@@@@@@@@@",
"@@@@@@@@@@@@@@@@@@@@&&&&  oo$$oooo  &&@@@@@@@@@@",
"@@@@@@@@@@@@@@@@@@XX&&&&  oo$$oooo  &&@@@@@@@@@@",
"@@@@@@@@@@@@@@@@@@&&      ..oooo##    @@@@@@@@@@",
"@@@@@@@@@@@@@@@@XX&&      ..oooo##    @@@@@@@@@@",
"@@@@@@@@@@@@@@@@&&  %%%%%%  ..##oo$$  @@@@@@@@@@",
"XXXX@@@@@@@@@@@@&&  %%%%%%  ..##oo$$  @@@@@@@@@@",
"XXXX@@@@@@@@@@&&  %%%%%%++OO    ##  &&@@@@@@@@@@",
"XXXXXXXX@@@@@@&&  %%%%%%++OO    ##  &&@@@@@@@@@@",
"XXXXXXXX@@@@&&  %%%%++++++OO  &&  &&@@@@@@@@@@@@",
"XXXXXXXXXX@@&&  %%%%++++++OO  &&  &&XX@@@@@@@@@@",
"XXXXXXXXXX&&  %%%%++++OO++OO  &&&&XXXX@@@@@@@@@@",
"XXXXXXXXXX&&  %%%%++++OO++OO  &&&&XXXX@@@@@@@@@@",
"XXXXXXXXXX&&  %%++OO++++OO  &&XXXXXXXX@@@@@@@@@@",
"@@@@XXXX@@&&  %%++OO++++OO  &&XXXXXX@@@@@@@@@@@@",
"@@@@XXXX&&  %%%%++++OOOO  &&XXXXXXXX@@@@@@@@@@@@",
"@@@@@@@@&&  %%%%++++OOOO  &&XXXX@@@@@@@@@@@@@@@@",
"@@@@@@@@&&  %%++++OOOO  &&@@XXXX@@@@@@@@@@@@@@@@",
"@@@@@@@@&&  %%++++OOOO  &&@@@@@@@@@@@@@@@@@@@@@@",
"@@@@@@@@&&  ++OOOO    &&@@@@@@@@@@@@@@@@@@@@@@@@",
"@@@@@@@@&&  ++OOOO    &&@@@@@@@@@@@@@@@@@@@@@@@@",
"@@@@@@@@@@&&      &&&&@@@@@@@@@@@@@@@@@@@@@@@@@@",
"@@@@@@@@@@&&      &&&&@@@@@@@@@@@@@@@@@@@@@@@@@@",
"@@@@@@@@@@@@&&&&&&@@@@@@@@@@@@@@@@@@@@@@@@@@@@@@",
"@@@@@@@@@@@@&&&&&&@@@@@@@@@@@@@@@@@@@@@@@@@@@@@@",
"@@@@@@@@@@@@@@@@@@@@@@@@@@@@@@@@@@@@@@@@@@@@@@@@",
"@@@@@@@@@@@@@@@@@@@@@@@@@@@@@@@@@@@@@@@@@@@@@@@@",
"@@@@@@@@@@@@@@@@@@@@@@@@@@@@@@@@@@@@@@@@@@@@@@@@",
"@@@@@@@@@@@@@@@@@@@@@@@@@@@@@@@@@@@@@@@@@@@@@@@@",
"@@@@@@@@@@@@@@@@@@@@@@@@@@@@@@@@@@@@@@@@@@@@@@@@",
"@@@@@@@@@@@@@@@@@@@@@@@@@@@@@@@@@@@@@@@@@@@@@@@@",
"@@@@@@@@@@@@@@@@@@@@@@@@@@@@@@@@@@@@@@@@@@@@@@@@",
"@@@@@@@@@@@@@@@@@@@@@@@@@@@@@@@@@@@@@@@@@@@@@@@@"
};
