/* XPM */
static char *be6ada03a0404d43c7582b5b500eaf91AaWsqE2Tw11UStIU[] = {
/* columns rows colors chars-per-pixel */
"48 48 11 1 ",
"  c black",
". c #134C4C",
"X c #265C42",
"o c #1E6F50",
"O c #D45608",
"+ c #F77622",
"@ c #3E8948",
"# c #33984B",
"$ c #5AC54F",
"% c #FEAE34",
"& c #F9E6CF",
/* pixels */
"@@@@@@@@@@@@@@@@@@@@@@@@@@@@@@@@@@@@@@@@@@@@@@@@",
"@@@@@@@@@@@@@@@@@@@@@@@@@@@@@@@@@@@@@@@@@@@@@@@@",
"@@@@@@@@@@@@@@@@@@@@@@@@@@@@@@@@@@@@@@@@@@@@@@@@",
"@@@@@@@@@@@@@@@@@@@@@@@@@@@@@@@@@@@@@@@@@@@@@@@@",
"@@@@@@@@@@@@@@@@@@@@@@@@@@@@@@@@@@@@@@@@@@@@@@@@",
"@@@@@@@@@@@@@@@@@@@@@@@@@@@@@@@@@@@@@@@@@@@@@@@@",
"@@@@@@@@@@@@@@@@@@@@@@@@@@@@@@@@@@@@@@@@@@@@@@@@",
"@@@@@@@@@@@@@@@@@@@@@@@@@@@@@@@@@@@@@@@@@@@@@@@@",
"@@@@@@@@@@@@@@@@@@@@@@@@@@@@@@@@@@@@@@@@@@@@@@@@",
"@@@@@@@@@@@@@@@@@@@@@@@@@@@@@@@@@@@@@@@@@@@@@@@@",
"@@@@@@@@@@@@@@@@@@@@@@@@@@@@@@@@@@@@@@@@@@@@@@@@",
"@@@@@@@@@@@@@@@@@@@@@@@@@@@@@@@@@@@@@@@@@@@@@@@@",
"@@@@@@@@@@@@@@@@@@@@@@@@@@@@@@@@@@@@@@@@@@@@@@@@",
"@@@@@@@@@@@@@@@@@@@@@@@@XXXXXXXX@@@@@@@@@@@@@@@@",
"@@@@@@@@@@@@@@@@@@@@@@@@XXXXXXXX@@@@@@@@@@@@@@@@",
"@@@@@@@@@@@@@@@@@@@@XXXXXXXXXXXXXX@@@@@@@@@@@@@@",
"@@@@@@@@@@@@@@@@@@@@XXXXXXXXXXXXXX@@@@@@@@@@@@@@",
"@@@@@@@@@@@@@@@@@@XXXX&X&&X&XXXXXX@@@@@@@@@@@@@@",
"@@@@@@@@@@@@@@@@@@XXX& &  & &XXXXX@@@@@@@@@@@@@@",
"@@@@@@@@@@@@@@@@XXXX& $ $# $ XXX@@@@@@@@@@@@@@@@",
"@@@@@@@@@@@@@@@@XXXX& $$# $# XXX@@@@@@@@@@@@@@@@",
"XXXX@@@@@@@@@@@@XXXX&& o$oo &X@@@@@@@@@@@@@@@@@@",
"XXXX@@@@@@@@@@@@XXX&   .oo#  X@@@@@@@@@@@@@@@@@@",
"XXXXXXXX@@@@@@@@@@& %%% .#o$ @@@XXXX@@@@@@@@@@@@",
"XXXXXXXX@@@@@@@@@& %%%+O  # &@@@XXXX@@@@@@@@@@@@",
"XXXXXXXXXX@@@@@@& %%+++O & &XXXXXXXXXX@@@@@@@@@@",
"XXXXXXXXXX@@@@@& %%++O+O &&@XXXXXXXXXX@@@@@@@@@@",
"XXXXXXXXXX@@@@@& %+O++O &@XXXXXXXXXXXX@@@@@@@@@@",
"XXXXXXXXXX@@@@& %%++OO &@@XXXXXXXXXXXX@@@@@@@@@@",
"@@@@XXXX@@@@@@& %++OO &@@@XXXXXXXXXX@@@@@@@@@@@@",
"@@@@XXXX@@@@@@& +OO  &@@@@XXXXXXXXXX@@@@@@@@@@@@",
"@@@@@@@@@@@@@@@&   &&@@@@@@@XXXX@@@@@@@@@@@@@@@@",
"@@@@@@@@@@@@@@@@&&&@@@@@@@@@XXXX@@@@@@@@@@@@@@@@",
"@@@@@@@@@@@@@@@@@@@@@@@@@@@@@@@@@@@@@@@@@@@@@@@@",
"@@@@@@@@@@@@@@@@@@@@@@@@@@@@@@@@@@@@@@@@@@@@@@@@",
"@@@@@@@@@@@@@@@@@@@@@@@@@@@@@@@@@@@@@@@@@@@@@@@@",
"@@@@@@@@@@@@@@@@@@@@@@@@@@@@@@@@@@@@@@@@@@@@@@@@",
"@@@@@@@@@@@@@@@@@@@@@@@@@@@@@@@@@@@@@@@@@@@@@@@@",
"@@@@@@@@@@@@@@@@@@@@@@@@@@@@@@@@@@@@@@@@@@@@@@@@",
"@@@@@@@@@@@@@@@@@@@@@@@@@@@@@@@@@@@@@@@@@@@@@@@@",
"@@@@@@@@@@@@@@@@@@@@@@@@@@@@@@@@@@@@@@@@@@@@@@@@",
"@@@@@@@@@@@@@@@@@@@@@@@@@@@@@@@@@@@@@@@@@@@@@@@@",
"@@@@@@@@@@@@@@@@@@@@@@@@@@@@@@@@@@@@@@@@@@@@@@@@",
"@@@@@@@@@@@@@@@@@@@@@@@@@@@@@@@@@@@@@@@@@@@@@@@@",
"@@@@@@@@@@@@@@@@@@@@@@@@@@@@@@@@@@@@@@@@@@@@@@@@",
"@@@@@@@@@@@@@@@@@@@@@@@@@@@@@@@@@@@@@@@@@@@@@@@@",
"@@@@@@@@@@@@@@@@@@@@@@@@@@@@@@@@@@@@@@@@@@@@@@@@",
"@@@@@@@@@@@@@@@@@@@@@@@@@@@@@@@@@@@@@@@@@@@@@@@@"
};
