/* XPM */
static char *b0cfe85d5b134c17bb0adc9baf4a501aNAkUDEGqHFgrbyb7[] = {
/* columns rows colors chars-per-pixel */
"48 48 2 1 ",
"  c #265C42",
". c #3E8948",
/* pixels */
"................................................",
"................................................",
"................................................",
"................................................",
"................................................",
"................................................",
"................................................",
"................................................",
"................................................",
"................................................",
"................................................",
"................................................",
"................................................",
"........................        ................",
"........................        ................",
"....................              ..............",
"....................              ..............",
"..................                ..............",
"..................                ..............",
"................                ................",
"................                ................",
"    ............              ..................",
"    ............              ..................",
"        ..........        ......    ............",
"        ..........        ......    ............",
"          ..................          ..........",
"          ..................          ..........",
"          ................            ..........",
"          ................            ..........",
"....    ..................          ............",
"....    ..................          ............",
"............................    ................",
"............................    ................",
"................................................",
"................................................",
"................................................",
"................................................",
"................................................",
"................................................",
"................................................",
"................................................",
"................................................",
"................................................",
"................................................",
"................................................",
"................................................",
"................................................",
"................................................"
};
