/* XPM */
static char *f45240b9fc4d472aa7c9964a0a43bd3a4xWPzORfCmiStYpC[] = {
/* columns rows colors chars-per-pixel */
"48 48 152 2 ",
"   c #243328",
".  c #383E2A",
"X  c #3F2832",
"o  c #363830",
"O  c #422C29",
"+  c #4A2E2A",
"@  c #5C2A2C",
"#  c #442A33",
"$  c #4D2E34",
"%  c #502F35",
"&  c #5F2D31",
"*  c #553235",
"=  c #5B3434",
"-  c #573834",
";  c #5F3835",
":  c #5E3939",
">  c #642A2C",
",  c #6C2B2D",
"<  c #732D2E",
"1  c #792F2F",
"2  c #642D31",
"3  c #772F30",
"4  c #603636",
"5  c #6D3333",
"6  c #653936",
"7  c #6A3D37",
"8  c #653A38",
"9  c #6C3C38",
"0  c #733535",
"q  c #7C3131",
"w  c #773837",
"e  c #7C3937",
"r  c #733F39",
"t  c #7B3C3A",
"y  c #2F442E",
"u  c #2B4C2D",
"i  c #30472B",
"p  c #26532C",
"a  c #28562E",
"s  c #3F4C3A",
"d  c #2F5B33",
"f  c #2B553F",
"g  c #2D6334",
"h  c #326C39",
"j  c #39753F",
"k  c #36783F",
"l  c #4A4B35",
"z  c #534234",
"x  c #504C36",
"c  c #544538",
"v  c #4E5237",
"b  c #465738",
"n  c #4E5438",
"m  c #455D3A",
"M  c #4B5839",
"N  c #545238",
"B  c #5D543B",
"V  c #565E3C",
"C  c #6D4037",
"Z  c #6C423D",
"A  c #65493D",
"S  c #714137",
"D  c #74433A",
"F  c #794439",
"G  c #77483F",
"H  c #7C4838",
"J  c #665E3E",
"K  c #70553C",
"L  c #47643D",
"P  c #4B673E",
"I  c #265C42",
"U  c #295840",
"Y  c #3E6440",
"T  c #3C7342",
"R  c #387B41",
"E  c #1B4F78",
"W  c #6B4F40",
"Q  c #7A4040",
"!  c #724840",
"~  c #794A40",
"^  c #436740",
"/  c #4D6842",
"(  c #427040",
")  c #407C44",
"_  c #833232",
"`  c #8B3434",
"'  c #833C36",
"]  c #833E3B",
"[  c #8B3F38",
"{  c #913635",
"}  c #8C423D",
"|  c #854C3A",
" . c #894E3B",
".. c #93433C",
"X. c #9B463E",
"o. c #914F3F",
"O. c #8D513B",
"+. c #93553C",
"@. c #A3493F",
"#. c #834040",
"$. c #8B4442",
"%. c #8E4845",
"&. c #934643",
"*. c #944844",
"=. c #9C4A43",
"-. c #944E4D",
";. c #9D4D49",
":. c #855A4A",
">. c #9C5C43",
",. c #9F514E",
"<. c #A14740",
"1. c #A44C42",
"2. c #AB4D43",
"3. c #A14D48",
"4. c #A84F48",
"5. c #B14F43",
"6. c #A05D43",
"7. c #A3524E",
"8. c #B35146",
"9. c #B75044",
"0. c #B95246",
"q. c #BF5346",
"w. c #B5554C",
"e. c #BB5448",
"r. c #BB564B",
"t. c #A75350",
"y. c #A85552",
"u. c #BA5950",
"i. c #A66247",
"p. c #C2574A",
"a. c #C9594A",
"s. c #CA5A4C",
"d. c #C35B51",
"f. c #C1615B",
"g. c #CB6258",
"h. c #D06256",
"j. c #3F8346",
"k. c #3E8446",
"l. c #3E8948",
"z. c #176E9D",
"x. c #236684",
"c. c #1F839D",
"v. c #1693B4",
"b. c #0884C1",
"n. c #1096C0",
"m. c #089ED1",
"M. c #12ABC9",
"N. c #15B3CA",
"B. c #08AFDB",
"V. c #00AFE9",
"C. c #00C0F2",
"Z. c #04DAFB",
/* pixels */
"l.l.l.l.l.l.l.l.l.l.l.l.l.l.l.l.l.l.l.l.l.l.l.l.l.l.l.l.l.l.l.l.l.l.l.l.l.l.l.l.l.l.l.l.l.l.l.l.",
"l.l.l.l.l.l.l.l.l.l.l.l.l.l.l.l.l.l.l.l.l.l.l.l.l.l.l.l.l.l.l.l.l.l.l.l.l.l.l.l.l.l.l.l.l.l.l.l.",
"l.l.l.l.l.l.l.l.l.l.l.l.l.l.l.l.l.l.l.l.l.l./ W A ^ l.l.l.l.l.l.l.l.l.l.l.l.l.l.l.l.l.l.l.l.l.l.",
"l.l.l.l.l.l.l.l.l.l.l.l.l.l.l.l.l.l.l.l.l.l.B +.+.c l.l.l.l.l.l.l.l.l.l.l.l.l.l.l.l.l.l.l.l.l.l.",
"l.l.l.l.l.l.l.l.l.l.l.l.l.l.l.l.l.l.l.l.l.B 9 +.+.= v l.l.l.l.l.l.l.l.l.l.l.l.l.l.l.l.l.l.l.l.l.",
"l.l.l.l.l.l.l.l.l.l.l.l.l.l.l.l.l.l.l.l.b 9.9 +.+.= < b l.l.l.l.l.l.l.l.l.l.l.l.l.l.l.l.l.l.l.l.",
"l.l.l.l.l.l.l.l.l.l.l.l.l.l.l.l.l.l.l.J ..;.8 +.+.= , > x l.l.l.l.l.l.l.l.l.l.l.l.l.l.l.l.l.l.l.",
"l.l.l.l.l.l.l.l.l.l.l.l.l.l.l.l.l.l.B p...9.9 +.+.= < , < N l.l.l.l.l.l.l.l.l.l.l.l.l.l.l.l.l.l.",
"l.l.l.l.l.l.l.l.l.l.l.l.l.l.l.l.l.V 7.1.0.@.8 +.+.= , < < _ M l.l.l.l.l.l.l.l.l.l.l.l.l.l.l.l.l.",
"l.l.l.l.l.l.l.l.l.l.l.l.l.l.l.l.J p.t e 4.5.9 +.+.= < q , > < x l.l.l.l.l.l.l.l.l.l.l.l.l.l.l.l.",
"l.l.l.l.l.l.l.l.l.l.l.l.l.l.l.N 2.1.p.e ' w.8 +.+.= < > > < , < v l.l.l.l.l.l.l.l.l.l.l.l.l.l.l.",
"l.l.l.l.l.l.l.l.l.l.l.l.l.l.V 5.} ' 2.5.X.<.9 +.+.= , , < < > < < M l.l.l.l.l.l.l.l.l.l.l.l.l.l.",
"l.l.l.l.l.l.l.l.l.l.l.l.l.n d.=.0.w 3.5.2.9.8 +.+.= < , < , > < , _ l l.l.l.l.l.l.l.l.l.l.l.l.l.",
"l.l.l.l.l.l.l.l.l.l.l.l.B @.;.X.2.5.%.] d...9 +.+.= , 1 > , < < , q , N l.l.l.l.l.l.l.l.l.l.l.l.",
"l.l.l.l.l.l.l.l.l.l.l.b p.1.0.t 2.e.@.t w p.9 +.+.= < > > , q < , < , _ b l.l.l.l.l.l.l.l.l.l.l.",
"l.l.l.l.l.l.l.l.l.l.J ..;.2.2.2.=.$.e.@.X...9 +.+.= > , , < > _ , , , _ > x l.l.l.l.l.l.l.l.l.l.",
"l.l.l.l.l.l.l.l.l.) 2...5.$.2.2.@.$...p...q.9 +.+.= < , < < > , < 1 < , < _ ) l.l.l.l.l.l.l.l.l.",
"l.l.l.l.l.l.l.l.l.) t w.2.[ w.X.0...=.&.s...9 +.+.= > 1 > _ > < , { > , < < ) l.l.l.l.l.l.l.l.l.",
"l.l.l.l.l.l.l.l.l.l.( ,.0.2.@.&.1.p.[ } #.p.9 +.+.= < , , > < , < , , < q ( l.l.l.l.l.l.l.l.l.l.",
"l.l.l.l.l.l.l.l.l.l.P ' u.1.p.[ 4.] a.[ X.*.9 +.+.= , > > < , , > 1 < q @ L l.l.l.l.l.l.l.l.l.l.",
"l.l.l.l.l.l.l.l.l.) 1.X.X.y.X.0.} } =.p...9.9 +.+.= < > 1 < < > < , ` , , , ) l.l.l.l.l.l.l.l.l.",
"I I I I l.l.l.l.l.) &.2.8.0 e...p.' =.=.p.} : i.>.8 2 < , , > 1 > q @ < < q ) l.l.l.l.l.l.l.l.l.",
"I I I I l.l.l.l.l.j.m f.1.2.} t.=.a.w $.7.8 $ r r $ 4 0 > > < , , , , , { . h l.l.l.l.l.l.l.l.l.",
"I I I I I I I I l.l.( 5 g.@.a.5 2.X.p.5 8 4 * * * = 4 8 @ < , < @ 1 > _ @ i g l.l.l.l.l.l.l.l.l.",
"I I I I I I I I l.j.o.X.} 1.X.0.} $.-.6 * 9 6 r 9 = F * 8 0 < , < , 1 , , > j l.l.l.l.l.l.l.l.l.",
"I I I I I I I I I f 4...0.0 e...p.9 8 8 ; F 7  .F =  .= 8 6 @ < , ` > < , 1 ) l.l.l.l.l.l.l.l.l.",
"I I I I I I I I I U z e.X.@.&.X.*.8 $ F 6 S 7 O.F = | = H $ 8 q _ 3 , , { O T l.l.l.l.l.l.l.l.l.",
"I I I I I I I I I I ( 0 h.1.p.9 4 8 =  .6 D 7 >.F =  .= | = 8 8 & < > ` >   g l.l.l.l.l.l.l.l.l.",
"I I I I I I I I I I K X.*.2.=.8 = F =  .8 F 7 >.F =  .=  .8 D = 6 2 < q > + h l.l.l.l.l.l.l.l.l.",
"l.l.l.l.I I I I l.) 2...5.Q 8 4 8 | =  .= D 7 >.F =  .=  .8 F 9 4 8 5 < , < ) l.l.l.l.l.l.l.l.l.",
"l.l.l.l.I I I I l.) 8 d.%.4 8 9 9  .=  .6 D 7 >.F = | =  .8 S H 6 8 8 2 _ @ T l.l.l.l.l.l.l.l.l.",
"l.l.l.l.l.l.l.l.l.l.( -.8 = r S 7  .= | 8 F 7 >.F =  .=  .8 F H 4 D = 6 w i g l.l.l.l.l.l.l.l.l.",
"l.l.l.l.l.l.l.l.l.l.T 6 8 8 8 ; ; C * C * 8 = >.F % 7 * C * 8 6 * 8 8 8 4 u g l.l.l.l.l.l.l.l.l.",
"l.l.l.l.l.l.l.l.l.l.j.s O.9 r H H H H H F F 7 >.F 7 H H H H H H H r 9 O.o d l.l.l.l.l.l.l.l.l.l.",
"l.l.l.l.l.l.l.l.l.l.l.Y +.9 S H H H H H H H 7 >.D 7 H H H H H H H S 9 +.y a R l.l.l.l.l.l.l.l.l.",
"l.l.l.l.l.l.l.l.l.l.l.Y >.9 H G D G S 7 7 S S >.D S | | | | | | | H 9 6.y p g l.l.l.l.l.l.l.l.l.",
"l.l.l.l.l.l.l.l.l.l.l.Y >.9 8 ~ X $ # $ X 6 = >.D 7 S Z G ~ D 6 C 7 9 6.y a h l.l.l.l.l.l.l.l.l.",
"l.l.l.l.l.l.l.l.l.l.l.Y >.9 D G * 9 r 8 * 8 S >.F D  .G c.N.v.= | H 9 6.y g l.l.l.l.l.l.l.l.l.l.",
"l.l.l.l.l.l.l.l.l.l.l.Y 6.9 = D 8 r r 9 = 6 * >.F = 8 ~ N.Z.B.= ; ; 9 6.y g l.l.l.l.l.l.l.l.l.l.",
"l.l.l.l.l.l.l.l.l.l.l.Y 6.9 D S 6 r r r 4 8 S >.D D  .G M.C.m.= | H 9 6.y g l.l.l.l.l.l.l.l.l.l.",
"l.l.l.l.l.l.l.l.l.l.l.Y >.9 = D 8 r r ! : 6 * >.F = 6 D n.V.b.= = = 9 6.y g l.l.l.l.l.l.l.l.l.l.",
"l.l.l.l.l.l.l.l.l.l.l.Y >.9 H 7 = r r :.* 8 D >.F H +.7 x.z.E =  .| 9 6.y g l.l.l.l.l.l.l.l.l.l.",
"l.l.l.l.l.l.l.l.l.l.l.Y >.9 = 7 * r 8 r % 6 * >.F * = = = = = = = = 9 6.y g l.l.l.l.l.l.l.l.l.l.",
"l.l.l.l.l.l.l.l.l.l.l.Y >.9 H 7 $ 8 * 8 # 8 D >.D H +.+.+.+.+.+.+.| 9 6.y g l.l.l.l.l.l.l.l.l.l.",
"l.l.l.l.l.l.l.l.l.l.l.Y i.9 = - u u u u y * = >.F * 6 6 6 6 6 6 6 4 9 i.y g l.l.l.l.l.l.l.l.l.l.",
"l.l.l.l.l.l.l.l.l.l.l.k y y p p p p p p p p p y y p p p p p p p p p y y p g l.l.l.l.l.l.l.l.l.l.",
"l.l.l.l.l.l.l.l.l.l.l.l.R R R R R R R R R R R R R R R R R R R R R R R R R k.l.l.l.l.l.l.l.l.l.l.",
"l.l.l.l.l.l.l.l.l.l.l.l.l.l.l.l.l.l.l.l.l.l.l.l.l.l.l.l.l.l.l.l.l.l.l.l.l.l.l.l.l.l.l.l.l.l.l.l."
};
