/* XPM */
static char *_6d7daf206364228f439246b35de3acegkzP42BvH0VnuXU5[] = {
/* columns rows colors chars-per-pixel */
"48 48 117 2 ",
"   c #0E071B",
".  c #100C1D",
"X  c #11111D",
"o  c #141A1F",
"O  c #111220",
"+  c #121621",
"@  c #1D1124",
"#  c #141821",
"$  c #141D25",
"%  c #2B1729",
"&  c #2B1B2D",
"*  c #172322",
"=  c #172422",
"-  c #152C25",
";  c #1A2826",
":  c #17272A",
">  c #1D3726",
",  c #1A322F",
"<  c #173828",
"1  c #1D3C33",
"2  c #1D3D34",
"3  c #31272F",
"4  c #20382C",
"5  c #482636",
"6  c #492E3F",
"7  c #41393B",
"8  c #1B412F",
"9  c #204028",
"0  c #224529",
"q  c #23412F",
"w  c #234A2A",
"e  c #254F2B",
"r  c #254B2D",
"t  c #26532C",
"y  c #264832",
"u  c #204738",
"i  c #324A38",
"p  c #295035",
"a  c #295A30",
"s  c #2B5D32",
"d  c #2C5937",
"f  c #23523E",
"g  c #2C5838",
"h  c #2F6736",
"j  c #2F613A",
"k  c #32693D",
"l  c #34713C",
"z  c #35753E",
"x  c #653544",
"c  c #663F4F",
"v  c #743D4A",
"b  c #6E2F51",
"n  c #713251",
"m  c #255740",
"M  c #265C42",
"N  c #3D6841",
"B  c #357140",
"V  c #377940",
"C  c #387942",
"Z  c #387C41",
"A  c #664250",
"S  c #744A58",
"D  c #76515C",
"F  c #824451",
"G  c #854E56",
"H  c #904E5A",
"J  c #83515E",
"K  c #94545B",
"L  c #9F535F",
"P  c #9F545F",
"I  c #835662",
"U  c #915D69",
"Y  c #AD5B65",
"T  c #AD5C65",
"R  c #92606B",
"E  c #BC636C",
"W  c #A06570",
"Q  c #A16A74",
"!  c #BD747D",
"~  c #CA6A73",
"^  c #CC757E",
"/  c #D9727A",
"(  c #DA767D",
")  c #3D8547",
"_  c #3E8948",
"`  c #BE7D85",
"'  c #CD5686",
"]  c #D35D86",
"[  c #D97A83",
"{  c #DA7F86",
"}  c #E87286",
"|  c #EB7587",
" . c #E87A80",
".. c #ED7887",
"X. c #F07B87",
"o. c #F37E87",
"O. c #CD878E",
"+. c #DC9197",
"@. c #E9868D",
"#. c #E9888F",
"$. c #F68187",
"%. c #F68389",
"&. c #F7858B",
"*. c #F78A8F",
"=. c #E98D93",
"-. c #F78E93",
";. c #F78E94",
":. c #F79298",
">. c #F8949A",
",. c #F8979D",
"<. c #F8999F",
"1. c #EA9AA0",
"2. c #F89BA1",
"3. c #F89DA2",
"4. c #F99FA5",
"5. c #F9A2A7",
"6. c #F9A4A9",
/* pixels */
"_ _ _ _ _ _ _ _ _ _ _ _ _ _ _ _ _ _ _ _ _ _ _ _ _ _ _ _ _ _ _ _ _ _ _ _ _ _ _ _ _ _ _ _ _ _ _ _ ",
"_ _ _ _ _ _ _ _ _ _ _ _ _ _ _ _ _ _ _ _ _ _ _ _ _ _ _ _ _ _ _ _ _ _ _ _ _ _ _ _ _ _ _ _ _ _ _ _ ",
"_ _ _ _ _ _ _ _ _ _ _ _ _ _ _ _ _ _ _ _ _ _ _ _ _ _ _ _ _ _ _ _ _ _ _ _ _ _ _ _ _ _ _ _ _ _ _ _ ",
"_ _ _ _ _ _ _ _ _ _ _ _ _ _ _ _ _ _ _ _ _ _ _ _ _ _ _ _ _ _ _ _ _ _ _ _ _ _ _ _ _ _ _ _ _ _ _ _ ",
"_ _ _ _ _ _ _ _ _ _ _ _ _ _ _ _ _ _ _ _ _ _ _ _ _ _ _ _ _ _ _ _ _ _ _ _ _ _ _ _ _ _ _ _ _ _ _ _ ",
"_ _ _ _ _ _ _ _ _ _ _ _ _ _ _ _ _ _ _ _ _ _ _ _ _ _ _ _ _ _ _ _ _ _ _ _ _ _ _ _ _ _ _ _ _ _ _ _ ",
"_ _ _ _ _ _ _ _ _ _ _ _ _ _ _ _ _ _ _ _ _ _ _ _ _ _ _ _ _ _ _ _ _ _ _ _ _ _ _ _ _ _ _ _ _ _ _ _ ",
"_ _ _ _ _ _ _ _ _ _ _ _ _ _ _ _ _ _ _ _ _ _ _ _ _ _ _ _ _ _ _ _ _ _ _ _ _ _ _ _ _ _ _ _ _ _ _ _ ",
"_ _ _ _ _ _ _ _ _ _ _ _ _ _ _ _ _ _ _ _ _ _ _ _ _ _ _ _ _ _ _ _ _ _ _ _ _ _ _ _ _ _ _ _ _ _ _ _ ",
"_ _ _ _ _ _ _ _ _ _ _ _ _ _ _ _ _ _ _ _ _ _ _ _ _ _ _ _ _ _ _ _ _ _ _ _ _ _ _ _ _ _ _ _ _ _ _ _ ",
"_ _ _ _ _ _ _ _ _ _ _ _ _ _ _ _ _ _ _ _ _ _ _ _ _ _ _ _ _ _ _ _ _ _ _ _ _ _ _ _ _ _ _ _ _ _ _ _ ",
"_ _ _ _ _ _ _ _ _ _ _ _ _ _ _ _ _ _ _ _ _ _ _ _ _ _ _ _ _ _ _ _ _ _ _ _ _ _ _ _ _ _ _ _ _ _ _ _ ",
"_ _ _ _ _ _ _ _ d ; ; ; ; ; ; ; ; ; ; ; ; ; ; B _ _ _ _ _ _ _ _ _ _ _ _ _ _ _ _ _ _ _ _ _ _ _ _ ",
"_ _ _ _ _ _ _ C i & & @   @ & & & & @   & & & g f M M M M M M M _ _ _ _ _ _ _ _ _ _ _ _ _ _ _ _ ",
"_ _ _ _ _ _ C   I 6.6.`   Q 6.6.6.6.A   6.6.6.6 O M M M M M M M _ _ _ _ _ _ _ _ _ _ _ _ _ _ _ _ ",
"_ _ _ _ _ d i I ! :.U I I O.6.6.6.6.A   6.3.:.W D , u M M M M M M M _ _ j y _ _ _ _ _ _ _ _ _ _ ",
"_ _ _ _ _ ; & 6.:.$.% 6 6.6.6.6.6.6.A   6.,.$.2.+.  , M M M M M M M _ _ 4   _ _ _ _ _ _ _ _ _ _ ",
"_ _ _ _ _ ; % &.H % ` +.6.6.6.6.6.6.@./ & S 4.*.(   . O O O O O O f k # K / # q _ _ _ _ _ _ _ _ ",
"_ _ _ _ _ 4 3 / v   +.1.+.1.6.6.1.+.@.&.% c +.[ E   @ & & & & & & u N % T $.  4 _ _ _ _ _ _ _ _ ",
"_ _ _ _ _ _ C       +.`   Q 6.6.Q   Q 6.$.L         I 6.6.6.6.6.6.& 5 $.$.$.  4 _ _ _ _ _ _ _ _ ",
"_ _ _ _ _ _ C   5 F #.{ F ^ :.6.Q   Q 6.$.~ F F F I ` 6.6.6.6.6.6.R J F F F y j _ _ _ _ _ _ _ _ ",
"M M M M _ _ C   F $.$.$.$.$.$.6.Q   Q 6.$.$.$.$.&.6.6.6.6.6.6.6.6.6.`       _ _ _ _ _ _ _ _ _ _ ",
"M M M M _ _ C   b ' X.| ' } $.6.1.+.1.6.$.$.$.$.$.&.>.6.6.6.6.>.&.4.`   p C _ _ _ _ _ _ _ _ _ _ ",
"M M M M M M f   n ] o...] | $.6.6.6.4.2.$. .E  .$.*.,.6.6.5.2.-.$.<.!   g _ _ _ _ _ _ _ _ _ _ _ ",
"M M M M M M f   F $.$.$.$.$.$.6.6.6.;.$.$.L   E &.6.6.6.6.2.$.$.$.$.E   g _ _ _ _ _ _ _ _ _ _ _ ",
"M M M M M M m 1 7 x =.,.,.,.,.6.2.-.&.$.x F P / %.-.-.-.-.-.$.$.$.$.E   2 M _ _ _ _ _ _ _ _ _ _ ",
"M M M M M M M M ,   +.6.6.6.6.6.,.$.$.$.  x $.$.$.$.$.$.$.$.$.$.$.$.E   2 M _ _ _ _ _ _ _ _ _ _ ",
"M M M M M M M M M M #                   $.$.$.$.$.$.$.$.$.$.$.$.$.$.E   2 M _ _ _ _ _ _ _ _ _ _ ",
"M M M M M M M M M M q ;   6 A x x x x x $.$.$.Y P P P P P E $.$.$.Y G : u M _ _ _ _ _ _ _ _ _ _ ",
"_ _ _ _ M M M M _ _ _ k   Q 6.$.$.$.$.$.$.$.$.5           5 $.$.$.% $ M _ _ _ _ _ _ _ _ _ _ _ _ ",
"_ _ _ _ M M M M _ _ h r   Q 6.$.E 5 5 5 $.$.$.5 . 9 - - . 5 $.$.$.% + 8 V _ _ _ _ _ _ _ _ _ _ _ ",
"_ _ _ _ _ _ _ _ _ _ a 9   Q 6.$.L       $.$.$.5 X t t t . 5 $.$.$.% o t z _ _ _ _ _ _ _ _ _ _ _ ",
"_ _ _ _ _ _ _ _ _ _ a t t =     * t t t       9 t t t t < -       w t t z _ _ _ _ _ _ _ _ _ _ _ ",
"_ _ _ _ _ _ _ _ _ _ a t t > * * > t t t * * * 0 t t t t t w * * * e t t z _ _ _ _ _ _ _ _ _ _ _ ",
"_ _ _ _ _ _ _ _ _ _ a t t t t t t t t t t t t t t t t t t t t t t t t t z _ _ _ _ _ _ _ _ _ _ _ ",
"_ _ _ _ _ _ _ _ _ _ Z l t t t t t t t t t t t t t t t t t t t t t t s Z ) _ _ _ _ _ _ _ _ _ _ _ ",
"_ _ _ _ _ _ _ _ _ _ _ Z a a a a a a a a a a a a a a a a a a a a a a h _ _ _ _ _ _ _ _ _ _ _ _ _ ",
"_ _ _ _ _ _ _ _ _ _ _ _ _ _ _ _ _ _ _ _ _ _ _ _ _ _ _ _ _ _ _ _ _ _ _ _ _ _ _ _ _ _ _ _ _ _ _ _ ",
"_ _ _ _ _ _ _ _ _ _ _ _ _ _ _ _ _ _ _ _ _ _ _ _ _ _ _ _ _ _ _ _ _ _ _ _ _ _ _ _ _ _ _ _ _ _ _ _ ",
"_ _ _ _ _ _ _ _ _ _ _ _ _ _ _ _ _ _ _ _ _ _ _ _ _ _ _ _ _ _ _ _ _ _ _ _ _ _ _ _ _ _ _ _ _ _ _ _ ",
"_ _ _ _ _ _ _ _ _ _ _ _ _ _ _ _ _ _ _ _ _ _ _ _ _ _ _ _ _ _ _ _ _ _ _ _ _ _ _ _ _ _ _ _ _ _ _ _ ",
"_ _ _ _ _ _ _ _ _ _ _ _ _ _ _ _ _ _ _ _ _ _ _ _ _ _ _ _ _ _ _ _ _ _ _ _ _ _ _ _ _ _ _ _ _ _ _ _ ",
"_ _ _ _ _ _ _ _ _ _ _ _ _ _ _ _ _ _ _ _ _ _ _ _ _ _ _ _ _ _ _ _ _ _ _ _ _ _ _ _ _ _ _ _ _ _ _ _ ",
"_ _ _ _ _ _ _ _ _ _ _ _ _ _ _ _ _ _ _ _ _ _ _ _ _ _ _ _ _ _ _ _ _ _ _ _ _ _ _ _ _ _ _ _ _ _ _ _ ",
"_ _ _ _ _ _ _ _ _ _ _ _ _ _ _ _ _ _ _ _ _ _ _ _ _ _ _ _ _ _ _ _ _ _ _ _ _ _ _ _ _ _ _ _ _ _ _ _ ",
"_ _ _ _ _ _ _ _ _ _ _ _ _ _ _ _ _ _ _ _ _ _ _ _ _ _ _ _ _ _ _ _ _ _ _ _ _ _ _ _ _ _ _ _ _ _ _ _ ",
"_ _ _ _ _ _ _ _ _ _ _ _ _ _ _ _ _ _ _ _ _ _ _ _ _ _ _ _ _ _ _ _ _ _ _ _ _ _ _ _ _ _ _ _ _ _ _ _ ",
"_ _ _ _ _ _ _ _ _ _ _ _ _ _ _ _ _ _ _ _ _ _ _ _ _ _ _ _ _ _ _ _ _ _ _ _ _ _ _ _ _ _ _ _ _ _ _ _ "
};
