/* XPM */
static char *_72eab47cf5a404def3b509d281112d6hFKGGsB64Tu1LSDo[] = {
/* columns rows colors chars-per-pixel */
"48 48 155 2 ",
"   c #0E071B",
".  c #180C1D",
"X  c #22101F",
"o  c #0F0F21",
"O  c #1A0F20",
"+  c #0F1021",
"@  c #111220",
"#  c #141721",
"$  c #1B1523",
"%  c #141821",
"&  c #101827",
"*  c #0C1933",
"=  c #161E35",
"-  c #201621",
";  c #251422",
":  c #261725",
">  c #2C1520",
",  c #271A26",
"<  c #2F1F22",
"1  c #2B1F2C",
"2  c #301F27",
"3  c #321F2A",
"4  c #172322",
"5  c #172422",
"6  c #1A2A25",
"7  c #17272A",
"8  c #1D3726",
"9  c #1A322F",
"0  c #0B203F",
"q  c #102839",
"w  c #1D3C33",
"e  c #2C272A",
"r  c #2B202C",
"t  c #322526",
"y  c #3E2425",
"u  c #3A2028",
"i  c #36292F",
"p  c #20382C",
"a  c #3F2D30",
"s  c #333830",
"d  c #401E23",
"f  c #401F24",
"g  c #402025",
"h  c #462226",
"j  c #4A2325",
"k  c #532726",
"l  c #532827",
"z  c #5D2C28",
"x  c #5F2F2C",
"c  c #59302F",
"v  c #5D312E",
"b  c #4B2E34",
"n  c #4C2F34",
"m  c #4D3C38",
"M  c #523439",
"N  c #513B39",
"B  c #62332F",
"V  c #653632",
"C  c #653734",
"Z  c #643F3E",
"A  c #693C39",
"S  c #1F4236",
"D  c #204028",
"F  c #224529",
"G  c #23402F",
"H  c #23492A",
"J  c #254F2B",
"K  c #2D4E2B",
"L  c #26532C",
"P  c #264832",
"I  c #204738",
"U  c #295A30",
"Y  c #2C5937",
"T  c #2C6133",
"R  c #2F6736",
"E  c #2F613A",
"W  c #316B39",
"Q  c #326E3A",
"!  c #32693D",
"~  c #34723C",
"^  c #35753E",
"/  c #57403B",
"(  c #58403B",
")  c #69413F",
"_  c #6C403C",
"`  c #0B2C4C",
"'  c #0C3653",
"]  c #193854",
"[  c #134C4C",
"{  c #144E4D",
"}  c #15514D",
"|  c #16554D",
" . c #1B5F4C",
".. c #265C42",
"X. c #1F694C",
"o. c #1E6F50",
"O. c #206B4C",
"+. c #267E4F",
"@. c #357140",
"#. c #387943",
"$. c #064574",
"%. c #3A556C",
"&. c #345571",
"*. c #4C404A",
"=. c #464755",
"-. c #6A4241",
";. c #6E4340",
":. c #664C43",
">. c #664C44",
",. c #684F47",
"<. c #704643",
"1. c #65504D",
"2. c #436155",
"3. c #456856",
"4. c #4B7258",
"5. c #4B7B58",
"6. c #815F4C",
"7. c #896650",
"8. c #8D6C56",
"9. c #3E8948",
"0. c #33984B",
"q. c #548A59",
"w. c #64A560",
"e. c #9F816E",
"r. c #B98C66",
"t. c #BE926B",
"y. c #BC997E",
"u. c #C6956B",
"i. c #D29F70",
"p. c #D7A476",
"a. c #DBA97C",
"s. c #045186",
"d. c #136C9E",
"f. c #0069AA",
"g. c #187DAF",
"h. c #0177B7",
"j. c #7D8D92",
"k. c #0C8BC5",
"l. c #0086C9",
"z. c #008CCF",
"x. c #0691D1",
"c. c #0092D6",
"v. c #0095D9",
"b. c #0098DC",
"n. c #9AA5A3",
"m. c #9AB4B3",
"M. c #9AB7B5",
"N. c #B9B1A1",
"B. c #B9BAAB",
"V. c #B9BDAE",
"C. c #DFAF82",
"Z. c #DCB088",
"A. c #E6B78A",
"S. c #E9B98D",
"D. c #F6CA9F",
/* pixels */
"9.9.9.9.9.9.9.9.9.9.9.9.9.9.9.9.9.9.9.9.9.9.9.9.9.9.9.9.9.9.9.9.9.9.9.9.9.9.9.9.9.9.9.9.9.9.9.9.",
"9.9.9.9.9.9.9.9.9.9.9.9.9.9.9.9.9.9.9.9.9.9.9.9.9.9.9.9.9.9.9.9.9.9.9.9.9.9.9.9.9.9.9.9.9.9.9.9.",
"9.9.9.9.9.9.9.9.9.9.9.9.9.9.9.9.9.9.9.9.9.9.9.9.9.9.9.9.9.9.9.9.9.9.9.9.9.9.9.9.9.9.9.9.9.9.9.9.",
"9.9.9.9.9.9.9.9.9.9.9.9.9.9.9.9.9.9.9.9.9.9.9.9.9.9.9.9.9.9.9.9.9.9.9.9.9.9.9.9.9.9.9.9.9.9.9.9.",
"9.9.9.9.9.9.9.9.9.9.9.9.9.9.9.9.9.9.9.9.9.9.9.9.9.9.9.9.9.9.9.9.9.9.9.9.9.9.9.9.9.9.9.9.9.9.9.9.",
"9.9.9.9.9.9.9.9.9.9.9.9.9.9.9.9.9.9.9.9.9.9.9.9.9.9.9.9.9.9.9.9.9.9.9.9.9.9.9.9.9.9.9.9.9.9.9.9.",
"9.9.9.9.9.9.9.9.9.9.9.9.9.9.9.9.9.9.9.9.9.9.9.9.9.9.9.9.9.9.9.9.9.9.9.9.9.9.9.9.9.9.9.9.9.9.9.9.",
"9.9.9.9.9.9.9.9.9.9.9.9.9.9.9.9.9.9.9.9.9.9.9.9.9.9.9.9.9.9.9.9.9.9.9.9.9.9.9.9.9.9.9.9.9.9.9.9.",
"9.9.9.9.9.9.9.9.9.9.9.9.9.9.9.9.9.9.9.9.9.9.9.9.9.9.9.9.9.9.9.9.9.9.9.9.9.9.9.9.9.9.9.9.9.9.9.9.",
"9.9.9.9.9.9.9.9.9.9.9.9.9.9.9.9.                          9.9.9.9.9.9.9.9.9.9.9.9.9.9.9.9.9.9.9.",
"9.9.9.9.9.9.9.9.9.9.9.9.9.9.#.#.. . O O O O O O O . . . . #.#.9.9.9.9.9.9.9.9.9.9.9.9.9.9.9.9.9.",
"9.9.9.9.9.9.9.9.9.9.9.9.9.9.%   z z <.<.<.<.<.<.<.B z z z   # 9.9.9.9.9.9.9.9.9.9.9.9.9.9.9.9.9.",
"9.9.9.9.9.9.9.9.9.9.9.9.#.! - X B V <.<.<.<.<.<.<.C B B B : e ! @.9.9.9.9.9.9.9.9.9.9.9.9.9.9.9.",
"9.9.9.9.9.9.9.9.9.9.9.9.p   l z <.<.<.<.<.<.<.<.<.<.<.<.<.<.Z   p 9.9.9.9.9.9.9.9.9.9.9.9.9.9.9.",
"9.9.9.9.9.9.9.9.9.9.9.9.p   c V <.<.<.<.<.<.<.<.<.<.<.<.<.<.-.3 s Y @.9.9.9.9.9.9.9.9.9.9.9.9.9.",
"9.9.9.9.9.9.9.9.9.9.9.9.p   Z <.<.<.<.<.<.<.<.<.<.<.<.<.<.<.<.<.b   P 9.9.9.9.9.9.9.9.9.9.9.9.9.",
"9.9.9.9.9.9.9.9.9.9.E p t d ) <.<.<.<.<.<.<.<.<.<.<.<.<.<.<.<.<.b   P 9.9.9.9.9.9.9.9.9.9.9.9.9.",
"9.9.9.9.9.9.9.9.9.9.P   f z ;.<.<.<.<.<.<.<.<.<.<.<.<.<.<.<.<.<.b   P 9.9.9.9.9.9.9.9.9.9.9.9.9.",
"9.9.9.9.9.9.9.9.9.9.P   f z ;.<.B v : : : u B A <.<.<.V B <.<.<.b   P 9.9.9.9.9.9.9.9.9.9.9.9.9.",
"9.9.9.9.9.9.9.9.9.9.P   f z ;.<.z k       > z A <.<.<.x z <.<.<.b   P 9.9.9.9.9.9.9.9.9.9.9.9.9.",
"9.9.9.9.9.9.9.9.9.9.P   f z ; O . 2 r.r.r.6.. h v _ <.x z v v v g   P 9.9.9.9.9.9.9.9.9.9.9.9.9.",
"........9.9.9.9.9.9.P   f z .     , i.i.i.7.  f z _ <.x z z z z d   P 9.9.9.9.9.9.9.9.9.9.9.9.9.",
"........9.9.9.9.9.9.9.9.p       i.p.D.D.D.S.i.(   j z .   z z z d   P 9.9.9.9.9.9.9.9.9.9.9.9.9.",
"................9.9.9.9.G %     r.t.D.D.D.Z.r.( , f l 3 , l l v g   9 ..9.9.9.9.9.9.9.9.9.9.9.9.",
"................9.9.9.9.9.9.%     1 D.D.D.e.  7.i.a   r.i.  O <.b   9 ..9.9.9.9.9.9.9.9.9.9.9.9.",
"....................9.9.9.9.%     1 D.D.D.e.  8.a.>.a u.i.  O <.b   9 ......9.9.9.9.9.9.9.9.9.9.",
"....................9.9.9.9.%     1 D.D.D.e.  e.D.a.i.i.i.  O <.b   9 ......9.9.9.9.9.9.9.9.9.9.",
"....................9.9.9.9.%   / ,.D.D.D.y.1.y.D.a.i.i.i./ N n i 7 S ......9.9.9.9.9.9.9.9.9.9.",
"....................9.9.9.9.%   i.p.D.D.D.D.D.D.D.a.i.i.i.i.r.  7 ..........9.9.9.9.9.9.9.9.9.9.",
"9.9.9.9.........9.9.9.9.9.9.E Y / :.C.A.D.D.D.S.C.p.i.i.i./ m w I ......9.9.9.9.9.9.9.9.9.9.9.9.",
"9.9.9.9.........9.9.9.9.9.9.9.9.  , i.a.D.D.D.C.i.i.i.i.i.  @ ..........9.9.9.9.9.9.9.9.9.9.9.9.",
"9.9.9.9.9.9.9.9.9.9.9.9.9.9.9.9.  $ 2.4.w.w.w.q.5.3.2.2.2.  @ ..9.9.9.9.9.9.9.9.9.9.9.9.9.9.9.9.",
"9.9.9.9.9.9.9.9.9.9.9.9.9.9.9.9.  + [  .0.0.0.+.o.| [ [ [   @ ..9.9.9.9.9.9.9.9.9.9.9.9.9.9.9.9.",
"9.9.9.9.9.9.9.9.9.9.9.9.9.9.9.9.  + [  .0.0.0.O.} { [ & o #.#.9.9.9.9.9.9.9.9.9.9.9.9.9.9.9.9.9.",
"9.9.9.9.9.9.9.9.9.9.9.9.9.9.9.9.  + [  .0.0.0.X.[ [ [ +   9.9.9.9.9.9.9.9.9.9.9.9.9.9.9.9.9.9.9.",
"9.9.9.9.9.9.9.9.9.9.9.9.9.9.9.9.  * b.b.b.b.b.M.D.D.D.r   9.9.9.9.9.9.9.9.9.9.9.9.9.9.9.9.9.9.9.",
"9.9.9.9.9.9.9.9.9.9.9.9.9.9.#.#.. = k.x.b.v.c.m.D.D.D.r   9.9.9.9.9.9.9.9.9.9.9.9.9.9.9.9.9.9.9.",
"9.9.9.9.9.9.9.9.9.9.9.9.9.9.%   z z z =.b.l.f.n.D.D.D.r   9.9.9.9.9.9.9.9.9.9.9.9.9.9.9.9.9.9.9.",
"9.9.9.9.9.9.9.9.9.9.9.9.9.9.%   z z z *.g.d.s.j.N.B.V.] ` ! ! 9.9.9.9.9.9.9.9.9.9.9.9.9.9.9.9.9.",
"9.9.9.9.9.9.9.9.9.9.9.9.9.9.%   z z z z z d   $.f.z.b.b.b.  # 9.9.9.9.9.9.9.9.9.9.9.9.9.9.9.9.9.",
"9.9.9.9.9.9.9.9.9.9.9.9.9.9.G p d d d d d < 4 ' $.h.l.v.b.  # 9.9.9.9.9.9.9.9.9.9.9.9.9.9.9.9.9.",
"9.9.9.9.9.9.9.9.9.9.9.9.9.9.9.9.          4 L 5   s.f.c.b.  # 9.9.9.9.9.9.9.9.9.9.9.9.9.9.9.9.9.",
"9.9.9.9.9.9.9.9.9.9.9.9.9.9.W R 8 8 8 8 8 D L 5   s.f.&.%.d y p Y 9.9.9.9.9.9.9.9.9.9.9.9.9.9.9.",
"9.9.9.9.9.9.9.9.9.9.9.9.9.9.U L L L L L L L L 5   s.f.M z z k   p 9.9.9.9.9.9.9.9.9.9.9.9.9.9.9.",
"9.9.9.9.9.9.9.9.9.9.9.9.~ T L L L L L L L L L F D q 0 l z z k   6 T ^ 9.9.9.9.9.9.9.9.9.9.9.9.9.",
"9.9.9.9.9.9.9.9.9.9.9.9.R L L L L L L L L L L L L %   l z z k   4 L Q 9.9.9.9.9.9.9.9.9.9.9.9.9.",
"9.9.9.9.9.9.9.9.9.9.9.9.R L L L L L L L L L L L L J H K K K K H J L Q 9.9.9.9.9.9.9.9.9.9.9.9.9.",
"9.9.9.9.9.9.9.9.9.9.9.9.R L L L L L L L L L L L L L L L L L L L L L Q 9.9.9.9.9.9.9.9.9.9.9.9.9."
};
