/* XPM */
static char *f757f490ce7c4cf2c3c899c26d651071aVlDVbdT9OPWOtJ5[] = {
/* columns rows colors chars-per-pixel */
"48 48 133 2 ",
"   c #0E071B",
".  c #0F0C1E",
"X  c #100C1C",
"o  c #180C1D",
"O  c #11111D",
"+  c #1F121F",
"@  c #22101F",
"#  c #1A0F20",
"$  c #0F1021",
"%  c #0F1928",
"&  c #111220",
"*  c #101524",
"=  c #141820",
"-  c #1E1C23",
";  c #101928",
":  c #261725",
">  c #2C1520",
",  c #271A26",
"<  c #2E1823",
"1  c #361A22",
"2  c #321D23",
"3  c #3B1C23",
"4  c #321F2A",
"5  c #172322",
"6  c #1A2826",
"7  c #1A2D24",
"8  c #142E2F",
"9  c #1C3225",
"0  c #1D3726",
"q  c #1A322F",
"w  c #1B3B2D",
"e  c #1C3E2D",
"r  c #133032",
"t  c #1D3D34",
"y  c #12323A",
"u  c #282124",
"i  c #282029",
"p  c #3D2426",
"a  c #3A2429",
"s  c #3F272F",
"d  c #20382C",
"f  c #293A2E",
"g  c #213A32",
"h  c #273A34",
"j  c #401E23",
"k  c #4A2325",
"l  c #532726",
"z  c #532827",
"x  c #582A27",
"c  c #5D2C28",
"v  c #443829",
"b  c #493B29",
"n  c #5F302C",
"m  c #4C2E34",
"M  c #5E3636",
"N  c #523439",
"B  c #62332F",
"V  c #633531",
"C  c #653632",
"Z  c #673935",
"A  c #643E3E",
"S  c #693C39",
"D  c #1F4236",
"F  c #204028",
"G  c #224529",
"H  c #26532C",
"J  c #254530",
"K  c #264832",
"L  c #204738",
"P  c #295034",
"I  c #295A30",
"U  c #23523D",
"Y  c #2C5838",
"T  c #2F6737",
"R  c #326F3B",
"E  c #32693D",
"W  c #35723F",
"Q  c #35753E",
"!  c #37793F",
"~  c #133F40",
"^  c #134C4C",
"/  c #17594D",
"(  c #255740",
")  c #265C42",
"_  c #1D6B50",
"`  c #1E6F50",
"'  c #21744F",
"]  c #23794F",
"[  c #267E4E",
"{  c #357140",
"}  c #387942",
"|  c #3A7F43",
" . c #094B71",
".. c #14527F",
"X. c #6E4340",
"o. c #6F4441",
"O. c #704643",
"+. c #655B4D",
"@. c #896650",
"#. c #2B884D",
"$. c #2C884D",
"%. c #2E8D4D",
"&. c #3B8244",
"*. c #3D8547",
"=. c #3E8948",
"-. c #30934C",
";. c #33984B",
":. c #2A8F5D",
">. c #268C63",
",. c #9F9079",
"<. c #9D917F",
"1. c #A28A67",
"2. c #D29F70",
"3. c #065D8B",
"4. c #175A89",
"5. c #185A89",
"6. c #025D98",
"7. c #15618C",
"8. c #18608F",
"9. c #056292",
"0. c #066693",
"q. c #066294",
"w. c #086B93",
"e. c #046A9F",
"r. c #076F9E",
"t. c #0C7393",
"y. c #0D7592",
"u. c #0069AA",
"i. c #0474AC",
"p. c #006FB0",
"a. c #028ECA",
"s. c #0493CB",
"d. c #0098DC",
/* pixels */
"=.=.=.=.=.=.=.=.=.=.=.=.=.=.=.=.=.=.=.=.=.=.=.=.=.=.=.=.=.=.=.=.=.=.=.=.=.=.=.=.=.=.=.=.=.=.=.=.",
"=.=.=.=.=.=.=.=.=.=.=.=.=.=.=.=.=.=.=.=.=.=.=.=.=.=.=.=.=.=.=.=.=.=.=.=.=.=.=.=.=.=.=.=.=.=.=.=.",
"=.=.=.=.=.=.=.=.=.=.=.=.=.=.=.=.=.=.=.=.=.=.=.=.=.=.=.=.=.=.=.=.=.=.=.=.=.=.=.=.=.=.=.=.=.=.=.=.",
"=.=.=.=.=.=.=.=.=.=.=.=.=.=.=.=.=.=.=.=.=.=.=.=.=.=.=.=.=.=.=.=.=.=.=.=.=.=.=.=.=.=.=.=.=.=.=.=.",
"=.=.=.=.=.=.=.=.=.=.=.=.=.=.=.=.=.=.=.=.=.=.=.=.=.=.=.=.=.=.=.=.=.=.=.=.=.=.=.=.=.=.=.=.=.=.=.=.",
"=.=.=.=.=.=.=.=.=.=.=.=.=.=.=.=.=.=.=.=.=.=.=.=.=.=.=.=.=.=.=.=.=.=.=.=.=.=.=.=.=.=.=.=.=.=.=.=.",
"=.=.=.=.=.=.=.=.=.=.=.=.=.=.=.=.=.=.=.=.=.=.=.=.=.=.=.=.=.=.=.=.=.=.=.=.=.=.=.=.=.=.=.=.=.=.=.=.",
"=.=.=.=.=.=.=.=.=.=.=.=.=.=.=.=.=.=.=.=.=.=.=.=.=.=.=.=.=.=.=.=.=.=.=.=.=.=.=.=.=.=.=.=.=.=.=.=.",
"=.=.=.=.=.=.=.=.=.=.=.=.=.=.=.=.=.=.=.=.=.=.=.=.=.=.=.=.=.=.=.=.=.=.=.=.=.=.=.=.=.=.=.=.=.=.=.=.",
"=.=.=.=.=.=.=.=.=.=.=.=.=.=.=.=.{ 6 6 6 6 6 6 6 6 6 6 6 6 K =.=.=.=.=.=.=.=.=.=.=.=.=.=.=.=.=.=.",
"=.=.=.=.=.=.=.=.=.=.=.=.=.=.=.=.E                         d =.=.=.=.=.=.=.=.=.=.=.=.=.=.=.=.=.=.",
"=.=.=.=.=.=.=.=.=.=.=.=.=.=.} = u z z z M A A A A A z z z p = P =.=.=.=.=.=.=.=.=.=.=.=.=.=.=.=.",
"=.=.=.=.=.=.=.=.=.=.=.=.=.=.}   @ c c c S O.O.O.O.O.c c c j   K =.=.=.=.=.=.=.=.=.=.=.=.=.=.=.=.",
"=.=.=.=.=.=.=.=.=.=.=.=.=.  o c B O.O.O.O.O.O.O.O.O.O.O.O.S c 1   Y =.=.=.=.=.=.=.=.=.=.=.=.=.=.",
"=.=.=.=.=.=.=.=.=.=.=.=.=.  o n V O.O.O.O.O.O.O.O.O.O.O.O.S n 1   Y =.=.=.=.=.=.=.=.=.=.=.=.=.=.",
"=.=.=.=.=.=.=.=.=.=.=.=.=.  # O.O.O.O.O.O.O.O.O.O.O.O.O.O.O.O.s   t =.=.=.=.=.=.=.=.=.=.=.=.=.=.",
"=.=.=.=.=.=.=.=.=.=.=.{ E : 4 O.O.O.O.O.O.O.O.O.O.O.O.O.O.O.O.m : h E &.=.=.=.=.=.=.=.=.=.=.=.=.",
"=.=.=.=.=.=.=.=.=.=.=.=   O.O.O.O.O.O.O.O.O.O.O.O.O.O.O.O.O.O.O.O.4   E =.=.=.=.=.=.=.=.=.=.=.=.",
"=.=.=.=.=.=.=.=.=.=.=.=   O.O.O.O.O.O.O.O.O.O.O.O.O.O.O.O.O.O.O.O.4   E =.=.=.=.=.=.=.=.=.=.=.=.",
"=.=.=.=.=.=.=.=.=.=.=.=   O.O.O.O.O.O.O.O.O.O.O.O.O.O.O.O.O.O.O.O.4   E =.=.=.=.=.=.=.=.=.=.=.=.",
"=.=.=.=.=.=.=.=.=.=.=.=   C Z O.O.O.O.O.O.O.O.O.O.O.O.O.O.O.O.S C <   E =.=.=.=.=.=.=.=.=.=.=.=.",
") ) ) ) =.=.=.=.=.=.=.=   c c O.O.O.O.O.O.O.O.O.O.O.O.O.O.O.O.Z c >   E =.=.=.=.=.=.=.=.=.=.=.=.",
") ) ) ) =.=.=.=.=.=.=.=   c c B B B Z O.O.O.O.O.O.O.O.o.B B B c c >   E =.=.=.=.=.=.=.=.=.=.=.=.",
") ) ) ) ) ) ) ) =.=.=.=   c c c c c C O.O.O.O.O.O.O.O.X.c c c c c >   L =.=.=.=.=.=.=.=.=.=.=.=.",
") ) ) ) ) ) ) ) =.=.=.} } o @ c c c c n n n n n n n n n c c c 3 o g U ( =.=.=.=.=.=.=.=.=.=.=.=.",
") ) ) ) ) ) ) ) ) ) =.=.=.  o c c c c c c c c c c c c c c c c 1   t ) ) ) ) =.=.=.=.=.=.=.=.=.=.",
") ) ) ) ) ) ) ) ) ) =.=.=.  o c c c c c c c c c c c c c c c c 1   t ) ) ) ) =.=.=.=.=.=.=.=.=.=.",
") ) ) ) ) ) ) ) ) ) =.=.=.= - z z z x c c c c c c c c c z z z 2 & D ) ) ) ) =.=.=.=.=.=.=.=.=.=.",
") ) ) ) ) ) ) ) ) ) =.=.=.=.}       > c c c c c c c c l       q ) ) ) ) ) ) =.=.=.=.=.=.=.=.=.=.",
"=.=.=.=.) ) ) ) =.=.=.=.=.=.}   . ; i k k k k k k k k j ; *   q ) ) ) ) =.=.=.=.=.=.=.=.=.=.=.=.",
"=.=.=.=.) ) ) ) =.=.=.=.=.=.}   % ^ y                 $ ^ y   q ) ) ) ) =.=.=.=.=.=.=.=.=.=.=.=.",
"=.=.=.=.=.=.=.=.=.=.=.=.=.=.}   % ^ ~ 8 8 8 w e e e 8 r ^ y   q =.=.=.=.=.=.=.=.=.=.=.=.=.=.=.=.",
"=.=.=.=.=.=.=.=.=.=.=.=.=.=.}   % ^ / ` ` ` %.;.;.;.` _ ^ y   q =.=.=.=.=.=.=.=.=.=.=.=.=.=.=.=.",
"=.=.=.=.=.=.=.=.=.=.=.=.=.d f @.+.^ / ` [ #.-.;.;.;.` _ ^ y   K =.=.=.=.=.=.=.=.=.=.=.=.=.=.=.=.",
"=.=.=.=.=.=.=.=.=.=.=.=.=.  , 2.1.^ / ` $.;.;.;.;.;.` _ ^ y   K =.=.=.=.=.=.=.=.=.=.=.=.=.=.=.=.",
"=.=.=.=.=.=.=.=.=.=.=.=.=.  , 2.,.9.0.w.t.y.:.;.[ ] ` _ ^ y   K =.=.=.=.=.=.=.=.=.=.=.=.=.=.=.=.",
"=.=.=.=.=.=.=.=.=.=.=.=.=.  , 2.<.u.u.u.u.u.>.;.' ` ` _ ^ y   K =.=.=.=.=.=.=.=.=.=.=.=.=.=.=.=.",
"=.=.=.=.=.=.=.=.=.=.=.=.=.} E , a N N N N N 7.r.e.e.s.s.a.3.  K =.=.=.=.=.=.=.=.=.=.=.=.=.=.=.=.",
"=.=.=.=.=.=.=.=.=.=.=.=.=.=.}   @ c c c c c 4.u.u.u.d.d.d.q.  K =.=.=.=.=.=.=.=.=.=.=.=.=.=.=.=.",
"=.=.=.=.=.=.=.=.=.=.=.=.=.=.}   @ c c c c c @   6.u.u.p.d.q.  K =.=.=.=.=.=.=.=.=.=.=.=.=.=.=.=.",
"=.=.=.=.=.=.=.=.=.=.=.=.=.&.W O + z z z z z @   6.u.u.p.d.q.  J &.*.=.=.=.=.=.=.=.=.=.=.=.=.=.=.",
"=.=.=.=.=.=.=.=.=.=.=.=.=.H H H F               6.u.u.p.d.q.  7 H Q =.=.=.=.=.=.=.=.=.=.=.=.=.=.",
"=.=.=.=.=.=.=.=.=.=.=.| | H H H G = = = = = X   ..5.5.8.i. .= 0 H R | *.=.=.=.=.=.=.=.=.=.=.=.=.",
"=.=.=.=.=.=.=.=.=.=.=.I H H H H H H H H H H =   z c c l   5 H H H H H | =.=.=.=.=.=.=.=.=.=.=.=.",
"=.=.=.=.=.=.=.=.=.=.=.I H H H H H H H H H H 9 5 v b b v 5 0 H H H H H | =.=.=.=.=.=.=.=.=.=.=.=.",
"=.=.=.=.=.=.=.=.=.=.=.I H H H H H H H H H H H H H H H H H H H H H H H | =.=.=.=.=.=.=.=.=.=.=.=.",
"=.=.=.=.=.=.=.=.=.=.=.! Q H H H H H H H H H H H H H H H H H H H H T Q &.=.=.=.=.=.=.=.=.=.=.=.=.",
"=.=.=.=.=.=.=.=.=.=.=.=.=.H H H H H H H H H H H H H H H H H H H H Q =.=.=.=.=.=.=.=.=.=.=.=.=.=."
};
