/* XPM */
static char *a15a88095cc64a28beb77105e834db78DcSUeNIcXJQvh7TM[] = {
/* columns rows colors chars-per-pixel */
"48 48 168 2 ",
"   c #0E071B",
".  c #180C1D",
"X  c #11111D",
"o  c #13141F",
"O  c #1B151F",
"+  c #22101E",
"@  c #1A0F20",
"#  c #0F1021",
"$  c #0D142D",
"%  c #111220",
"&  c #141721",
"*  c #1A1120",
"=  c #141821",
"-  c #101827",
";  c #1E1C23",
":  c #1D1826",
">  c #0C1933",
",  c #161E35",
"<  c #1B1E33",
"1  c #251422",
"2  c #2C1520",
"3  c #271A26",
"4  c #2B1F2C",
"5  c #361A22",
"6  c #381D25",
"7  c #3C1E24",
"8  c #172123",
"9  c #1A2826",
"0  c #1E212D",
"q  c #1D3726",
"w  c #1F3C27",
"e  c #1D3029",
"r  c #1C3731",
"t  c #242C28",
"y  c #3E2426",
"u  c #3A2028",
"i  c #3F272F",
"p  c #223927",
"a  c #22332A",
"s  c #20382C",
"d  c #2A3C2E",
"f  c #3F2D30",
"g  c #253632",
"h  c #343538",
"j  c #401E23",
"k  c #401F24",
"l  c #412025",
"z  c #452124",
"x  c #492325",
"c  c #44252A",
"v  c #502727",
"b  c #532827",
"n  c #522A2B",
"m  c #552B2A",
"M  c #5D2C28",
"N  c #5F2F2C",
"B  c #5A302F",
"V  c #5F302C",
"C  c #4B2F34",
"Z  c #4B3736",
"A  c #48383C",
"S  c #523A3F",
"D  c #62332F",
"F  c #633430",
"G  c #653632",
"H  c #673936",
"J  c #613C3B",
"K  c #643F3E",
"L  c #693D3A",
"P  c #23412F",
"I  c #234A2A",
"U  c #254E2B",
"Y  c #3B442B",
"T  c #26532C",
"R  c #284230",
"E  c #264832",
"W  c #204739",
"Q  c #2B4B3B",
"!  c #374037",
"~  c #295034",
"^  c #295A30",
"/  c #2C5937",
"(  c #23523E",
")  c #355A3A",
"_  c #2C6134",
"`  c #2F6737",
"'  c #2F613A",
"]  c #32693D",
"[  c #35753E",
"{  c #57403B",
"}  c #6B403C",
"|  c #6E433F",
" . c #0B2B4B",
".. c #0B2C4C",
"X. c #15304D",
"o. c #134C4C",
"O. c #16554D",
"+. c #195E4E",
"@. c #3E484F",
"#. c #265C42",
"$. c #1E6F50",
"%. c #23774F",
"&. c #23794F",
"*. c #247A4F",
"=. c #387943",
"-. c #484042",
";. c #545847",
":. c #565153",
">. c #6E4340",
",. c #6F4542",
"<. c #644A41",
"1. c #694C41",
"2. c #704643",
"3. c #675244",
"4. c #65504D",
"5. c #705346",
"6. c #7A5847",
"7. c #725648",
"8. c #7C5D4B",
"9. c #7F5F4E",
"0. c #404E60",
"q. c #4C6C61",
"w. c #896650",
"e. c #8D6B56",
"r. c #82695D",
"t. c #A1795B",
"y. c #A37C5E",
"u. c #29834E",
"i. c #2E8E4C",
"p. c #3B8146",
"a. c #3D8547",
"s. c #3E8948",
"d. c #30934C",
"f. c #33984B",
"g. c #768371",
"h. c #9F816E",
"j. c #848B76",
"k. c #A28A67",
"l. c #B98C66",
"z. c #B38E72",
"x. c #BC997E",
"c. c #C5956B",
"v. c #D29F70",
"b. c #CBA17D",
"n. c #D7A476",
"m. c #025D98",
"M. c #137B86",
"N. c #107C8D",
"B. c #2F6282",
"V. c #247099",
"C. c #0069AA",
"Z. c #016FAE",
"A. c #087EA6",
"S. c #006FB1",
"D. c #0075B7",
"F. c #007ABD",
"G. c #0982A7",
"H. c #0B88A7",
"J. c #1295A6",
"K. c #1398A6",
"L. c #0C8BC5",
"P. c #0691D1",
"I. c #0098DC",
"U. c #A19B80",
"Y. c #D9B18E",
"T. c #DABA95",
"R. c #E4B487",
"E. c #F6CA9F",
/* pixels */
"s.s.s.s.s.s.s.s.s.s.s.s.s.s.s.s.s.s.s.s.s.s.s.s.s.s.s.s.s.s.s.s.s.s.s.s.s.s.s.s.s.s.s.s.s.s.s.s.",
"s.s.s.s.s.s.s.s.s.s.s.s.s.s.s.s.s.s.s.s.s.s.s.s.s.s.s.s.s.s.s.s.s.s.s.s.s.s.s.s.s.s.s.s.s.s.s.s.",
"s.s.s.s.s.s.s.s.s.s.s.s.s.s.s.s.s.s.s.s.s.s.s.s.s.s.s.s.s.s.s.s.s.s.s.s.s.s.s.s.s.s.s.s.s.s.s.s.",
"s.s.s.s.s.s.s.s.s.s.s.s.s.s.s.s.s.s.s.s.s.s.s.s.s.s.s.s.s.s.s.s.s.s.s.s.s.s.s.s.s.s.s.s.s.s.s.s.",
"s.s.s.s.s.s.s.s.s.s.s.s.s.s.s.s.s.s.s.s.s.s.s.s.s.s.s.s.s.s.s.s.s.s.s.s.s.s.s.s.s.s.s.s.s.s.s.s.",
"s.s.s.s.s.s.s.s.s.s.s.s.s.s.s.s.s.s.s.s.s.s.s.s.s.s.s.s.s.s.s.s.s.s.s.s.s.s.s.s.s.s.s.s.s.s.s.s.",
"s.s.s.s.s.s.s.s.s.s.s.s.s.s.s.s.s.s.s.s.s.s.s.s.s.s.s.s.s.s.s.s.s.s.s.s.s.s.s.s.s.s.s.s.s.s.s.s.",
"s.s.s.s.s.s.s.s.s.s.s.s.s.s.s.s.s.] ] ] ] ] ] ] ] ] ] ] ] p.s.s.s.s.s.s.s.s.s.s.s.s.s.s.s.s.s.s.",
"s.s.s.s.s.s.s.s.s.s.s.s.s.s.s.s.=.                        ] s.s.s.s.s.s.s.s.s.s.s.s.s.s.s.s.s.s.",
"s.s.s.s.s.s.s.s.s.s.s.s.s.s.s.~ R 5 6 i i i 6 5 i i i u 5 d E p.s.s.s.s.s.s.s.s.s.s.s.s.s.s.s.s.",
"s.s.s.s.s.s.s.s.s.s.s.s.s.s.s.= . M D 2.2.2.D M 2.2.2.H M +   =.s.s.s.s.s.s.s.s.s.s.s.s.s.s.s.s.",
"s.s.s.s.s.s.s.s.s.s.s.s.s.~ 9 j v } | 2.2.2.| } 2.2.2.>.} n x t e s.s.s.s.s.s.s.s.s.s.s.s.s.s.s.",
"s.s.s.s.s.s.s.s.s.s.s.s.s.s   b M 2.2.2.2.2.2.2.2.2.2.2.2.D M . & s.s.s.s.s.s.s.s.s.s.s.s.s.s.s.",
"s.s.s.s.s.s.s.s.s.s.s.s.s.s   J | 2.2.2.2.2.F V 2.2.2.2.2.,.| @ & s.s.s.s.s.s.s.s.s.s.s.s.s.s.s.",
"s.s.s.s.s.s.s.s.s.s.s.p.=.a . K 2.2.2.2.,.>.D M >.,.2.2.2.2.2.1 ; =.p.s.s.s.s.s.s.s.s.s.s.s.s.s.",
"s.s.s.s.s.s.s.s.s.s.s./   k M >.2.2.2.2.H M M M M D 2.2.2.2.2.N v   s s.s.s.s.s.s.s.s.s.s.s.s.s.",
"s.s.s.s.s.s.s.s.s.s.s./   c G ,.2.2.>.L F M z j M D 2.2.2.2.2.H B   s s.s.s.s.s.s.s.s.s.s.s.s.s.",
"s.s.s.s.s.s.s.s.s.s.s./   C 2.2.2.2.} M M M +   M D 2.2.2.2.2.2.K   s s.s.s.s.s.s.s.s.s.s.s.s.s.",
"s.s.s.s.s.s.s.s.s.s.s./   C 2.2.2.2.} M z 2 6.w.2 7 G L 2.2.2.2.K   s s.s.s.s.s.s.s.s.s.s.s.s.s.",
"s.s.s.s.s.s.s.s.s.s.s./   C 2.2.2.2.} M 5   t.v.  + M H 2.2.2.2.K   s s.s.s.s.s.s.s.s.s.s.s.s.s.",
"s.s.s.s.s.s.s.s.s.s.s./   l V V m @ @ . 1.l.c.v.l.w.. . @ n V V m   s s.s.s.s.s.s.s.s.s.s.s.s.s.",
"#.#.#.#.s.s.s.s.s.s.s.' = y b b x 3 *   7.n.n.n.n.y.  * 3 k b b x = P s.s.s.s.s.s.s.s.s.s.s.s.s.",
"#.#.#.#.s.s.s.s.s.s.s.s.s.s     3 v.t.  r.E.E.E.E.x.  5.v.f     & s.s.s.s.s.s.s.s.s.s.s.s.s.s.s.",
"#.#.#.#.#.#.#.#.s.s.s.s.s.s   Z <.v.t.  r.E.E.E.E.x.  5.v.8.{ * % #.#.#.s.s.s.s.s.s.s.s.s.s.s.s.",
"#.#.#.#.#.#.#.#.s.s.s.s.s.s   l.v.v.t.  r.E.E.E.E.x.  5.v.v.v.3 % #.#.#.s.s.s.s.s.s.s.s.s.s.s.s.",
"#.#.#.#.#.#.#.#.#.#.s.s.s.' E 3.9.R.b.r.x.E.E.E.E.Y.r.z.R.e.5.g r #.#.#.#.#.s.s.s.s.s.s.s.s.s.s.",
"#.#.#.#.#.#.#.#.#.#.s.s.s.s.s.= 4 E.E.E.E.E.E.E.E.E.E.E.E.A   ( #.#.#.#.#.#.s.s.s.s.s.s.s.s.s.s.",
"#.#.#.#.#.#.#.#.#.#.s.s.s.s.s.= : q.g.E.E.E.E.E.E.E.E.U.q.0   ( #.#.#.#.#.#.s.s.s.s.s.s.s.s.s.s.",
"#.#.#.#.#.#.#.#.#.#.s.s.s.s.s.= # o.q.E.E.E.E.E.E.E.E.j.o.-   ( #.#.#.#.#.#.s.s.s.s.s.s.s.s.s.s.",
"s.s.s.s.#.#.#.#.s.s.s.s.s.s     # o.O.$.u.f.f.f.$.$.$.+.o.-   ( #.#.#.#.s.s.s.s.s.s.s.s.s.s.s.s.",
"s.s.s.s.#.#.#.#.s.s.s.p.] ! A A -.o.O.$.u.f.f.f.*.%.$.+.o.h f Q W #.#.#.s.s.s.s.s.s.s.s.s.s.s.s.",
"s.s.s.s.s.s.s.s.s.s.s./   h.E.E.T.o.O.$.u.f.f.f.f.i.$.+.o.k.v.3 & s.s.s.s.s.s.s.s.s.s.s.s.s.s.s.",
"s.s.s.s.s.s.s.s.s.s.s./   h.E.E.T.o.O.$.&.u.d.f.f.i.$.+.o.k.v.3 & s.s.s.s.s.s.s.s.s.s.s.s.s.s.s.",
"s.s.s.s.s.s.s.s.s.s.s./   h.E.E.T.o.O.$.$.$.i.f.f.i.$.+.o.k.v.3 & s.s.s.s.s.s.s.s.s.s.s.s.s.s.s.",
"s.s.s.s.s.s.s.s.s.s.s.=./ ;.4.4.:.A.A.H.H.H.N.M.K.J.H.G.A.@.{ ) ' s.s.s.s.s.s.s.s.s.s.s.s.s.s.s.",
"s.s.s.s.s.s.s.s.s.s.s.s.s.s     > I.I.I.I.I.D.C.I.I.I.I.I. .  =.s.s.s.s.s.s.s.s.s.s.s.s.s.s.s.s.",
"s.s.s.s.s.s.s.s.s.s.s.s.s.p.=.= . S S S S S < $ S.F.I.I.I. .  =.s.s.s.s.s.s.s.s.s.s.s.s.s.s.s.s.",
"s.s.s.s.s.s.s.s.s.s.s.s.s.a.p.8 O b b b b b +   m.Z.I.P.L.X.. ] =.s.s.s.s.s.s.s.s.s.s.s.s.s.s.s.",
"s.s.s.s.s.s.s.s.s.s.s.s.s.` T T I                 ..I.B.M M M . & s.s.s.s.s.s.s.s.s.s.s.s.s.s.s.",
"s.s.s.s.s.s.s.s.s.s.s.p.[ _ T T U 8 8 8 8 8 8 8   , V.0.M M M . o [ =.s.s.s.s.s.s.s.s.s.s.s.s.s.",
"s.s.s.s.s.s.s.s.s.s.s.[ T T T T T T T T T T T T   + M M M M M . X T ` s.s.s.s.s.s.s.s.s.s.s.s.s.",
"s.s.s.s.s.s.s.s.s.s.s.[ T T T T T T T T T T T T q p Y Y Y Y Y p w T ` s.s.s.s.s.s.s.s.s.s.s.s.s.",
"s.s.s.s.s.s.s.s.s.s.s.[ T T T T T T T T T T T T T T T T T T T T T T ` s.s.s.s.s.s.s.s.s.s.s.s.s.",
"s.s.s.s.s.s.s.s.s.s.s.a.p.` T T T T T T T T T T T T T T T T T T ^ p.a.s.s.s.s.s.s.s.s.s.s.s.s.s.",
"s.s.s.s.s.s.s.s.s.s.s.s.s.` T T T T T T T T T T T T T T T T T T ^ s.s.s.s.s.s.s.s.s.s.s.s.s.s.s.",
"s.s.s.s.s.s.s.s.s.s.s.s.s.s.s.s.s.s.s.s.s.s.s.s.s.s.s.s.s.s.s.s.s.s.s.s.s.s.s.s.s.s.s.s.s.s.s.s.",
"s.s.s.s.s.s.s.s.s.s.s.s.s.s.s.s.s.s.s.s.s.s.s.s.s.s.s.s.s.s.s.s.s.s.s.s.s.s.s.s.s.s.s.s.s.s.s.s.",
"s.s.s.s.s.s.s.s.s.s.s.s.s.s.s.s.s.s.s.s.s.s.s.s.s.s.s.s.s.s.s.s.s.s.s.s.s.s.s.s.s.s.s.s.s.s.s.s."
};
