/* XPM */
static char *efc5ab0e08a8407bc8b57bd8b311130dmXUxv9zyMA1LcPUA[] = {
/* columns rows colors chars-per-pixel */
"48 48 13 1 ",
"  c #0E071B",
". c #5D2C28",
"X c #26532C",
"o c #134C4C",
"O c #265C42",
"+ c #1E6F50",
"@ c #704643",
"# c #3E8948",
"$ c #33984B",
"% c #D29F70",
"& c #0069AA",
"* c #0098DC",
"= c #F6CA9F",
/* pixels */
"################################################",
"################################################",
"################################################",
"################################################",
"################################################",
"################################################",
"################################################",
"################################################",
"################################################",
"################              ##################",
"################              ##################",
"##############  ..@@@@..@@@@..  ################",
"##############  ..@@@@..@@@@..  ################",
"############  ..@@@@@@@@@@@@@@..  ##############",
"############  ..@@@@@@@@@@@@@@..  ##############",
"############  @@@@@@@@..@@@@@@@@  ##############",
"############  @@@@@@@@..@@@@@@@@  ##############",
"##########  ..@@@@@@......@@@@@@..  ############",
"##########  ..@@@@@@......@@@@@@..  ############",
"##########  @@@@@@....  ..@@@@@@@@  ############",
"##########  @@@@@@....  ..@@@@@@@@  ############",
"OOOO######  @@@@@@..  %%  ..@@@@@@  ############",
"OOOO######  @@@@@@..  %%  ..@@@@@@  ############",
"OOOOOOOO##  ....    %%%%%%    ....  ############",
"OOOOOOOO##  ....    %%%%%%    ....  ############",
"OOOOOOOOOO##    %%  ======  %%    OOOO##########",
"OOOOOOOOOO##    %%  ======  %%    OOOO##########",
"OOOOOOOOOO##  %%%%  ======  %%%%  OOOO##########",
"OOOOOOOOOO##  %%%%  ======  %%%%  OOOO##########",
"####OOOO######  ==============  OOOO############",
"####OOOO######  ==============  OOOO############",
"##############  oo==========oo  ################",
"##############  oo==========oo  ################",
"##############  oo++$$$$++++oo  ################",
"##############  oo++$$$$++++oo  ################",
"############  ====++$$$$$$++====  ##############",
"############  ====++$$$$$$++====  ##############",
"############  ====++++$$$$++====  ##############",
"############  ====++++$$$$++====  ##############",
"##############  ******&&******  ################",
"##############  ******&&******  ################",
"############XX  ****&&  &&****  XX##############",
"############XX  ****&&  &&****  XX##############",
"##########XXXX  ....  XX  ....  XXXX############",
"##########XXXX  ....  XX  ....  XXXX############",
"##########XXXXXXXXXXXXXXXXXXXXXXXXXX############",
"##########XXXXXXXXXXXXXXXXXXXXXXXXXX############",
"############XXXXXXXXXXXXXXXXXXXXXX##############"
};
