/* XPM */
static char *_2fa651ce46f48c49d904169ff635023KuDLQvq1Tiv5WLbx[] = {
/* columns rows colors chars-per-pixel */
"48 48 155 2 ",
"   c #0E071B",
".  c #1B2A1C",
"X  c #1D281C",
"o  c #17321B",
"O  c #3A2121",
"+  c #3C2221",
"@  c #243328",
"#  c #383E2A",
"$  c #363830",
"%  c #432622",
"&  c #4E2D23",
"*  c #422C29",
"=  c #4A2E2A",
"-  c #5D282B",
";  c #5D2C28",
":  c #5B2F2C",
">  c #583224",
",  c #553235",
"<  c #5A3231",
"1  c #5D3231",
"2  c #593335",
"3  c #593435",
"4  c #60282B",
"5  c #64292B",
"6  c #622A2C",
"7  c #662A2C",
"8  c #642D2C",
"9  c #692A2C",
"0  c #6D2B2D",
"q  c #682C2E",
"w  c #6D2C2E",
"e  c #712C2D",
"r  c #762D2E",
"t  c #782F2F",
"y  c #613928",
"u  c #663C2B",
"i  c #632D31",
"p  c #633736",
"a  c #6C3033",
"s  c #633836",
"d  c #673937",
"f  c #683937",
"g  c #6B3E36",
"h  c #6D3E37",
"j  c #663A38",
"k  c #6B3B38",
"l  c #6E3E38",
"z  c #713737",
"x  c #7A3030",
"c  c #7F3231",
"v  c #783435",
"b  c #7D3A37",
"n  c #703F38",
"m  c #793A39",
"M  c #7A3C3B",
"N  c #214926",
"B  c #2F432E",
"V  c #224B28",
"C  c #2D482D",
"Z  c #30472B",
"A  c #26532C",
"S  c #27562D",
"D  c #28562E",
"F  c #3F4C3A",
"G  c #2F5B33",
"H  c #2B553F",
"J  c #2C6133",
"K  c #2F6736",
"L  c #316A38",
"P  c #346B39",
"I  c #326E3A",
"U  c #39753F",
"Y  c #4A4B35",
"T  c #504C36",
"R  c #544538",
"E  c #4F5237",
"W  c #465738",
"Q  c #4E5438",
"!  c #4B5839",
"~  c #525338",
"^  c #575138",
"/  c #5A5239",
"(  c #5F553A",
")  c #5C523F",
"_  c #565E3C",
"`  c #6C4037",
"'  c #65493D",
"]  c #744338",
"[  c #784439",
"{  c #7C4639",
"}  c #7C4838",
"|  c #665E3E",
" . c #70553C",
".. c #47643D",
"X. c #134C4C",
"o. c #265C42",
"O. c #295840",
"+. c #1E6F50",
"@. c #3E6440",
"#. c #3E7143",
"$. c #397540",
"%. c #387B41",
"&. c #3F7943",
"*. c #387C41",
"=. c #6B4F40",
"-. c #704643",
";. c #436740",
":. c #4D6842",
">. c #427040",
",. c #407C44",
"<. c #823232",
"1. c #873332",
"2. c #893333",
"3. c #833C36",
"4. c #903535",
"5. c #814A39",
"6. c #864B3B",
"7. c #874E3A",
"8. c #92423B",
"9. c #94433D",
"0. c #9B463D",
"q. c #8D503A",
"w. c #91533B",
"e. c #93543C",
"r. c #95573D",
"t. c #A2493F",
"y. c #A54A3F",
"u. c #9E4A43",
"i. c #944E4E",
"p. c #9E4C48",
"a. c #9F5D42",
"s. c #9F514E",
"d. c #A44A42",
"f. c #AB4E43",
"g. c #AF4D42",
"h. c #AC4F45",
"j. c #A84F48",
"k. c #B14F43",
"l. c #A05D43",
"z. c #A5524E",
"x. c #B75044",
"c. c #B95246",
"v. c #B65449",
"b. c #B5564E",
"n. c #A76347",
"m. c #C2574A",
"M. c #C15B52",
"N. c #3F8346",
"B. c #3D8546",
"V. c #3E8948",
"C. c #33984B",
"Z. c #D29F70",
"A. c #0069AA",
"S. c #0098DC",
"D. c #F6CA9F",
/* pixels */
"V.V.V.V.V.V.V.V.V.V.V.V.V.V.V.V.V.V.V.V.V.V.V.V.V.V.V.V.V.V.V.V.V.V.V.V.V.V.V.V.V.V.V.V.V.V.V.V.",
"V.V.V.V.V.V.V.V.V.V.V.V.V.V.V.V.V.V.V.V.V.V.V.V.V.V.V.V.V.V.V.V.V.V.V.V.V.V.V.V.V.V.V.V.V.V.V.V.",
"V.V.V.V.V.V.V.V.V.V.V.V.V.V.V.V.V.V.V.V.V.V.:.=.' ;.V.V.V.V.V.V.V.V.V.V.V.V.V.V.V.V.V.V.V.V.V.V.",
"V.V.V.V.V.V.V.V.V.V.V.V.V.V.V.V.V.V.V.V.V.V.) r.w.R V.V.V.V.V.V.V.V.V.V.V.V.V.V.V.V.V.V.V.V.V.V.",
"V.V.V.V.V.V.V.V.V.V.V.V.V.V.V.V.V.V.V.V.V./ k r.w.1 E V.V.V.V.V.V.V.V.V.V.V.V.V.V.V.V.V.V.V.V.V.",
"V.V.V.V.V.V.V.V.V.V.V.V.V.V.V.V.V.V.V.V.W x.k r.w.1 r W V.V.V.V.V.V.V.V.V.V.V.V.V.V.V.V.V.V.V.V.",
"V.V.V.V.V.V.V.V.V.V.V.V.V.V.V.V.V.V.V.| 8.p.j r.w.1 9 7 T V.V.V.V.V.V.V.V.V.V.V.V.V.V.V.V.V.V.V.",
"V.V.V.V.V.V.V.V.V.V.V.V.V.V.V.V.V.V.( m.8.x.k r.w.1 e 9 r ~ V.V.V.V.V.V.V.V.V.V.V.V.V.V.V.V.V.V.",
"V.V.V.V.V.V.V.V.V.V.V.V.V.V.V.V.V._ z.d.c.y.j r.w.< 0 e e <.! V.V.V.V.V.V.V.V.V.V.V.V.V.V.V.V.V.",
"V.V.V.V.V.V.V.V.V.V.V.V.V.V.V.V.| m.m b j.g.k r.w.1 e c w 7 r T V.V.V.V.V.V.V.V.V.V.V.V.V.V.V.V.",
"V.V.V.V.V.V.V.V.V.V.V.V.V.V.V.^ f.d.m.b 3.b.j r.w.< e 5 4 e 0 e E V.V.V.V.V.V.V.V.V.V.V.V.V.V.V.",
"V.V.V.V.V.V.V.V.V.V.V.V.V.V._ k.                            4 e e ! V.V.V.V.V.V.V.V.V.V.V.V.V.V.",
"V.V.V.V.V.V.V.V.V.V.V.V.V.Q M.u.                            6 r 9 1.Y V.V.V.V.V.V.V.V.V.V.V.V.V.",
"V.V.V.V.V.V.V.V.V.V.V.V.( t.    ; ; -.-.-.-.; ; -.-.-.-.; ;     0 c 9 ~ V.V.V.V.V.V.V.V.V.V.V.V.",
"V.V.V.V.V.V.V.V.V.V.V.W m.d.    ; ; -.-.-.-.; ; -.-.-.-.; ;     q e w <.W V.V.V.V.V.V.V.V.V.V.V.",
"V.V.V.V.V.V.V.V.V.V.| 8.    ; ; -.-.-.-.-.-.-.-.-.-.-.-.-.-.; ;     w <.7 T V.V.V.V.V.V.V.V.V.V.",
"V.V.V.V.V.V.V.V.V.,.f.9.    ; ; -.-.-.-.-.-.-.-.-.-.-.-.-.-.; ;     e w r 1.,.V.V.V.V.V.V.V.V.V.",
"V.V.V.V.V.V.V.V.V.,.M v.    -.-.-.-.-.-.-.-.; ; -.-.-.-.-.-.-.-.    7 w e e ,.V.V.V.V.V.V.V.V.V.",
"V.V.V.V.V.V.V.V.V.V.>.s.    -.-.-.-.-.-.-.-.; ; -.-.-.-.-.-.-.-.    9 e x >.V.V.V.V.V.V.V.V.V.V.",
"V.V.V.V.V.V.V.V.V.V.    ; ; -.-.-.-.-.-.; ; ; ; ; ; -.-.-.-.-.-.; ;     - ..V.V.V.V.V.V.V.V.V.V.",
"V.V.V.V.V.V.V.V.V.,.    ; ; -.-.-.-.-.-.; ; ; ; ; ; -.-.-.-.-.-.; ;     9 9 ,.V.V.V.V.V.V.V.V.V.",
"o.o.o.o.V.V.V.V.V.,.    -.-.-.-.-.-.; ; ; ;     ; ; -.-.-.-.-.-.-.-.    r x ,.V.V.V.V.V.V.V.V.V.",
"o.o.o.o.V.V.V.V.V.N.    -.-.-.-.-.-.; ; ; ;     ; ; -.-.-.-.-.-.-.-.    4.# I V.V.V.V.V.V.V.V.V.",
"o.o.o.o.o.o.o.o.V.V.    -.-.-.-.-.-.; ;     Z.Z.    ; ; -.-.-.-.-.-.    - Z K V.V.V.V.V.V.V.V.V.",
"o.o.o.o.o.o.o.o.V.N.    -.-.-.-.-.-.; ;     Z.Z.    ; ; -.-.-.-.-.-.    9 8 U V.V.V.V.V.V.V.V.V.",
"o.o.o.o.o.o.o.o.o.H     ; ; ; ;         Z.Z.Z.Z.Z.Z.        ; ; ; ;     w t ,.V.V.V.V.V.V.V.V.V.",
"o.o.o.o.o.o.o.o.o.O.    ; ; ; ;         Z.Z.Z.Z.Z.Z.        ; ; ; ;     4.* $.V.V.V.V.V.V.V.V.V.",
"o.o.o.o.o.o.o.o.o.o.>.z         Z.Z.    D.D.D.D.D.D.    Z.Z.        7 2.6 @ K V.V.V.V.V.V.V.V.V.",
"o.o.o.o.o.o.o.o.o.o. .0.        Z.Z.    D.D.D.D.D.D.    Z.Z.        e c 7 = P V.V.V.V.V.V.V.V.V.",
"V.V.V.V.o.o.o.o.V.,.h.9.    Z.Z.Z.Z.    D.D.D.D.D.D.    Z.Z.Z.Z.    a e 9 e ,.V.V.V.V.V.V.V.V.V.",
"V.V.V.V.o.o.o.o.V.,.f M.    Z.Z.Z.Z.    D.D.D.D.D.D.    Z.Z.Z.Z.    d i 1.: &.V.V.V.V.V.V.V.V.V.",
"V.V.V.V.V.V.V.V.V.V.>.i.d 2     D.D.D.D.D.D.D.D.D.D.D.D.D.D.    p ] 2 s v Z K V.V.V.V.V.V.V.V.V.",
"V.V.V.V.V.V.V.V.V.V.#.s f f     D.D.D.D.D.D.D.D.D.D.D.D.D.D.    , d f f p C K V.V.V.V.V.V.V.V.V.",
"V.V.V.V.V.V.V.V.V.V.N.F q.l     X.X.D.D.D.D.D.D.D.D.D.D.X.X.    [ n h q.$ G V.V.V.V.V.V.V.V.V.V.",
"V.V.V.V.V.V.V.V.V.V.V.@.r.l     X.X.D.D.D.D.D.D.D.D.D.D.X.X.    } ] h e.B D *.V.V.V.V.V.V.V.V.V.",
"V.V.V.V.V.V.V.V.V.V.V.@.a.l     X.X.+.+.C.C.C.C.+.+.+.+.X.X.    6.{ h l.B A K V.V.V.V.V.V.V.V.V.",
"V.V.V.V.V.V.V.V.V.V.V.@.a.l     X.X.+.+.C.C.C.C.+.+.+.+.X.X.    ` g h l.B S L V.V.V.V.V.V.V.V.V.",
"V.V.V.V.V.V.V.V.V.V.V.@.    D.D.D.D.+.+.C.C.C.C.C.C.+.+.D.D.D.D.    h l.B J V.V.V.V.V.V.V.V.V.V.",
"V.V.V.V.V.V.V.V.V.V.V.@.    D.D.D.D.+.+.C.C.C.C.C.C.+.+.D.D.D.D.    h l.B J V.V.V.V.V.V.V.V.V.V.",
"V.V.V.V.V.V.V.V.V.V.V.@.    D.D.D.D.+.+.+.+.C.C.C.C.+.+.D.D.D.D.    h l.B J V.V.V.V.V.V.V.V.V.V.",
"V.V.V.V.V.V.V.V.V.V.V.@.    D.D.D.D.+.+.+.+.C.C.C.C.+.+.D.D.D.D.    h l.B J V.V.V.V.V.V.V.V.V.V.",
"V.V.V.V.V.V.V.V.V.V.V.@.a.l     S.S.S.S.S.S.A.A.S.S.S.S.S.S.    7.5.h l.B J V.V.V.V.V.V.V.V.V.V.",
"V.V.V.V.V.V.V.V.V.V.V.@.a.l     S.S.S.S.S.S.A.A.S.S.S.S.S.S.    3 3 h l.B J V.V.V.V.V.V.V.V.V.V.",
"V.V.V.V.V.V.V.V.V.V.V.@.y %     S.S.S.S.A.A.    A.A.S.S.S.S.    > & h l.B J V.V.V.V.V.V.V.V.V.V.",
"V.V.V.V.V.V.V.V.V.V.V.@.u %     S.S.S.S.A.A.    A.A.S.S.S.S.    + O h n.B J V.V.V.V.V.V.V.V.V.V.",
"V.V.V.V.V.V.V.V.V.V.A N X .     ; ; ; ;     o X     ; ; ; ;     o o . X A K V.V.V.V.V.V.V.V.V.V.",
"V.V.V.V.V.V.V.V.V.V.A A V V     ; ; ; ;     V V     ; ; ; ;     V V V V %.B.V.V.V.V.V.V.V.V.V.V.",
"V.V.V.V.V.V.V.V.V.V.A A A A A A A A A A A A A A A A A A A A A A A A A A V.V.V.V.V.V.V.V.V.V.V.V."
};
