/* XPM */
static char *c60bb51883364600cebe4c22bb956336IU2EgaUkm1obNHnI[] = {
/* columns rows colors chars-per-pixel */
"48 48 11 1 ",
"  c None",
". c #0E071B",
"X c #5D2C28",
"o c #134C4C",
"O c #1E6F50",
"+ c #704643",
"@ c #33984B",
"# c #D29F70",
"$ c #0069AA",
"% c #0098DC",
"& c #F6CA9F",
/* pixels */
"                                                ",
"                                                ",
"                                                ",
"                                                ",
"                ..............                  ",
"                ..............                  ",
"              ..XX++++XX++++XX..                ",
"              ..XX++++XX++++XX..                ",
"            ..XX++++++++++++++XX..              ",
"            ..XX++++++++++++++XX..              ",
"            ..++++++++XX++++++++..              ",
"            ..++++++++XX++++++++..              ",
"          ..XX++++++XXXXXX++++++XX..            ",
"          ..XX++++++XXXXXX++++++XX..            ",
"          ..++++++XXXX..XX++++++++..            ",
"          ..++++++XXXX..XX++++++++..            ",
"          ..++++++XX..##..XX++++++..            ",
"          ..++++++XX..##..XX++++++..            ",
"          ..XXXX....######....XXXX..            ",
"          ..XXXX....######....XXXX..            ",
"            ....##..&&&&&&..##....              ",
"            ....##..&&&&&&..##....              ",
"            ..####..&&&&&&..####..              ",
"            ..####..&&&&&&..####..              ",
"              ..&&&&&&&&&&&&&&..                ",
"              ..&&&&&&&&&&&&&&..                ",
"              ..oo&&&&&&&&&&oo..                ",
"              ..oo&&&&&&&&&&oo..                ",
"              ..ooOO@@@@OOOOoo..                ",
"              ..ooOO@@@@OOOOoo..                ",
"            ..&&&&OO@@@@@@OO&&&&..              ",
"            ..&&&&OO@@@@@@OO&&&&..              ",
"            ..&&&&OOOO@@@@OO&&&&..              ",
"            ..&&&&OOOO@@@@OO&&&&..              ",
"              ..%%%%%%$$%%%%%%..                ",
"              ..%%%%%%$$%%%%%%..                ",
"              ..%%%%$$..$$%%%%..                ",
"              ..%%%%$$..$$%%%%..                ",
"              ..XXXX..  ..XXXX..                ",
"              ..XXXX..  ..XXXX..                ",
"                                                ",
"                                                ",
"                                                ",
"                                                ",
"                                                ",
"                                                ",
"                                                ",
"                                                "
};
