/* XPM */
static char *_d7fc2d007df4dfdfb76dadf0a165912v5sMHg9CFbi58KXb[] = {
/* columns rows colors chars-per-pixel */
"48 48 174 2 ",
"   c #0E071B",
".  c #180C1D",
"X  c #141A1F",
"o  c #22101F",
"O  c #27121F",
"+  c #1B0F20",
"@  c #0F1021",
"#  c #1A1120",
"$  c #141821",
"%  c #141D25",
"&  c #0C1933",
"*  c #231220",
"=  c #201621",
"-  c #251422",
";  c #261725",
":  c #291623",
">  c #2C1520",
",  c #271A26",
"<  c #2A1B23",
"1  c #311821",
"2  c #361A22",
"3  c #331C25",
"4  c #331F2A",
"5  c #172422",
"6  c #1A2826",
"7  c #1A2D24",
"8  c #1D3427",
"9  c #1A322F",
"0  c #0B203F",
"q  c #102839",
"w  c #1D3D34",
"e  c #262627",
"r  c #2C2123",
"t  c #2B2327",
"y  c #2F232B",
"u  c #2C272B",
"i  c #342024",
"p  c #3D2126",
"a  c #37212B",
"s  c #3C222A",
"d  c #3F272F",
"f  c #2C372C",
"g  c #20382C",
"h  c #212237",
"j  c #3F2D31",
"k  c #383433",
"l  c #401E23",
"z  c #492325",
"x  c #422A2E",
"c  c #4D282A",
"v  c #532726",
"b  c #532827",
"n  c #5D2C28",
"m  c #592E2D",
"M  c #5C2F2C",
"N  c #5F302C",
"B  c #4C2E34",
"V  c #453735",
"C  c #4C3635",
"Z  c #453D36",
"A  c #48353D",
"S  c #5D3434",
"D  c #523439",
"F  c #583639",
"G  c #62332F",
"H  c #653632",
"J  c #653734",
"K  c #623837",
"L  c #673936",
"P  c #643F3E",
"I  c #693D39",
"U  c #204028",
"Y  c #224529",
"T  c #23482B",
"R  c #254F2B",
"E  c #2D4E2B",
"W  c #26532C",
"Q  c #264832",
"!  c #204738",
"~  c #295A30",
"^  c #2C5937",
"/  c #23513D",
"(  c #2C5838",
")  c #2C6133",
"_  c #2F6737",
"`  c #2F613A",
"'  c #326E3A",
"]  c #32693D",
"[  c #35713F",
"{  c #35753E",
"}  c #57403B",
"|  c #58403B",
" . c #6B403D",
".. c #113343",
"X. c #092C51",
"o. c #3B3D50",
"O. c #124346",
"+. c #134C4C",
"@. c #17564C",
"#. c #104752",
"$. c #125155",
"%. c #11565E",
"&. c #155A58",
"*. c #2A4E4A",
"=. c #265C42",
"-. c #2B5751",
";. c #277C4C",
":. c #357140",
">. c #377940",
",. c #387943",
"<. c #2F6051",
"1. c #054475",
"2. c #0F5F70",
"3. c #344662",
"4. c #5C4641",
"5. c #464755",
"6. c #6A4241",
"7. c #6E4340",
"8. c #6F4441",
"9. c #644A41",
"0. c #704643",
"q. c #65514D",
"w. c #7C5D4B",
"e. c #687B6B",
"r. c #82614D",
"t. c #886651",
"y. c #8D6C56",
"u. c #956F56",
"i. c #A1795B",
"p. c #A67E60",
"a. c #3B8146",
"s. c #3E8948",
"d. c #33984B",
"f. c #3F8453",
"g. c #2D985D",
"h. c #4C9F56",
"j. c #5EA572",
"k. c #64A560",
"l. c #9F816E",
"z. c #B98C65",
"x. c #BE916B",
"c. c #BC997E",
"v. c #CD9D74",
"b. c #D29F70",
"n. c #D7A476",
"m. c #DBAA7C",
"M. c #045186",
"N. c #025D98",
"B. c #066294",
"V. c #15769F",
"C. c #0069AA",
"Z. c #006CAD",
"A. c #187DAF",
"S. c #006FB0",
"D. c #0072B4",
"F. c #0075B7",
"G. c #027AB7",
"H. c #0585B8",
"J. c #55878A",
"K. c #0086C9",
"L. c #008CCF",
"P. c #0098DC",
"I. c #2F99C7",
"U. c #3EA5CD",
"Y. c #B9BDAE",
"T. c #DFAF82",
"R. c #D9B28F",
"E. c #E1B68E",
"W. c #E9B98D",
"Q. c #E5BB94",
"!. c #EBBD90",
"~. c #EDBF93",
"^. c #F1C599",
"/. c #F6CA9F",
/* pixels */
"s.s.s.s.s.s.s.s.s.s.s.s.s.s.s.s.s.s.s.s.s.s.s.s.s.s.s.s.s.s.s.s.s.s.s.s.s.s.s.s.s.s.s.s.s.s.s.s.",
"s.s.s.s.s.s.s.s.s.s.s.s.s.s.s.s.s.s.s.s.s.s.s.s.s.s.s.s.s.s.s.s.s.s.s.s.s.s.s.s.s.s.s.s.s.s.s.s.",
"s.s.s.s.s.s.s.s.s.s.s.s.s.s.s.s.s.s.s.s.s.s.s.s.s.s.s.s.s.s.s.s.s.s.s.s.s.s.s.s.s.s.s.s.s.s.s.s.",
"s.s.s.s.s.s.s.s.s.s.s.s.s.s.s.s.s.s.s.s.s.s.s.s.s.s.s.s.s.s.s.s.s.s.s.s.s.s.s.s.s.s.s.s.s.s.s.s.",
"s.s.s.s.s.s.s.s.s.s.s.s.s.s.s.s.s.s.s.s.s.s.s.s.s.s.s.s.s.s.s.s.s.s.s.s.s.s.s.s.s.s.s.s.s.s.s.s.",
"s.s.s.s.s.s.s.s.s.s.s.s.s.s.s.s.s.s.s.s.s.s.s.s.s.s.s.s.s.s.s.s.s.s.s.s.s.s.s.s.s.s.s.s.s.s.s.s.",
"s.s.s.s.s.s.s.s.s.s.s.s.s.s.s.s.s.s.s.s.s.s.s.s.s.s.s.s.s.s.s.s.s.s.s.s.s.s.s.s.s.s.s.s.s.s.s.s.",
"s.s.s.s.s.s.s.s.s.s.s.s.s.s.s.s.s.s.s.s.s.s.s.s.s.s.s.s.s.s.s.s.s.s.s.s.s.s.s.s.s.s.s.s.s.s.s.s.",
"s.s.s.s.s.s.s.s.s.s.s.s.s.s.s.s.s.,.,.,.,.,.,.,.,.,.,.,.,.a.s.s.s.s.s.s.s.s.s.s.s.s.s.s.s.s.s.s.",
"s.s.s.s.s.s.s.s.s.s.s.s.s.s.s.s.,.                        6 s.s.s.s.s.s.s.s.s.s.s.s.s.s.s.s.s.s.",
"s.s.s.s.s.s.s.s.s.s.s.s.s.s.s.:.^ o o o * ; ; ; ; ; ; ; o e ] ,.s.s.s.s.s.s.s.s.s.s.s.s.s.s.s.s.",
"s.s.s.s.s.s.s.s.s.s.s.s.s.s.s.$ . n n n H 0.0.0.0.0.0.7.n z   Q s.s.s.s.s.s.s.s.s.s.s.s.s.s.s.s.",
"s.s.s.s.s.s.s.s.s.s.s.s.s.` ^ y a H H H I 0.0.0.0.0.0.8.H m > f ^ ,.s.s.s.s.s.s.s.s.s.s.s.s.s.s.",
"s.s.s.s.s.s.s.s.s.s.s.s.s.6   P 0.0.0.0.0.0.0.0.0.0.0.0.0. .n 2   ( s.s.s.s.s.s.s.s.s.s.s.s.s.s.",
"s.s.s.s.s.s.s.s.s.s.s.` g V B 6.0.0.0.0.0.0.0.0.0.0.0.0.0.8.I s   ( s.s.s.s.s.s.s.s.s.s.s.s.s.s.",
"s.s.s.s.s.s.s.s.s.s.s.Q   F 0.0.0.0.0.0.0.0.0.0.0.0.0.0.0.0.0.d   w s.s.s.s.s.s.s.s.s.s.s.s.s.s.",
"s.s.s.s.s.s.s.s.s.s.s.Q   F 0.0.0.0.0.0.0.0.0.0.0.0.0.0.0.0.0.S z t 6 :.s.s.s.s.s.s.s.s.s.s.s.s.",
"s.s.s.s.s.s.s.s.s.s.s.Q   F 0.0.0.0.0.0.0.0.0.0.0.0.0.0.0.0.0.L n >   ] s.s.s.s.s.s.s.s.s.s.s.s.",
"s.s.s.s.s.s.s.s.s.s.s.Q   F 0.0.7.N H 0.0.0.J N : + + - N H 0.L n >   ] s.s.s.s.s.s.s.s.s.s.s.s.",
"s.s.s.s.s.s.s.s.s.s.s.Q   F 0.0.7.n G 0.0.0.H n o     . n G 0.L n >   ] s.s.s.s.s.s.s.s.s.s.s.s.",
"s.s.s.s.s.s.s.s.s.s.s.Q   z n n n n G 0.I n >   i.b.b.z.      2 n >   ] s.s.s.s.s.s.s.s.s.s.s.s.",
"=.=.=.=.s.s.s.s.s.s.s.Q   z n n n b M 7.K b 3 , p.n.n.x., #   1 b < $ ] s.s.s.s.s.s.s.s.s.s.s.s.",
"=.=.=.=.s.s.s.s.s.s.s.Q   z n n v   o n l   t.b.~././.^.b.i.      ( s.s.s.s.s.s.s.s.s.s.s.s.s.s.",
"=.=.=.=.=.=.=.=.s.s.s.Q   c G v l j x z p j t.i.E././.^.i.w.  $ % ! =.=.s.s.s.s.s.s.s.s.s.s.s.s.",
"=.=.=.=.=.=.=.=.s.s.s.Q   F 0.+ , b.i.  } b.|   c././.R.      Q =.=.=.=.s.s.s.s.s.s.s.s.s.s.s.s.",
"=.=.=.=.=.=.=.=.=.=.s.Q   F 0.+ , b.z.} y.T.4.  c././.R.      9 =.=.=.=.=.=.s.s.s.s.s.s.s.s.s.s.",
"=.=.=.=.=.=.=.=.=.=.s.Q   F 0.+ , b.b.b.T./.q.  c././.R.      9 =.=.=.=.=.=.s.s.s.s.s.s.s.s.s.s.",
"=.=.=.=.=.=.=.=.=.=.s.[ ^ u 4 r.u.b.b.b.T./.c.l.R././.Q.t.9.  9 =.=.=.=.=.=.s.s.s.s.s.s.s.s.s.s.",
"=.=.=.=.=.=.=.=.=.=.s.s.s.6   z.b.b.b.b.T././././././.^.b.i.  9 =.=.=.=.=.=.s.s.s.s.s.s.s.s.s.s.",
"s.s.s.s.=.=.=.=.s.s.s.s.s.[ ] Z C b.b.b.n.m.!./././.T.v.j k ! / =.=.=.=.s.s.s.s.s.s.s.s.s.s.s.s.",
"s.s.s.s.=.=.=.=.s.s.s.s.s.s.s.$ , b.b.b.b.b.W./././.n.z.  % =.=.=.=.=.=.s.s.s.s.s.s.s.s.s.s.s.s.",
"s.s.s.s.s.s.s.s.s.s.s.s.s.s.s.$ @ -.-.-.-.-.f.h.h.h.<.*.  % =.=.s.s.s.s.s.s.s.s.s.s.s.s.s.s.s.s.",
"s.s.s.s.s.s.s.s.s.s.s.s.s.s.s.$ @ +.+.+.+.+.;.d.d.d.@.O.  % =.=.s.s.s.s.s.s.s.s.s.s.s.s.s.s.s.s.",
"s.s.s.s.s.s.s.s.s.s.s.s.s.s.s.$ @ +.+.+.e./././.k.d.@.O.  6 s.s.s.s.s.s.s.s.s.s.s.s.s.s.s.s.s.s.",
"s.s.s.s.s.s.s.s.s.s.s.s.s.s.s.$ @ %.$.+.e./././.j.g.&.#.  6 s.s.s.s.s.s.s.s.s.s.s.s.s.s.s.s.s.s.",
"s.s.s.s.s.s.s.s.s.s.s.s.s.s.s.$ & P.H.+.e./././.U.P.S.N.  6 s.s.s.s.s.s.s.s.s.s.s.s.s.s.s.s.s.s.",
"s.s.s.s.s.s.s.s.s.s.s.s.s.:.] = h A.V.2.J.Y.Y.Y.I.L.Z.N.  6 s.s.s.s.s.s.s.s.s.s.s.s.s.s.s.s.s.s.",
"s.s.s.s.s.s.s.s.s.s.s.s.s.6   b n n 5.P.P.P.P.P.F.C.C.N.  6 s.s.s.s.s.s.s.s.s.s.s.s.s.s.s.s.s.s.",
"s.s.s.s.s.s.s.s.s.s.s.s.s.6   b n n A B.B.B.G.K.D.C.C.N.  6 s.s.s.s.s.s.s.s.s.s.s.s.s.s.s.s.s.s.",
"s.s.s.s.s.s.s.s.s.s.s.s.s.6   b n n z       1.C.C.C.C.N.  6 s.s.s.s.s.s.s.s.s.s.s.s.s.s.s.s.s.s.",
"s.s.s.s.s.s.s.s.s.s.s.s.s.6   O > > r 8 8 8 ..X.N.C.3.o.l i g ` s.s.s.s.s.s.s.s.s.s.s.s.s.s.s.s.",
"s.s.s.s.s.s.s.s.s.s.s.s.s.6         X W W W 5   M.C.D n n z   Q s.s.s.s.s.s.s.s.s.s.s.s.s.s.s.s.",
"s.s.s.s.s.s.s.s.s.s.s.{ ) T U U U U Y W W W Y U q 0 b n n z   8 ) >.s.s.s.s.s.s.s.s.s.s.s.s.s.s.",
"s.s.s.s.s.s.s.s.s.s.s.' W W W W W W W W W W W W $   b n n z   7 W { s.s.s.s.s.s.s.s.s.s.s.s.s.s.",
"s.s.s.s.s.s.s.s.s.s.s.' W W W W W W W W W W W W R T E E E E T R W { s.s.s.s.s.s.s.s.s.s.s.s.s.s.",
"s.s.s.s.s.s.s.s.s.s.s.' W W W W W W W W W W W W W W W W W W W W W { s.s.s.s.s.s.s.s.s.s.s.s.s.s.",
"s.s.s.s.s.s.s.s.s.s.s.s.s.) W W W W W W W W W W W W W W W W W ' s.s.s.s.s.s.s.s.s.s.s.s.s.s.s.s.",
"s.s.s.s.s.s.s.s.s.s.s.s.s._ ~ ~ ~ ~ ~ ~ ~ ~ ~ ~ ~ ~ ~ ~ ~ ~ ~ [ s.s.s.s.s.s.s.s.s.s.s.s.s.s.s.s."
};
