/* XPM */
static char *_97cc438461c48decac52d2fa0da25b5K4JahTEcYsbQS06E[] = {
/* columns rows colors chars-per-pixel */
"48 48 176 2 ",
"   c #0E071B",
".  c #180C1D",
"X  c #141A1F",
"o  c #22101F",
"O  c #27121F",
"+  c #1B0F20",
"@  c #0F1021",
"#  c #111220",
"$  c #141721",
"%  c #141821",
"&  c #141D25",
"*  c #0D1933",
"=  c #241422",
"-  c #261725",
";  c #2C1520",
":  c #251A20",
">  c #271A26",
",  c #2A1B22",
"<  c #2E1823",
"1  c #21192B",
"2  c #311821",
"3  c #361A22",
"4  c #331C25",
"5  c #331F2A",
"6  c #172322",
"7  c #1A2826",
"8  c #1A2D24",
"9  c #1D3427",
"0  c #1A322F",
"q  c #0B203F",
"w  c #0F2839",
"e  c #1D3C33",
"r  c #262726",
"t  c #282024",
"y  c #2F232A",
"u  c #3B2A27",
"i  c #38212B",
"p  c #3C222A",
"a  c #3F272F",
"s  c #312B2F",
"d  c #35292D",
"f  c #3C2B2F",
"g  c #2C372C",
"h  c #20382C",
"j  c #3F2D31",
"k  c #3C3C33",
"l  c #401E23",
"z  c #401F24",
"x  c #4A2325",
"c  c #4D272A",
"v  c #422A2E",
"b  c #4E2D2D",
"n  c #532726",
"m  c #532827",
"M  c #512A2A",
"N  c #522E2F",
"B  c #542D2E",
"V  c #5D2C28",
"C  c #582E2D",
"Z  c #5F302C",
"A  c #4C2E34",
"S  c #5D3434",
"D  c #513438",
"F  c #583739",
"G  c #62332F",
"H  c #633430",
"J  c #653633",
"K  c #633937",
"L  c #653834",
"P  c #643E3E",
"I  c #693D39",
"U  c #204028",
"Y  c #224529",
"T  c #23492A",
"R  c #254F2B",
"E  c #284C2B",
"W  c #2D4E2B",
"Q  c #26532C",
"!  c #264832",
"~  c #204738",
"^  c #224C3A",
"/  c #295A30",
"(  c #2C5937",
")  c #2C6133",
"_  c #2E6435",
"`  c #2F613A",
"'  c #34633B",
"]  c #326E3A",
"[  c #32693D",
"{  c #34723C",
"}  c #35753E",
"|  c #57403B",
" . c #58403B",
".. c #6C403C",
"X. c #103344",
"o. c #092C51",
"O. c #3B3D50",
"+. c #473E49",
"@. c #124446",
"#. c #134C4C",
"$. c #17564C",
"%. c #114852",
"&. c #11565E",
"*. c #155958",
"=. c #2A4E4B",
"-. c #265C42",
";. c #2B5751",
":. c #277C4C",
">. c #357140",
",. c #387943",
"<. c #387C41",
"1. c #2F6050",
"2. c #064475",
"3. c #0F5F70",
"4. c #344661",
"5. c #5D4641",
"6. c #464755",
"7. c #6A4241",
"8. c #6E4340",
"9. c #6F4542",
"0. c #704643",
"q. c #65504D",
"w. c #705346",
"e. c #7D5C4B",
"r. c #687B6C",
"t. c #83604E",
"y. c #896650",
"u. c #8D6C56",
"i. c #957056",
"p. c #A1795B",
"a. c #3E8948",
"s. c #33984B",
"d. c #3F8453",
"f. c #2D985D",
"g. c #4C9F56",
"h. c #64A560",
"j. c #61A569",
"k. c #9F816E",
"l. c #AD8260",
"z. c #B08563",
"x. c #B98C66",
"c. c #BE916C",
"v. c #BC997E",
"b. c #C29771",
"n. c #D29F70",
"m. c #D4A173",
"M. c #D7A476",
"N. c #DBAA7C",
"B. c #DDAC7F",
"V. c #045186",
"C. c #03578F",
"Z. c #025D98",
"A. c #066294",
"S. c #15769F",
"D. c #0069AA",
"F. c #187DAF",
"G. c #006FB0",
"H. c #0075B7",
"J. c #027AB7",
"K. c #477E85",
"L. c #0585B8",
"P. c #0086C9",
"I. c #008CCF",
"U. c #0098DC",
"Y. c #2F99C7",
"T. c #3EA5CD",
"R. c #B9BDAE",
"E. c #DFAF82",
"W. c #D9B18F",
"Q. c #E1B68E",
"!. c #E9B98D",
"~. c #E5BB94",
"^. c #E7BE97",
"/. c #EDBF93",
"(. c #F1C599",
"). c #F6CA9F",
/* pixels */
"a.a.a.a.a.a.a.a.a.a.a.a.a.a.a.a.a.a.a.a.a.a.a.a.a.a.a.a.a.a.a.a.a.a.a.a.a.a.a.a.a.a.a.a.a.a.a.a.",
"a.a.a.a.a.a.a.a.a.a.a.a.a.a.a.a.a.a.a.a.a.a.a.a.a.a.a.a.a.a.a.a.a.a.a.a.a.a.a.a.a.a.a.a.a.a.a.a.",
"a.a.a.a.a.a.a.a.a.a.a.a.a.a.a.a.a.a.a.a.a.a.a.a.a.a.a.a.a.a.a.a.a.a.a.a.a.a.a.a.a.a.a.a.a.a.a.a.",
"a.a.a.a.a.a.a.a.a.a.a.a.a.a.a.a.a.a.a.a.a.a.a.a.a.a.a.a.a.a.a.a.a.a.a.a.a.a.a.a.a.a.a.a.a.a.a.a.",
"a.a.a.a.a.a.a.a.a.a.a.a.a.a.a.a.a.a.a.a.a.a.a.a.a.a.a.a.a.a.a.a.a.a.a.a.a.a.a.a.a.a.a.a.a.a.a.a.",
"a.a.a.a.a.a.a.a.a.a.a.a.a.a.a.a.a.a.a.a.a.a.a.a.a.a.a.a.a.a.a.a.a.a.a.a.a.a.a.a.a.a.a.a.a.a.a.a.",
"a.a.a.a.a.a.a.a.a.a.a.a.a.a.a.a.a.a.a.a.a.a.a.a.a.a.a.a.a.a.a.a.a.a.a.a.a.a.a.a.a.a.a.a.a.a.a.a.",
"a.a.a.a.a.a.a.a.a.a.a.a.a.a.a.a.a.a.a.a.a.a.a.a.a.a.a.a.a.a.a.a.a.a.a.a.a.a.a.a.a.a.a.a.a.a.a.a.",
"a.a.a.a.a.a.a.a.a.a.a.a.a.a.a.a.,.,.,.,.,.,.,.,.,.,.,.,.,.a.a.a.a.a.a.a.a.a.a.a.a.a.a.a.a.a.a.a.",
"a.a.a.a.a.a.a.a.a.a.a.a.a.a.a.a.7                         ,.a.a.a.a.a.a.a.a.a.a.a.a.a.a.a.a.a.a.",
"a.a.a.a.a.a.a.a.a.a.a.a.a.a.,.[ r o = - - - - - - = o o o ' [ a.a.a.a.a.a.a.a.a.a.a.a.a.a.a.a.a.",
"a.a.a.a.a.a.a.a.a.a.a.a.a.a.!   x V 8.0.0.0.0.0.0.J V V V . $ a.a.a.a.a.a.a.a.a.a.a.a.a.a.a.a.a.",
"a.a.a.a.a.a.a.a.a.a.a.a.,.( g ; B J 9.0.0.0.0.0.0.I J J J i y ( [ a.a.a.a.a.a.a.a.a.a.a.a.a.a.a.",
"a.a.a.a.a.a.a.a.a.a.a.a.(   3 V ..0.0.0.0.0.0.0.0.0.0.0.0.0.P   7 a.a.a.a.a.a.a.a.a.a.a.a.a.a.a.",
"a.a.a.a.a.a.a.a.a.a.a.a.(   p I 8.0.0.0.0.0.0.0.0.0.0.0.0.0.7.A f h ` a.a.a.a.a.a.a.a.a.a.a.a.a.",
"a.a.a.a.a.a.a.a.a.a.a.a.(   a 0.0.0.0.0.0.0.0.0.0.0.0.0.0.0.0.0.F   ! a.a.a.a.a.a.a.a.a.a.a.a.a.",
"a.a.a.a.a.a.a.a.a.a.>.7 t x S 0.0.0.0.0.0.0.0.0.0.0.0.0.0.0.0.0.F   ! a.a.a.a.a.a.a.a.a.a.a.a.a.",
"a.a.a.a.a.a.a.a.a.a.[   ; V L 0.0.0.0.0.0.0.0.0.0.0.0.0.0.0.0.0.F   ! a.a.a.a.a.a.a.a.a.a.a.a.a.",
"a.a.a.a.a.a.a.a.a.a.[   ; V L 0.H Z = + + < Z L 0.0.0.H Z 8.0.0.F   ! a.a.a.a.a.a.a.a.a.a.a.a.a.",
"a.a.a.a.a.a.a.a.a.a.[   ; V L 0.G V .     o V J 0.0.0.G V 8.0.0.F   ! a.a.a.a.a.a.a.a.a.a.a.a.a.",
"a.a.a.a.a.a.a.a.a.a.[   ; V 3       x.n.n.p.  ; V I 0.G V V V V x   ! a.a.a.a.a.a.a.a.a.a.a.a.a.",
"-.-.-.-.a.a.a.a.a.a.>.% , m 2   > > c.M.M.z.> 4 m K 8.C m V V V x   ! a.a.a.a.a.a.a.a.a.a.a.a.a.",
"-.-.-.-.a.a.a.a.a.a.a.a.(       p.n.(.).)./.n.y.  z V o   m V V x   ! a.a.a.a.a.a.a.a.a.a.a.a.a.",
"-.-.-.-.-.-.-.-.a.a.a.a.` 7 %   e.p.~.).).Q.p.w.j b x v j M x G c   0 -.a.a.a.a.a.a.a.a.a.a.a.a.",
"-.-.-.-.-.-.-.-.a.a.a.a.a.a.!       W.).).v.  | n. .  p.n.> + 0.F   0 -.a.a.a.a.a.a.a.a.a.a.a.a.",
"-.-.-.-.-.-.-.-.-.-.a.a.a.a.!       W.).).v.  5.E.u.| l.n.> + 0.F   0 -.-.-.a.a.a.a.a.a.a.a.a.a.",
"-.-.-.-.-.-.-.-.-.-.a.a.a.a.!       W.).).v.  q.).E.n.n.n.> + 0.F   0 -.-.-.a.a.a.a.a.a.a.a.a.a.",
"-.-.-.-.-.-.-.-.-.-.a.a.a.a.!   w.y.~.).).^.k.v.).E.n.n.n.i.t.5 s e ^ -.-.-.a.a.a.a.a.a.a.a.a.a.",
"-.-.-.-.-.-.-.-.-.-.a.a.a.a.!   p.n.(.).).).).).).E.n.n.n.n.x.  & -.-.-.-.-.a.a.a.a.a.a.a.a.a.a.",
"a.a.a.a.-.-.-.-.a.a.a.a.a.a.,.[ k j b.B.).).)./.N.m.n.n.n.| d ~ ^ -.-.-.a.a.a.a.a.a.a.a.a.a.a.a.",
"a.a.a.a.-.-.-.-.a.a.a.a.a.a.a.a.7   x.M.).).).!.n.n.n.n.n.> # -.-.-.-.-.a.a.a.a.a.a.a.a.a.a.a.a.",
"a.a.a.a.a.a.a.a.a.a.a.a.a.a.a.a.7   =.1.g.g.g.d.;.;.;.;.;.@ # -.a.a.a.a.a.a.a.a.a.a.a.a.a.a.a.a.",
"a.a.a.a.a.a.a.a.a.a.a.a.a.a.a.a.7   @.$.s.s.s.:.#.#.#.#.#.@ # -.a.a.a.a.a.a.a.a.a.a.a.a.a.a.a.a.",
"a.a.a.a.a.a.a.a.a.a.a.a.a.a.a.a.7   @.$.s.h.).).).r.#.#.#.@ $ a.a.a.a.a.a.a.a.a.a.a.a.a.a.a.a.a.",
"a.a.a.a.a.a.a.a.a.a.a.a.a.a.a.a.7   %.*.f.j.).).).r.#.&.&.@ $ a.a.a.a.a.a.a.a.a.a.a.a.a.a.a.a.a.",
"a.a.a.a.a.a.a.a.a.a.a.a.a.a.a.a.7   Z.G.U.T.).).).r.#.L.U.* $ a.a.a.a.a.a.a.a.a.a.a.a.a.a.a.a.a.",
"a.a.a.a.a.a.a.a.a.a.a.a.a.a.a.a.7   Z.G.I.Y.R.R.R.K.3.S.F.1 t [ >.a.a.a.a.a.a.a.a.a.a.a.a.a.a.a.",
"a.a.a.a.a.a.a.a.a.a.a.a.a.a.a.a.7   Z.D.D.H.U.U.U.U.U.6.V V n   7 a.a.a.a.a.a.a.a.a.a.a.a.a.a.a.",
"a.a.a.a.a.a.a.a.a.a.a.a.a.a.a.a.7   Z.D.D.G.P.J.A.A.A.+.V V n   7 a.a.a.a.a.a.a.a.a.a.a.a.a.a.a.",
"a.a.a.a.a.a.a.a.a.a.a.a.a.a.a.a.7   Z.D.D.D.D.2.      x V V n   7 a.a.a.a.a.a.a.a.a.a.a.a.a.a.a.",
"a.a.a.a.a.a.a.a.a.a.a.a.a.a.` h u l O.4.D.C.o.X.9 9 9 : ; ; O   7 a.a.a.a.a.a.a.a.a.a.a.a.a.a.a.",
"a.a.a.a.a.a.a.a.a.a.a.a.a.a.!   x V V D D.V.  6 Q Q Q %         7 a.a.a.a.a.a.a.a.a.a.a.a.a.a.a.",
"a.a.a.a.a.a.a.a.a.a.a.a.<.) 9   x V V N q w U T Q Q Q Y U U U U T ) } a.a.a.a.a.a.a.a.a.a.a.a.a.",
"a.a.a.a.a.a.a.a.a.a.a.a.} Q 8   x V V n   X Q Q Q Q Q Q Q Q Q Q Q Q ] a.a.a.a.a.a.a.a.a.a.a.a.a.",
"a.a.a.a.a.a.a.a.a.a.a.a.} Q R T E W W W T T Q Q Q Q Q Q Q Q Q Q Q Q ] a.a.a.a.a.a.a.a.a.a.a.a.a.",
"a.a.a.a.a.a.a.a.a.a.a.a.} Q Q Q Q Q Q Q Q Q Q Q Q Q Q Q Q Q Q Q Q Q ] a.a.a.a.a.a.a.a.a.a.a.a.a.",
"a.a.a.a.a.a.a.a.a.a.a.a.a.a.] Q Q Q Q Q Q Q Q Q Q Q Q Q Q Q Q Q ) a.a.a.a.a.a.a.a.a.a.a.a.a.a.a.",
"a.a.a.a.a.a.a.a.a.a.a.a.a.a.{ / / / / / / / / / / / / / / / / / _ a.a.a.a.a.a.a.a.a.a.a.a.a.a.a."
};
