/* XPM */
static char *fd7df5da9c3c4733b3c373461001406d5rsTvEi2E7Vda36i[] = {
/* columns rows colors chars-per-pixel */
"48 48 153 2 ",
"   c #0E071B",
".  c #180C1D",
"X  c #141A1F",
"o  c #22101F",
"O  c #0F0F21",
"+  c #1A0F20",
"@  c #0F1021",
"#  c #0F1827",
"$  c #111220",
"%  c #141721",
"&  c #141821",
"*  c #0D1933",
"=  c #161E35",
"-  c #251422",
";  c #261725",
":  c #2C1520",
">  c #231B26",
",  c #271A26",
"<  c #2F1E22",
"1  c #2B1F2C",
"2  c #311E27",
"3  c #321F2A",
"4  c #172322",
"5  c #172422",
"6  c #192723",
"7  c #17272A",
"8  c #192C2C",
"9  c #1D3726",
"0  c #0B203F",
"q  c #0F2839",
"w  c #1D3C33",
"e  c #282024",
"r  c #2F2025",
"t  c #2B202C",
"y  c #3D2426",
"u  c #3F2229",
"i  c #20382C",
"p  c #392F30",
"a  c #3F2D31",
"s  c #333731",
"d  c #401E23",
"f  c #401F24",
"g  c #412025",
"h  c #462226",
"j  c #492325",
"k  c #532726",
"l  c #532827",
"z  c #512A29",
"x  c #522E2F",
"c  c #5D2C28",
"v  c #582F2E",
"b  c #5F2F2C",
"n  c #5A302F",
"m  c #5F302C",
"M  c #4B2F34",
"N  c #4C2F34",
"B  c #4E3F38",
"V  c #513438",
"C  c #513A38",
"Z  c #62332F",
"A  c #633430",
"S  c #653632",
"D  c #653834",
"F  c #643F3E",
"G  c #693C39",
"H  c #6B3F3C",
"J  c #1F4236",
"K  c #204128",
"L  c #23402F",
"P  c #23492A",
"I  c #254F2B",
"U  c #2D4E2B",
"Y  c #26532C",
"T  c #28562E",
"R  c #264832",
"E  c #295A30",
"W  c #2C5937",
"Q  c #2C6133",
"!  c #2F6736",
"~  c #2F613A",
"^  c #316B38",
"/  c #326E3A",
"(  c #32693D",
")  c #35753E",
"_  c #57403B",
"`  c #6B403D",
"'  c #0B2C4C",
"]  c #0C3653",
"[  c #134C4C",
"{  c #15514D",
"}  c #16554D",
"|  c #1B5F4C",
" . c #265C42",
".. c #28445C",
"X. c #1F684C",
"o. c #1E6F50",
"O. c #267E4F",
"+. c #357140",
"@. c #387943",
"#. c #064574",
"$. c #3A556C",
"%. c #345571",
"&. c #4C404A",
"*. c #464755",
"=. c #6A4241",
"-. c #6E4340",
";. c #664C43",
":. c #664C44",
">. c #694F47",
",. c #704643",
"<. c #65504D",
"1. c #436155",
"2. c #456856",
"3. c #4B7258",
"4. c #4B7B58",
"5. c #815F4C",
"6. c #886651",
"7. c #8F6F59",
"8. c #3E8948",
"9. c #33984B",
"0. c #558A5D",
"q. c #64A560",
"w. c #9F816E",
"e. c #B98C66",
"r. c #BE916C",
"t. c #BC997E",
"y. c #D29F70",
"u. c #D4A273",
"i. c #D7A476",
"p. c #DBA97C",
"a. c #045186",
"s. c #0E6DA1",
"d. c #0069AA",
"f. c #187DAF",
"g. c #0274B1",
"h. c #6D8D9C",
"j. c #0C8BC5",
"k. c #0086C9",
"l. c #008CCF",
"z. c #0092D6",
"x. c #0095D9",
"c. c #0098DC",
"v. c #9AA5A3",
"b. c #9AB4B3",
"n. c #9AB7B6",
"m. c #B9B1A1",
"M. c #B9BAAB",
"N. c #B9BDAE",
"B. c #DFAF82",
"V. c #DCB088",
"C. c #E4B488",
"Z. c #E9B98D",
"A. c #F6CA9F",
/* pixels */
"8.8.8.8.8.8.8.8.8.8.8.8.8.8.8.8.8.8.8.8.8.8.8.8.8.8.8.8.8.8.8.8.8.8.8.8.8.8.8.8.8.8.8.8.8.8.8.8.",
"8.8.8.8.8.8.8.8.8.8.8.8.8.8.8.8.8.8.8.8.8.8.8.8.8.8.8.8.8.8.8.8.8.8.8.8.8.8.8.8.8.8.8.8.8.8.8.8.",
"8.8.8.8.8.8.8.8.8.8.8.8.8.8.8.8.8.8.8.8.8.8.8.8.8.8.8.8.8.8.8.8.8.8.8.8.8.8.8.8.8.8.8.8.8.8.8.8.",
"8.8.8.8.8.8.8.8.8.8.8.8.8.8.8.8.8.8.8.8.8.8.8.8.8.8.8.8.8.8.8.8.8.8.8.8.8.8.8.8.8.8.8.8.8.8.8.8.",
"8.8.8.8.8.8.8.8.8.8.8.8.8.8.8.8.8.8.8.8.8.8.8.8.8.8.8.8.8.8.8.8.8.8.8.8.8.8.8.8.8.8.8.8.8.8.8.8.",
"8.8.8.8.8.8.8.8.8.8.8.8.8.8.8.8.8.8.8.8.8.8.8.8.8.8.8.8.8.8.8.8.8.8.8.8.8.8.8.8.8.8.8.8.8.8.8.8.",
"8.8.8.8.8.8.8.8.8.8.8.8.8.8.8.8.8.8.8.8.8.8.8.8.8.8.8.8.8.8.8.8.8.8.8.8.8.8.8.8.8.8.8.8.8.8.8.8.",
"8.8.8.8.8.8.8.8.8.8.8.8.8.8.8.8.8.8.8.8.8.8.8.8.8.8.8.8.8.8.8.8.8.8.8.8.8.8.8.8.8.8.8.8.8.8.8.8.",
"8.8.8.8.8.8.8.8.8.8.8.8.8.8.8.8.8.8.8.8.8.8.8.8.8.8.8.8.8.8.8.8.8.8.8.8.8.8.8.8.8.8.8.8.8.8.8.8.",
"8.8.8.8.8.8.8.8.8.8.8.8.8.8.8.8.8.                          8.8.8.8.8.8.8.8.8.8.8.8.8.8.8.8.8.8.",
"8.8.8.8.8.8.8.8.8.8.8.8.8.8.8.@.@.. . . . + + + + + + + . . @.@.8.8.8.8.8.8.8.8.8.8.8.8.8.8.8.8.",
"8.8.8.8.8.8.8.8.8.8.8.8.8.8.8.&   c c c Z ,.,.,.,.,.,.,.b c   % 8.8.8.8.8.8.8.8.8.8.8.8.8.8.8.8.",
"8.8.8.8.8.8.8.8.8.8.8.8.8.@.( > ; Z Z Z D ,.,.,.,.,.,.,.A Z o e ( +.8.8.8.8.8.8.8.8.8.8.8.8.8.8.",
"8.8.8.8.8.8.8.8.8.8.8.8.8.i   F ,.,.,.,.,.,.,.,.,.,.,.,.,.,.c k   i 8.8.8.8.8.8.8.8.8.8.8.8.8.8.",
"8.8.8.8.8.8.8.8.8.8.8.+.W s 3 =.,.,.,.,.,.,.,.,.,.,.,.,.,.,.S n   i 8.8.8.8.8.8.8.8.8.8.8.8.8.8.",
"8.8.8.8.8.8.8.8.8.8.8.R   M ,.,.,.,.,.,.,.,.,.,.,.,.,.,.,.,.,.F   7 8.8.8.8.8.8.8.8.8.8.8.8.8.8.",
"8.8.8.8.8.8.8.8.8.8.8.R   M ,.,.,.,.,.,.,.,.,.,.,.,.,.,.,.,.,.` d r i ~ 8.8.8.8.8.8.8.8.8.8.8.8.",
"8.8.8.8.8.8.8.8.8.8.8.R   M ,.,.,.,.,.,.,.,.,.,.,.,.,.,.,.,.,.-.c d   R 8.8.8.8.8.8.8.8.8.8.8.8.",
"8.8.8.8.8.8.8.8.8.8.8.R   M ,.,.,.Z A ,.,.,.H Z u ; ; ; v Z ,.-.c d   R 8.8.8.8.8.8.8.8.8.8.8.8.",
"8.8.8.8.8.8.8.8.8.8.8.R   M ,.,.,.c c ,.,.,.G c :       l c ,.-.c d   R 8.8.8.8.8.8.8.8.8.8.8.8.",
"8.8.8.8.8.8.8.8.8.8.8.R   g m m m c c ,.` m h . 5.e.e.e.2 . + - c d   R 8.8.8.8.8.8.8.8.8.8.8.8.",
" . . . .8.8.8.8.8.8.8.R   f c c c c c ,.` c d   6.y.y.y.,     . c d   R 8.8.8.8.8.8.8.8.8.8.8.8.",
" . . . .8.8.8.8.8.8.8.R   f c c c   . c j   _ y.Z.A.A.A.i.y.      i 8.8.8.8.8.8.8.8.8.8.8.8.8.8.",
" . . . . . . . .8.8.8.R   g m l l , 3 l z , _ e.V.A.A.A.r.e.    $ 8  . .8.8.8.8.8.8.8.8.8.8.8.8.",
" . . . . . . . .8.8.8.R   M ,.+   y.e.  a y.6.  w.A.A.A.t     %  . . . .8.8.8.8.8.8.8.8.8.8.8.8.",
" . . . . . . . . . .8.R   M ,.+   y.e.a :.p.7.  w.A.A.A.t     $  . . . . . .8.8.8.8.8.8.8.8.8.8.",
" . . . . . . . . . .8.R   M ,.+   y.y.y.p.A.w.  w.A.A.A.t     $  . . . . . .8.8.8.8.8.8.8.8.8.8.",
" . . . . . . . . . .8.~ i p N C _ y.y.y.p.A.t.<.t.A.A.A.>._   $  . . . . . .8.8.8.8.8.8.8.8.8.8.",
" . . . . . . . . . .8.8.8.i   e.y.y.y.y.p.A.A.A.A.A.A.A.i.y.  $  . . . . . .8.8.8.8.8.8.8.8.8.8.",
"8.8.8.8. . . . .8.8.8.8.8.( W B _ y.y.y.u.B.Z.A.A.A.C.B.;._ w J  . . . .8.8.8.8.8.8.8.8.8.8.8.8.",
"8.8.8.8. . . . .8.8.8.8.8.8.8.&   y.y.y.y.y.B.A.A.A.p.y.,    . . . . . .8.8.8.8.8.8.8.8.8.8.8.8.",
"8.8.8.8.8.8.8.8.8.8.8.8.8.8.8.&   1.1.1.2.4.0.q.q.q.3.1.@    . .8.8.8.8.8.8.8.8.8.8.8.8.8.8.8.8.",
"8.8.8.8.8.8.8.8.8.8.8.8.8.8.8.&   [ [ [ } o.O.9.9.9.| [ @    . .8.8.8.8.8.8.8.8.8.8.8.8.8.8.8.8.",
"8.8.8.8.8.8.8.8.8.8.8.8.8.8.8.@.@.O # [ [ { X.9.9.9.| [ @   8.8.8.8.8.8.8.8.8.8.8.8.8.8.8.8.8.8.",
"8.8.8.8.8.8.8.8.8.8.8.8.8.8.8.8.8.  @ [ [ [ X.9.9.9.| [ @   8.8.8.8.8.8.8.8.8.8.8.8.8.8.8.8.8.8.",
"8.8.8.8.8.8.8.8.8.8.8.8.8.8.8.8.8.  1 A.A.A.n.c.c.c.c.c.*   8.8.8.8.8.8.8.8.8.8.8.8.8.8.8.8.8.8.",
"8.8.8.8.8.8.8.8.8.8.8.8.8.8.8.8.8.  1 A.A.A.b.z.x.c.j.j.= . @.@.8.8.8.8.8.8.8.8.8.8.8.8.8.8.8.8.",
"8.8.8.8.8.8.8.8.8.8.8.8.8.8.8.8.8.  1 A.A.A.v.d.k.c.*.c c c   % 8.8.8.8.8.8.8.8.8.8.8.8.8.8.8.8.",
"8.8.8.8.8.8.8.8.8.8.8.8.8.8.8.+.( ' ..N.M.m.h.a.s.f.&.c c c   % 8.8.8.8.8.8.8.8.8.8.8.8.8.8.8.8.",
"8.8.8.8.8.8.8.8.8.8.8.8.8.8.8.&   c.c.c.l.d.#.  f c c c c c   % 8.8.8.8.8.8.8.8.8.8.8.8.8.8.8.8.",
"8.8.8.8.8.8.8.8.8.8.8.8.8.8.8.&   c.x.k.g.#.] 4 < d d d d d i L 8.8.8.8.8.8.8.8.8.8.8.8.8.8.8.8.",
"8.8.8.8.8.8.8.8.8.8.8.8.8.8.8.&   c.z.d.a.  4 Y 5           8.8.8.8.8.8.8.8.8.8.8.8.8.8.8.8.8.8.",
"8.8.8.8.8.8.8.8.8.8.8.8.8.W i y d $.%.d.a.  4 Y K 9 9 9 9 9 ! ^ 8.8.8.8.8.8.8.8.8.8.8.8.8.8.8.8.",
"8.8.8.8.8.8.8.8.8.8.8.8.8.i   l c c V d.a.  4 Y Y Y Y Y Y Y Y E 8.8.8.8.8.8.8.8.8.8.8.8.8.8.8.8.",
"8.8.8.8.8.8.8.8.8.8.8.) Q 6   l c c x 0 q K P Y Y Y Y Y Y Y Y T Q / 8.8.8.8.8.8.8.8.8.8.8.8.8.8.",
"8.8.8.8.8.8.8.8.8.8.8./ Y 5   l c c k   X Y Y Y Y Y Y Y Y Y Y Y Y ! 8.8.8.8.8.8.8.8.8.8.8.8.8.8.",
"8.8.8.8.8.8.8.8.8.8.8./ Y I P U U U U P P Y Y Y Y Y Y Y Y Y Y Y Y ! 8.8.8.8.8.8.8.8.8.8.8.8.8.8.",
"8.8.8.8.8.8.8.8.8.8.8./ Y Y Y Y Y Y Y Y Y Y Y Y Y Y Y Y Y Y Y Y Y ! 8.8.8.8.8.8.8.8.8.8.8.8.8.8."
};
