/* XPM */
static char *c121ca505dd6424ac6f67af3427aa42bbLrbBMNK4cIGBcOw[] = {
/* columns rows colors chars-per-pixel */
"48 48 116 2 ",
"   c #0E071B",
".  c #0F0C1E",
"X  c #11111D",
"o  c #22101E",
"O  c #1A0F20",
"+  c #0F1022",
"@  c #141721",
"#  c #141820",
"$  c #161F21",
"%  c #101827",
"&  c #201620",
"*  c #241422",
"=  c #261725",
"-  c #2C1520",
";  c #2A1B22",
":  c #2F1E22",
">  c #311821",
",  c #361A22",
"<  c #311C24",
"1  c #341F24",
"2  c #331F2A",
"3  c #172322",
"4  c #1A2826",
"5  c #182C27",
"6  c #122129",
"7  c #10212E",
"8  c #162928",
"9  c #1D3726",
"0  c #1F3C27",
"q  c #132C32",
"w  c #112A34",
"e  c #1C3732",
"r  c #12333A",
"t  c #13373A",
"y  c #39222D",
"u  c #302B28",
"i  c #20382C",
"p  c #3F2D30",
"a  c #401F24",
"s  c #492325",
"d  c #532827",
"f  c #5D2C28",
"g  c #533033",
"h  c #563336",
"j  c #5F3230",
"k  c #523439",
"l  c #583639",
"z  c #60312D",
"x  c #653633",
"c  c #633937",
"v  c #673936",
"b  c #693C39",
"n  c #204028",
"m  c #26532C",
"M  c #204738",
"N  c #2E5335",
"B  c #295A30",
"V  c #2C5937",
"C  c #2C5838",
"Z  c #2F623A",
"A  c #36653C",
"S  c #316B38",
"D  c #32693D",
"F  c #34723C",
"G  c #35753E",
"H  c #57403B",
"J  c #6E433F",
"K  c #0B3959",
"L  c #083E63",
"P  c #093E64",
"I  c #134C4C",
"U  c #195E4E",
"Y  c #265C42",
"T  c #3A4359",
"R  c #1B664F",
"E  c #1E6F50",
"W  c #24794F",
"Q  c #277F4F",
"!  c #357140",
"~  c #377840",
"^  c #387942",
"/  c #387C41",
"(  c #054475",
")  c #344965",
"_  c #2F556B",
"`  c #305976",
"'  c #414743",
"]  c #6E4340",
"[  c #6F4542",
"{  c #704643",
"}  c #2B884D",
"|  c #3B8145",
" . c #3D8547",
".. c #3E8948",
"X. c #32954B",
"o. c #31934C",
"O. c #33984B",
"+. c #8B8063",
"@. c #D29F70",
"#. c #056292",
"$. c #076893",
"%. c #086B93",
"&. c #0C7292",
"*. c #0D7592",
"=. c #2F6282",
"-. c #0069AA",
";. c #0876A0",
":. c #006FB1",
">. c #007ABD",
",. c #0585B8",
"<. c #0689B9",
"1. c #088EB9",
"2. c #0080C3",
"3. c #0083C6",
"4. c #0286C4",
"5. c #0098DC",
/* pixels */
"................................................................................................",
"................................................................................................",
"................................................................................................",
"................................................................................................",
"................................................................................................",
"................................................................................................",
"................................................................................................",
"................................V i i i i i i i i i i i i D ....................................",
"................................i                         C ....................................",
"............................D 4 1 s s s h l l l l g s s s u 4 ! ................................",
"............................V   a f f f ] { { { { b f f f -   D ................................",
"........................D # ; d c J J J { { { { { [ J J J j d & # ..............................",
"........................D   - f b { { { { { { { { { { { { x f o   ..............................",
"........................D   2 { { { { { { { { { { { { { { { { =   ..............................",
"......................^ A O y { { { { { { { { { { { { { { { { 2 O ^ ^ ..........................",
"....................^   = { { { { { { { { { { { { { { { { { { { {   @ ..........................",
"....................^   = { { { { { { { { { { { { { { { { { { { {   @ ..........................",
"....................^   = { { { { { { { { { { { { { { { { { { { {   @ ..........................",
"....................^   * b J { { { { { { { { { { { { { { { { b b   @ ..........................",
"....................^   o f x { { { { { { { { { { { { { { { { z f   @ ..........................",
"....................^   o f f x x x ] { { { { { { { { b x x x f f   @ ..........................",
"Y Y Y Y ............^   o f f f f f J { { { { { { { { v f f f f f   @ ..........................",
"Y Y Y Y ............| D N o , f f f z z z z z z z z z f f f f > o D ! ..........................",
"Y Y Y Y Y Y Y Y ........D   - f f f f f f f f f f f f f f f f o   Y Y Y ........................",
"Y Y Y Y Y Y Y Y ........D   - f f f f f f f f f f f f f f f f o   Y Y Y ........................",
"Y Y Y Y Y Y Y Y Y Y ....D   - f f f f f f f f f f f f f f f f o   Y Y Y Y Y ....................",
"Y Y Y Y Y Y Y Y Y Y ........V       s f f f f f f f f ,       M Y Y Y Y Y Y ....................",
"Y Y Y Y Y Y Y Y Y Y ........V   . + a d d d d d d d d < + .   M Y Y Y Y Y Y ....................",
"Y Y Y Y Y Y Y Y Y Y ........V   r I %                 w I 7   M Y Y Y Y Y Y ....................",
"........Y Y Y Y ............V   r I q 6 6 6 5 5 5 8 6 t I 7   e M Y Y Y ........................",
"........Y Y Y Y ............V   r I R E E E O.O.O.} E U I 7       Y Y Y ........................",
"............................V   r I R E Q Q O.O.O.} E U I ' H H H V Z ..........................",
"............................V   r I R E o.O.O.O.O.} E U I +.@.@.@.  @ ..........................",
"............................V   r I R E o.O.O.X.Q W E U I +.@.@.@.  @ ..........................",
"............................V   r I R E o.O.O.o.E E E U I +.@.@.@.  @ ..........................",
"............................V   L #.$.%.*.*.*.&.%.;.1.<.,._ p p p D ! ..........................",
"............................V   ( -.-.-.-.-.-.-.-.>.5.5.5.P       ..............................",
"............................V   y k k k k k k k k ) :.3.5.P   Z ^ ..............................",
"............................V   a f f f f f f f f T -.2.5.P   D ................................",
"............................V               f f f f f =.5.P   D ................................",
"........................ .| V X X X X X     f f f f f ` 4.K X Z | ..............................",
"......................../ m m m m m m m X   f f f f f ,   9 m m m ..............................",
"....................../ F m m m m m m m $ # s s s s s : # n m m m / / ..........................",
"....................| m m m m m m m m m m m           5 m m m m m m B ..........................",
"....................| m m m m m m m m m m m 3 3 3 3 3 0 m m m m m m B ..........................",
"....................| m m m m m m m m m m m m m m m m m m m m m m m B ..........................",
".................... .G S m m m m m m m m m m m m m m m m m m m m G ~ ..........................",
"......................../ m m m m m m m m m m m m m m m m m m m m .............................."
};
