/* XPM */
static char *_2421415bf4d4a37e6b7fdfb0f466c2cv2038WHKRSTwIgwL[] = {
/* columns rows colors chars-per-pixel */
"48 48 170 2 ",
"   c #0E071B",
".  c #180C1D",
"X  c #11111D",
"o  c #22101F",
"O  c #0D0D24",
"+  c #1A0F20",
"@  c #0D142D",
"#  c #111220",
"$  c #1A1120",
"%  c #1B1622",
"&  c #141820",
"*  c #141D25",
"=  c #231221",
"-  c #241422",
";  c #261725",
":  c #2C1520",
">  c #271A26",
",  c #281820",
"<  c #261C2C",
"1  c #361A22",
"2  c #331C24",
"3  c #321E29",
"4  c #172322",
"5  c #192923",
"6  c #1A2826",
"7  c #1A2D24",
"8  c #1D3726",
"9  c #0B203F",
"0  c #1D3D34",
"q  c #12323A",
"w  c #262726",
"e  c #282124",
"r  c #2B202C",
"t  c #3D232C",
"y  c #3F272F",
"u  c #2E312A",
"i  c #2C372C",
"p  c #20382C",
"a  c #3F2D31",
"s  c #401E23",
"d  c #401F24",
"f  c #4A2325",
"g  c #44282B",
"h  c #46282E",
"j  c #4B2F2F",
"k  c #532726",
"l  c #532827",
"z  c #582A27",
"x  c #542D2E",
"c  c #5D2C28",
"v  c #5F302C",
"b  c #433835",
"n  c #48353D",
"m  c #48383C",
"M  c #5B3131",
"N  c #5F3432",
"B  c #523A3F",
"V  c #62332F",
"C  c #653632",
"Z  c #623735",
"A  c #633837",
"S  c #673936",
"D  c #683B37",
"F  c #693C39",
"G  c #204028",
"H  c #224529",
"J  c #314029",
"K  c #36422A",
"L  c #3B442B",
"P  c #26532C",
"I  c #254530",
"U  c #264832",
"Y  c #2C5937",
"T  c #23523E",
"R  c #2C5838",
"E  c #326E3B",
"W  c #32693D",
"Q  c #34723C",
"!  c #35753E",
"~  c #57403B",
"^  c #58403B",
"/  c #6B403C",
"(  c #6C423E",
")  c #123B40",
"_  c #09375B",
"`  c #313F50",
"'  c #073863",
"]  c #093E64",
"[  c #134C4C",
"{  c #255740",
"}  c #265C42",
"|  c #1D6B50",
" . c #1E6F50",
".. c #21744F",
"X. c #24794F",
"o. c #267E4F",
"O. c #357140",
"+. c #387942",
"@. c #387C41",
"#. c #054475",
"$. c #054A7B",
"%. c #574444",
"&. c #5E5141",
"*. c #545847",
"=. c #464755",
"-. c #585A53",
";. c #6E4340",
":. c #6F4441",
">. c #604B47",
",. c #704643",
"<. c #705346",
"1. c #745C55",
"2. c #5B6B5A",
"3. c #457C5E",
"4. c #676A5F",
"5. c #4C6C61",
"6. c #815F4C",
"7. c #896650",
"8. c #82695D",
"9. c #957056",
"0. c #9A7257",
"q. c #A1795B",
"w. c #29834E",
"e. c #2E8D4D",
"r. c #3B8244",
"t. c #3D8547",
"y. c #3E8948",
"u. c #31934C",
"i. c #33984B",
"p. c #1A807B",
"a. c #548664",
"s. c #588D63",
"d. c #5B9262",
"f. c #64A560",
"g. c #9F816E",
"h. c #848B76",
"j. c #AD8360",
"k. c #B98C66",
"l. c #BC997E",
"z. c #CD9D74",
"x. c #D29F70",
"c. c #DBA97C",
"v. c #055387",
"b. c #025D98",
"n. c #0F6795",
"m. c #0A7294",
"M. c #287086",
"N. c #0069AA",
"B. c #0474AC",
"V. c #0075B7",
"C. c #077FBB",
"Z. c #148288",
"A. c #1A8F8A",
"S. c #0F8396",
"D. c #118696",
"F. c #1A9893",
"G. c #2D829B",
"H. c #699BA6",
"J. c #0080C3",
"K. c #0C8BC5",
"L. c #0086C9",
"P. c #008CCF",
"I. c #008FD2",
"U. c #0691D1",
"Y. c #0092D6",
"T. c #0098DC",
"R. c #DABA95",
"E. c #E8C29A",
"W. c #F1C599",
"Q. c #F6CA9F",
/* pixels */
"y.y.y.y.y.y.y.y.y.y.y.y.y.y.y.y.y.y.y.y.y.y.y.y.y.y.y.y.y.y.y.y.y.y.y.y.y.y.y.y.y.y.y.y.y.y.y.y.",
"y.y.y.y.y.y.y.y.y.y.y.y.y.y.y.y.y.y.y.y.y.y.y.y.y.y.y.y.y.y.y.y.y.y.y.y.y.y.y.y.y.y.y.y.y.y.y.y.",
"y.y.y.y.y.y.y.y.y.y.y.y.y.y.y.y.y.y.y.y.y.y.y.y.y.y.y.y.y.y.y.y.y.y.y.y.y.y.y.y.y.y.y.y.y.y.y.y.",
"y.y.y.y.y.y.y.y.y.y.y.y.y.y.y.y.y.y.y.y.y.y.y.y.y.y.y.y.y.y.y.y.y.y.y.y.y.y.y.y.y.y.y.y.y.y.y.y.",
"y.y.y.y.y.y.y.y.y.y.y.y.y.y.y.y.y.y.y.y.y.y.y.y.y.y.y.y.y.y.y.y.y.y.y.y.y.y.y.y.y.y.y.y.y.y.y.y.",
"y.y.y.y.y.y.y.y.y.y.y.y.y.y.y.y.y.y.y.y.y.y.y.y.y.y.y.y.y.y.y.y.y.y.y.y.y.y.y.y.y.y.y.y.y.y.y.y.",
"y.y.y.y.y.y.y.y.y.y.y.y.y.y.y.y.y.y.y.y.y.y.y.y.y.y.y.y.y.y.y.y.y.y.y.y.y.y.y.y.y.y.y.y.y.y.y.y.",
"y.y.y.y.y.y.y.y.y.y.y.y.y.y.y.y.y.y.y.y.y.y.y.y.y.y.y.y.y.y.y.y.y.y.y.y.y.y.y.y.y.y.y.y.y.y.y.y.",
"y.y.y.y.y.y.y.y.y.y.y.y.y.y.y.y.6                       p y.y.y.y.y.y.y.y.y.y.y.y.y.y.y.y.y.y.y.",
"y.y.y.y.y.y.y.y.y.y.y.y.y.y.+.W w o ; ; ; - o - ; ; ; o i W +.y.y.y.y.y.y.y.y.y.y.y.y.y.y.y.y.y.",
"y.y.y.y.y.y.y.y.y.y.y.y.y.y.U   f c ,.,.,.S c F ,.,.;.c s   R y.y.y.y.y.y.y.y.y.y.y.y.y.y.y.y.y.",
"y.y.y.y.y.y.y.y.y.y.y.y.+.U u 1 M S ,.,.,./ S ( ,.,.:.S x 1 i U r.y.y.y.y.y.y.y.y.y.y.y.y.y.y.y.",
"y.y.y.y.y.y.y.y.y.y.y.y.W   1 c ( ,.,.,.,.,.,.,.,.,.,.,.F c :   +.y.y.y.y.y.y.y.y.y.y.y.y.y.y.y.",
"y.y.y.y.y.y.y.y.y.y.y.y.W   y / :.,.,.,.,.F V F ,.,.,.,.;./ 3   +.y.y.y.y.y.y.y.y.y.y.y.y.y.y.y.",
"y.y.y.y.y.y.y.y.y.y.y.y.W   y ,.,.,.,.,.,.S c F ,.,.,.,.,.,.3   +.y.y.y.y.y.y.y.y.y.y.y.y.y.y.y.",
"y.y.y.y.y.y.y.y.y.y.+.& e l Z ,.,.,.,./ v c c c v ;.,.,.,.,.N l % # y.y.y.y.y.y.y.y.y.y.y.y.y.y.",
"y.y.y.y.y.y.y.y.y.y.+.  = v D ,.,.,.;.F c z l z c ;.,.,.,.,.S v .   y.y.y.y.y.y.y.y.y.y.y.y.y.y.",
"y.y.y.y.y.y.y.y.y.y.+.  ; ,.,.,.,.,.c c c 1   d c ;.,.,.,.,.,.,.+   y.y.y.y.y.y.y.y.y.y.y.y.y.y.",
"y.y.y.y.y.y.y.y.y.y.+.  ; ,.,.,.,.,.c k s j ~ g s A F ,.,.,.,.,.+   y.y.y.y.y.y.y.y.y.y.y.y.y.y.",
"y.y.y.y.y.y.y.y.y.y.+.  ; ,.,.,.,.,.c f   <.x.^   l c ,.,.,.,.,.+   y.y.y.y.y.y.y.y.y.y.y.y.y.y.",
"y.y.y.y.y.y.y.y.y.y.+.  = C C C t 3 : j 7.j.x.q.7.2 : 3 h C C C .   y.y.y.y.y.y.y.y.y.y.y.y.y.y.",
"} } } } y.y.y.y.y.y.+.  o c c c o     a x.x.x.x.x.>     : c c c .   y.y.y.y.y.y.y.y.y.y.y.y.y.y.",
"} } } } y.y.y.y.y.y.y.+.Y . . . 0.k.  m W.W.W.W.W.r > k.6.. . . W +.y.y.y.y.y.y.y.y.y.y.y.y.y.y.",
"} } } } } } } } y.y.y.y.W   $ > q.x.  m Q.Q.Q.Q.Q.r > x.9.> $   T } } } y.y.y.y.y.y.y.y.y.y.y.y.",
"} } } } } } } } y.y.y.y.W   <.x.x.x.  m Q.Q.Q.Q.Q.r > x.x.x.^   T } } } y.y.y.y.y.y.y.y.y.y.y.y.",
"} } } } } } } } } } y.y.O.6 &.q.z.c.m 1.Q.Q.Q.Q.Q.%.>.c.z.q.b * { } } } } } y.y.y.y.y.y.y.y.y.y.",
"} } } } } } } } } } y.y.y.y.U   l.Q.Q.Q.Q.Q.Q.Q.Q.Q.Q.Q.g.  0 } } } } } } } y.y.y.y.y.y.y.y.y.y.",
"} } } } } } } } } } y.y.y.y.U   4.h.Q.Q.Q.Q.Q.Q.Q.Q.E.h.-.  0 } } } } } } } y.y.y.y.y.y.y.y.y.y.",
"} } } } } } } } } } y.y.y.y.U   ) [ Q.Q.Q.Q.Q.Q.Q.Q.R.[ q   0 } } } } } } } y.y.y.y.y.y.y.y.y.y.",
"y.y.y.y.} } } } y.y.y.y.y.y.U   ) [ a.s.f.f.f.d.a.a.3.[ q   0 } } } } } y.y.y.y.y.y.y.y.y.y.y.y.",
"y.y.y.y.} } } } y.y.y.y.y.y.U   ) [  .X.i.i.i.o. . .| [ q   0 } } } } } y.y.y.y.y.y.y.y.y.y.y.y.",
"y.y.y.y.y.y.y.y.y.y.y.y.W   8.Q.5.[  .X.i.i.i.i.i...| [ 2.x.^   +.y.y.y.y.y.y.y.y.y.y.y.y.y.y.y.",
"y.y.y.y.y.y.y.y.y.y.y.y.W   8.Q.5.[  ...e.u.i.i.i...| [ 2.x.^   +.y.y.y.y.y.y.y.y.y.y.y.y.y.y.y.",
"y.y.y.y.y.y.y.y.y.y.y.y.W   8.Q.5.[  . . .w.i.i.i...| [ 2.x.^   +.y.y.y.y.y.y.y.y.y.y.y.y.y.y.y.",
"y.y.y.y.y.y.y.y.y.y.y.y.+.U *.8.M.m.S.S.S.Z.p.A.F.D.S.m.G.H.`   +.y.y.y.y.y.y.y.y.y.y.y.y.y.y.y.",
"y.y.y.y.y.y.y.y.y.y.y.y.y.y.U   B.T.T.T.T.J.N.L.T.T.T.T.T.T.]   +.y.y.y.y.y.y.y.y.y.y.y.y.y.y.y.",
"y.y.y.y.y.y.y.y.y.y.y.y.y.y.U   B.T.T.I.V.$.9 v.V.Y.U.=.=.=.<   +.y.y.y.y.y.y.y.y.y.y.y.y.y.y.y.",
"y.y.y.y.y.y.y.y.y.y.y.y.y.y.U   B.T.T.P.N.'   #.N.Y.K.c c c :   +.y.y.y.y.y.y.y.y.y.y.y.y.y.y.y.",
"y.y.y.y.y.y.y.y.y.y.y.y.y.y.U   B.T.T.P.N.'   O @ n B c c c :   +.y.y.y.y.y.y.y.y.y.y.y.y.y.y.y.",
"y.y.y.y.y.y.y.y.y.y.y.y.t.r.I   n.K.K.C.b._ X X X f l l l l , X +.y.y.y.y.y.y.y.y.y.y.y.y.y.y.y.",
"y.y.y.y.y.y.y.y.y.y.y.y.@.P 7   f c c f   7 P P P X         8 P r.y.y.y.y.y.y.y.y.y.y.y.y.y.y.y.",
"y.y.y.y.y.y.y.y.y.y.t.! E P 7   f c c f   7 P P P 5 4 4 4 4 G P Q ! y.y.y.y.y.y.y.y.y.y.y.y.y.y.",
"y.y.y.y.y.y.y.y.y.y.r.P P P 7   f c c f   7 P P P P P P P P P P P P y.y.y.y.y.y.y.y.y.y.y.y.y.y.",
"y.y.y.y.y.y.y.y.y.y.r.P P P H 8 J L L K 8 H P P P P P P P P P P P P y.y.y.y.y.y.y.y.y.y.y.y.y.y.",
"y.y.y.y.y.y.y.y.y.y.r.P P P P P P P P P P P P P P P P P P P P P P P y.y.y.y.y.y.y.y.y.y.y.y.y.y.",
"y.y.y.y.y.y.y.y.y.y.y.r.! P P P P P P P P P P P P P P P P P P P @.r.y.y.y.y.y.y.y.y.y.y.y.y.y.y.",
"y.y.y.y.y.y.y.y.y.y.y.y.@.P P P P P P P P P P P P P P P P P P P r.y.y.y.y.y.y.y.y.y.y.y.y.y.y.y.",
"y.y.y.y.y.y.y.y.y.y.y.y.y.y.y.y.y.y.y.y.y.y.y.y.y.y.y.y.y.y.y.y.y.y.y.y.y.y.y.y.y.y.y.y.y.y.y.y."
};
