/* XPM */
static char *_e97cfa55999453de3f66157da81c2a6UGuusrcogEiAjcp5[] = {
/* columns rows colors chars-per-pixel */
"48 48 103 2 ",
"   c #071B1B",
".  c #173828",
"X  c #26532C",
"o  c #28572E",
"O  c #2D4E37",
"+  c #25443D",
"@  c #324F3E",
"#  c #2A5131",
"$  c #295A30",
"%  c #2C6133",
"&  c #2F6736",
"*  c #316B38",
"=  c #35753E",
"-  c #37793F",
";  c #373254",
":  c #492F6C",
">  c #413161",
",  c #473B63",
"<  c #473E6B",
"1  c #53327B",
"2  c #56377C",
"3  c #56387C",
"4  c #39444D",
"5  c #265C42",
"6  c #2A5946",
"7  c #2D564A",
"8  c #3F4156",
"9  c #394A5B",
"0  c #377840",
"q  c #387C41",
"w  c #427E4F",
"e  c #48665E",
"r  c #476C5B",
"t  c #457257",
"y  c #427E50",
"u  c #404463",
"i  c #4C4368",
"p  c #4C4468",
"a  c #504F6D",
"s  c #564B76",
"d  c #585277",
"f  c #3B8244",
"g  c #3D8646",
"h  c #3E8948",
"j  c #5A2C83",
"k  c #64338E",
"l  c #632A91",
"z  c #622994",
"x  c #6C2D9F",
"c  c #6A3298",
"v  c #6E349D",
"b  c #6D3A99",
"n  c #6F3C9A",
"m  c #6F2CA3",
"M  c #7027A6",
"N  c #772FAD",
"B  c #7A38AD",
"V  c #7B2BB6",
"C  c #7C23BC",
"Z  c #73439C",
"A  c #72479D",
"S  c #7A5E9B",
"D  c #802ABD",
"F  c #823BB7",
"G  c #864EB2",
"H  c #8942BE",
"J  c #8C59B5",
"K  c #906BB4",
"L  c #906CB4",
"P  c #832BC3",
"I  c #842DC3",
"U  c #872FC6",
"Y  c #8733C5",
"T  c #8E38CB",
"R  c #933CD0",
"E  c #9241CD",
"W  c #9C5BCD",
"Q  c #9640D3",
"!  c #9A44D7",
"~  c #9D4CD7",
"^  c #9C48D8",
"/  c #9E4CD9",
"(  c #A05CD3",
")  c #A050D9",
"_  c #A354DA",
"`  c #A458DB",
"'  c #A65CDC",
"]  c #A85FDD",
"[  c #9B72C1",
"{  c #A779CD",
"}  c #AA63DE",
"|  c #AC68DF",
" . c #AB70D7",
".. c #B17BDA",
"X. c #B37FDA",
"o. c #AF6CE0",
"O. c #B270E1",
"+. c #B475E2",
"@. c #B77AE4",
"#. c #B97DE5",
"$. c #BA80E5",
"%. c #BC82E6",
"&. c #BE86E7",
/* pixels */
"h h h h h h h h h h h h h h h h h h h h h h h h h h h h h h h h h h h h h h h h h h h h h h h h ",
"h h h h h h h h h h h h h h h h h h h h h h h h h h h h h h h h h h h h h h h h h h h h h h h h ",
"h h h h h h h h h h h h h h h h h h h h h h h h h h h h h h h h h h h h h h h h h h h h h h h h ",
"h h h h h h h h h h h h h h h h h h h h h h h h h h h h h h h h h h h h h h h h h h h h h h h h ",
"h h h h h h h h h h h h h h h h h h h h h h h h h h h h h h h h h h h h h h h h h h h h h h h h ",
"h h h h h h h h h h h h h h h h h h h h h h h h h h h h h h h h h h h h h h h h h h h h h h h h ",
"h h h h h h h h h h h h h h h h h h h h h h h h h h h h h h h h h h h h h h h h h h h h h h h h ",
"h h h h h h h h h h h h h h h h h h h h h h h h h h h h h h h h h h h h h h h h h h h h h h h h ",
"h h h h h h h h h h h h h h h h h h h h h h h h h h h h h h h h h h h h h h h h h h h h h h h h ",
"h h h h h h h h h h h h h h h h h h h h h h h h h h h h h h h h h h h h h h h h h h h h h h h h ",
"h h h h h h h h h h h h h h h h h h h h h h h h h h h h h h h h h h h h h h h h h h h h h h h h ",
"h h h h h h h h h h h h h h h h h h h h h h h h h h h h h h h h h h h h h h h h h h h h h h h h ",
"h h h h h h h h h h h h h h h h h h h h h h h h h h h h h h h h h h h h h h h h h h h h h h h h ",
"h h h h h h h h h h h h h h h h h h h h h h h h 5 5 5 5 5 5 5 5 h h h h h h h h h h h h h h h h ",
"h h h h h h h h h h h h h h h h h h h w e e e e 9 9 9 9 5 5 5 5 h h h h h h h h h h h h h h h h ",
"h h h h h h h h h h h h h h h h h h h e j j j j j j j j 5 5 5 5 5 5 h h h h h h h h h h h h h h ",
"h h h h h h h h h h h h h h h h t 2 2 b E (  ...........1 1 < 5 5 5 h h h h h h h h h h h h h h ",
"h h h h h h h h h h h h h h h r d B B H _ +.#.&.&.&.&.&.J G A u 7 5 h h h h h h h h h h h h h h ",
"h h h h h h h h h h h h h h y s v ! ^ _ | &.&.&.&.&.&.&.&.O.W k 9 6 h h h h h h h h h h h h h h ",
"h h h h h h h h h h h h h h j F ! ! ' O.&.&.&.&.&.&.&.&.&.&.#.} b a h h h h h h h h h h h h h h ",
"h h h h h h h h h h h h h h j F ^ ` O.#.&.&.&.&.&.&.&.&.&.&.#.} b a h h h h h h h h h h h h h h ",
"5 5 5 5 h h h h h h h h h h j F / } #.&.&.&.{ L L X.X.L L { #.o.n a h h h h h h h h h h h h h h ",
"5 5 5 5 h h h h h h h h h h j F / } #.&.&.&.p     K S     S &.&.Z a h h h h h h h h h h h h h h ",
"5 5 5 5 5 5 5 5 h h h h h h j F / } #.&.&.&.p     K S     S &.&.Z < 5 5 h h h h h h h h h h h h ",
"5 5 5 5 5 5 5 5 h h h h h h j F / } #.&.&.&.S i i [ K i i K &.&.Z < 5 5 h h h h h h h h h h h h ",
"5 5 5 5 5 5 5 5 5 5 h h h h j F / } #.&.&.&.&.&.&.&.&.&.&.&.&.&.Z < 5 5 5 5 h h h h h h h h h h ",
"5 5 5 5 5 5 5 5 5 5 h h h h j F / } } O.&.&.&.&.&.&.&.&.&.&.&.&.Z < 5 5 5 5 h h h h h h h h h h ",
"5 5 5 5 5 5 5 5 5 5 h h h h j N T ) ) ' O.O.#.&.&.&.&.&.&.&.@.' b < 5 5 5 5 h h h h h h h h h h ",
"5 5 5 5 5 5 5 5 5 5 h h h h 3 x D Q Q ~ ] ] +.%.%.%.%.%.%.$.O.Q c < 5 5 5 5 h h h h h h h h h h ",
"h h h h 5 5 5 5 h h h h h h h a l C C U ! ! ` } } } } } } ) R C l < 5 5 h h h h h h h h h h h h ",
"h h h h 5 5 5 5 h h h h h h % @ 8 l l m P P Y Y Y Y Y Y Y I V l ; + 5 5 h h h h h h h h h h h h ",
"h h h h h h h h h h h - = = X X O , , 2 M M M M M M M M M M z > @ % = = f h h h h h h h h h h h ",
"h h h h h h h h h h h % X X X X X X X 4 j j j j j j j j j j : . X X X X = h h h h h h h h h h h ",
"h h h h h h h h h q $ o X X X X X X X # O O O O O O O O O O O X X X X X o & h h h h h h h h h h ",
"h h h h h h h h h q X X X X X X X X X X X X X X X X X X X X X X X X X X X % h h h h h h h h h h ",
"h h h h h h h h h q X X X X X X X X X X X X X X X X X X X X X X X X X X X % h h h h h h h h h h ",
"h h h h h h h h h q X X X X X X X X X X X X X X X X X X X X X X X X X X X % h h h h h h h h h h ",
"h h h h h h h h h g = $ X X X X X X X X X X X X X X X X X X X X X X X X & 0 h h h h h h h h h h ",
"h h h h h h h h h h h * % % X X X X X X X X X X X X X X X X X X X o % % q h h h h h h h h h h h ",
"h h h h h h h h h h h h h h X X X X X X X X X X X X X X X X X X X & h h h h h h h h h h h h h h ",
"h h h h h h h h h h h h h h f f f f f f f f f f f f f f f f f f f g h h h h h h h h h h h h h h ",
"h h h h h h h h h h h h h h h h h h h h h h h h h h h h h h h h h h h h h h h h h h h h h h h h ",
"h h h h h h h h h h h h h h h h h h h h h h h h h h h h h h h h h h h h h h h h h h h h h h h h ",
"h h h h h h h h h h h h h h h h h h h h h h h h h h h h h h h h h h h h h h h h h h h h h h h h ",
"h h h h h h h h h h h h h h h h h h h h h h h h h h h h h h h h h h h h h h h h h h h h h h h h ",
"h h h h h h h h h h h h h h h h h h h h h h h h h h h h h h h h h h h h h h h h h h h h h h h h ",
"h h h h h h h h h h h h h h h h h h h h h h h h h h h h h h h h h h h h h h h h h h h h h h h h ",
"h h h h h h h h h h h h h h h h h h h h h h h h h h h h h h h h h h h h h h h h h h h h h h h h "
};
