/* XPM */
static char *cd780363c2dd40278bd333e3c3f4ad88qAsK2VuY7Dv8GSzV[] = {
/* columns rows colors chars-per-pixel */
"48 48 144 2 ",
"   c #161E1C",
".  c #0C241B",
"X  c #0E2B1C",
"o  c #10291C",
"O  c #13311F",
"+  c #0C2723",
"@  c #0D2D29",
"#  c #152625",
"$  c #142F2D",
"%  c #192A2A",
"&  c #0E3024",
"*  c #0D312D",
"=  c #163622",
"-  c #133A22",
";  c #15372C",
":  c #163B2D",
">  c #0E3330",
",  c #0F3A37",
"<  c #103F3E",
"1  c #34252C",
"2  c #38262E",
"3  c #342A2D",
"4  c #3F2832",
"5  c #3D3634",
"6  c #3C3B34",
"7  c #452B33",
"8  c #4C2E33",
"9  c #4F3033",
"0  c #463F36",
"q  c #533135",
"w  c #5B3435",
"e  c #603636",
"r  c #613836",
"t  c #683D36",
"y  c #6C3D38",
"u  c #743F39",
"i  c #1C4423",
"p  c #1C4528",
"a  c #1C4B2C",
"s  c #1F582F",
"d  c #134532",
"f  c #1B4C32",
"g  c #11413E",
"h  c #13483F",
"j  c #1E5930",
"k  c #185139",
"l  c #204B2B",
"z  c #22542E",
"x  c #265B2E",
"c  c #204E38",
"v  c #3B4436",
"b  c #394E37",
"n  c #205730",
"m  c #275932",
"M  c #2A5F35",
"N  c #22543C",
"B  c #24583F",
"V  c #2C652E",
"C  c #206134",
"Z  c #2A6135",
"A  c #246A37",
"S  c #286F37",
"D  c #37613A",
"F  c #326D3B",
"G  c #2D7437",
"H  c #2D7438",
"J  c #28793D",
"K  c #317032",
"L  c #34743D",
"P  c #36793F",
"I  c #494E39",
"U  c #534439",
"Y  c #53483A",
"T  c #5A4D3C",
"R  c #6D4037",
"E  c #6C433D",
"W  c #774139",
"Q  c #7B4439",
"!  c #7C4838",
"~  c #58603F",
"^  c #67663E",
"/  c #114443",
"(  c #134C4B",
")  c #165446",
"_  c #195A41",
"`  c #15524D",
"'  c #175A4E",
"]  c #195E4E",
"[  c #265C42",
"{  c #1D6340",
"}  c #1F6A44",
"|  c #1A634E",
" . c #1C694F",
".. c #1F714F",
"X. c #1E6F50",
"o. c #1F7250",
"O. c #297E41",
"+. c #22754F",
"@. c #247B4E",
"#. c #377B41",
"$. c #397E42",
"%. c #7B4B41",
"&. c #7E5E43",
"*. c #82493B",
"=. c #8A4E3C",
"-. c #8E523C",
";. c #98583F",
":. c #955842",
">. c #9A5B44",
",. c #9A5D48",
"<. c #A15E46",
"1. c #A56247",
"2. c #AA664B",
"3. c #AE684B",
"4. c #B56D4F",
"5. c #3B8439",
"6. c #2C8141",
"7. c #2E8944",
"8. c #27814E",
"9. c #29854D",
"0. c #2C8A4C",
"q. c #3B8345",
"w. c #338E45",
"e. c #3D8847",
"r. c #3E8948",
"t. c #2F914C",
"y. c #3E9240",
"u. c #31944B",
"i. c #33984B",
"p. c #389E4C",
"a. c #3CA24C",
"s. c #449C43",
"d. c #4BAA47",
"f. c #46A94A",
"g. c #42A94D",
"h. c #46AE4D",
"j. c #48B14D",
"k. c #4BB44D",
"l. c #50B94E",
"z. c #53BD4E",
"x. c #55BF4E",
"c. c #55C04F",
"v. c #58C24F",
"b. c #5AC54F",
/* pixels */
"r.r.r.r.r.r.r.r.r.r.r.r.r.r.r.r.r.r.r.r.r.r.Z = r.r.r.r.r.r.r.r.r.r.r.r.r.r.r.r.r.r.r.r.r.r.r.r.",
"r.r.r.r.r.r.r.r.r.r.r.r.r.r.L Z - - Z - Z Z A i.. - Z q.F q.r.r.r.r.r.r.r.r.r.r.r.r.r.r.r.r.r.r.",
"r.r.r.r.r.r.r.r.r.r.r.r.r.F s i h.p.j J A A a.h.A a.S z j z r.r.r.r.r.r.r.r.r.r.r.r.r.r.r.r.r.r.",
"r.r.r.r.r.r.r.r.r.r.r.r.L o J A 5.z.i.d.a.a.x.b.a.x.x 6.i.- = Z r.r.r.r.r.r.r.r.r.r.r.r.r.r.r.r.",
"r.r.r.r.r.r.r.r.r.r.r.r.i k.x h.b.b.b.b.g.b.b.b.b.b.b.h.b.V b.K m L r.r.r.r.r.r.r.r.r.r.r.r.r.r.",
"r.r.r.r.r.r.r.r.r.r.r.M i b.b.b.b.b.b.b.b.b.b.b.b.b.b.b.b.b.b.K p n F r.r.r.r.r.r.r.r.r.r.r.r.r.",
"r.r.r.r.r.r.r.r.r.r.Z A A H a.b.b.b.b.b.b.b.b.b.b.b.b.b.b.b.b.s.f.J o = r.r.r.r.r.r.r.r.r.r.r.r.",
"r.r.r.r.r.r.r.r.r.r.z C a.c.g.b.b.b.b.b.b.b.b.b.b.b.b.b.b.b.z.k.b.A G i.= r.r.r.r.r.r.r.r.r.r.r.",
"r.r.r.r.r.r.r.r.r.#.z j A h.b.h.l.b.b.b.b.b.b.b.b.b.b.b.b.b.b.b.k.5.b.a.= r.r.r.r.r.r.r.r.r.r.r.",
"r.r.r.r.r.r.r.r.r.F j i.6.p.a.a.x.b.b.b.b.b.b.b.b.b.b.b.b.b.b.b.z.b.b.x . Z r.r.r.r.r.r.r.r.r.r.",
"r.r.r.r.r.r.r.r.r.q.z 6.h.c.a.b.b.b.b.b.b.b.b.b.b.b.b.b.b.b.b.b.b.b.k.i.z.K F r.r.r.r.r.r.r.r.r.",
"r.r.r.r.r.r.r.r.r.p j i.h.a.i.k.b.b.b.b.b.b.b.b.b.b.b.b.b.b.k.b.b.b.b.k.w.i F r.r.r.r.r.r.r.r.r.",
"r.r.r.r.r.r.r.r.l J j 6.l.g.j.k.k.b.b.b.b.b.b.b.b.b.b.b.b.h.z.b.b.b.b.b.f.J p r.r.r.r.r.r.r.r.r.",
"r.r.r.r.r.r.r.r.l 6.g.v.z.k.b.b.b.b.b.b.b.b.b.b.b.b.z.v.l.a.a.c.b.v.g.j.j.7.p r.r.r.r.r.r.r.r.r.",
"r.r.r.r.r.r.r.r.M - i.g.b.b.b.b.b.b.c.l.b.b.b.b.b.b.k.g.a.p.i.a.h.g.i.g.7.z #.r.r.r.r.r.r.r.r.r.",
"r.r.r.r.r.r.r.r.= 5.A j.b.b.b.b.b.b.l.p.a.b.b.b.b.b.b.l.x.z.i.i.j.j.i.l.y.o L r.r.r.r.r.r.r.r.r.",
"r.r.r.r.r.r.r.r.l } i.l.j.g.v.b.b.z.i.k.g.b.b.b.b.b.b.b.k.i.i.p.j.b.h.j.b.b.i r.r.r.r.r.r.r.r.r.",
"r.r.r.r.r.r.r.r.r.X J g.i.a.x.b.b.k.p.l.b.b.b.b.b.b.b.b.b.k.k.h.i.h.a.i.k.s.x r.r.r.r.r.r.r.r.r.",
"r.r.r.r.r.r.r.r.l { 7.i.i.h.b.b.k.a.i.h.b.z.k.b.b.b.b.b.b.b.z.p.j.j.i.i.6.x q.r.r.r.r.r.r.r.r.r.",
"r.r.r.r.r.r.r.r.l _ d O.a.b.b.z.b.a.a.b.z.i.g.v.z.p.a.b.b.b.b.b.z.i.i.i.C z r.r.r.r.r.r.r.r.r.r.",
"r.r.r.r.r.r.r.r.r.p f u.a.b.k.p.h.p.p.h.p.h.a.g.b.h.l.c.l.b.k.b.k.i.i.A d f #.r.r.r.r.r.r.r.r.r.",
"[ [ [ [ r.r.r.r.r.F j i.i.a.i.i.i.i.i.i.j.z.p.i.a.p.a.a.p.z.i.k.b.i.i.} X.d F r.r.r.r.r.r.r.r.r.",
"[ [ [ [ r.r.r.r.r.& @.+.8.i.t.t.i.t.8.i.i.i.i.i.i.i.i.i.i.i.i.u.i.@.u.6.k M r.r.r.r.r.r.r.r.r.r.",
"[ [ [ [ [ [ [ [ r.a _ X.i.0.+.0.i.@.0.i.0.i.i.i.i.i.i.9.0.i.@.@.u.0.{ X Z r.r.r.r.r.r.r.r.r.r.r.",
"[ [ [ [ [ [ [ [ r.F . & @.+.X.i.0...o.@.0.i.0.t.t.0.i.9.+.t.9.X.+.+.| h l r.r.r.r.r.r.r.r.r.r.r.",
"[ [ [ [ [ [ [ [ [ [ z < | )  .X.X.X.X.X.9.9.X.9.i.9.9.9.X. . .X.` / / g ; [ r.r.r.r.r.r.r.r.r.r.",
"[ [ [ [ [ [ [ [ [ [ F : > ) X.) h | X.| X.X.X.X.9.@.X.| X.| ` ] ` > ; : [ [ r.r.r.r.r.r.r.r.r.r.",
"[ [ [ [ [ [ [ [ [ [ r.L + ` ` @ )  .'  .' X.|  . .| X.| | X./ , ( g : [ [ [ r.r.r.r.r.r.r.r.r.r.",
"[ [ [ [ [ [ [ [ [ [ r.r.L = = g > / | ) ] ] / ( | ) ' / > g ( > . ; [ [ [ [ r.r.r.r.r.r.r.r.r.r.",
"r.r.r.r.[ [ [ [ r.r.r.r.r.r.r.p > ( > g ( / % $ / % $ ( > = > ; N [ [ [ r.r.r.r.r.r.r.r.r.r.r.r.",
"r.r.r.r.[ [ [ [ r.r.r.r.r.r.r.q.a + + ( * # 2   # 2 1 + : B f N [ [ [ [ r.r.r.r.r.r.r.r.r.r.r.r.",
"r.r.r.r.r.r.r.r.r.r.r.r.r.r.r.e.q.q.Z O 3 w u 8 8 7 y 6 c c [ [ e.r.r.r.r.r.r.r.r.r.r.r.r.r.r.r.",
"r.r.r.r.r.r.r.r.r.r.r.r.r.r.q.#.L L L L 6 >.Q e ! w ! 6 c c c c #.q.r.r.r.r.r.r.r.r.r.r.r.r.r.r.",
"r.r.r.r.r.r.r.r.r.r.r.r.r.q.L L L L L L 6 4.:.Q 1.Q W 6 L L L L L L q.r.r.r.r.r.r.r.r.r.r.r.r.r.",
"r.r.r.r.r.r.r.r.r.r.r.r.$.L L L L L L L 6 <.*.*.3.*.=.6 L L L L L L L $.r.r.r.r.r.r.r.r.r.r.r.r.",
"r.r.r.r.r.r.r.r.r.r.r.r.L L L L L L L L 6 W Q :.2.Q =.6 L L L L L L L L r.r.r.r.r.r.r.r.r.r.r.r.",
"r.r.r.r.r.r.r.r.r.r.r.$.L L L L L L L L 6 *.e *.*.! -.6 L L L L L L L L $.r.r.r.r.r.r.r.r.r.r.r.",
"r.r.r.r.r.r.r.r.r.r.q.P L L L L L L L b ,.;.t y w q -.,.b L L L L L L L L q.r.r.r.r.r.r.r.r.r.r.",
"r.r.r.r.r.r.r.r.r.r.$.L L L L L L L F T >.:.r *.E 4 E ,.T F L L L L L L L $.r.r.r.r.r.r.r.r.r.r.",
"r.r.r.r.r.r.r.r.r.r.$.L L L L L L L D %.=.9 w <.,.v 5 *.>.U L L L L L L L $.r.r.r.r.r.r.r.r.r.r.",
"r.r.r.r.r.r.r.r.r.r.r.#.L L L L L L Y &.0 L b R ,.I L L L L L L L L L L P r.r.r.r.r.r.r.r.r.r.r.",
"r.r.r.r.r.r.r.r.r.r.r.q.L L L L L L L L L L D b ^ ~ F L L L L L L L L L q.r.r.r.r.r.r.r.r.r.r.r.",
"r.r.r.r.r.r.r.r.r.r.r.r.L L L L L L L L L L L L L L L L L L L L L L L L r.r.r.r.r.r.r.r.r.r.r.r.",
"r.r.r.r.r.r.r.r.r.r.r.r.q.L L L L L L L L L L L L L L L L L L L L L L q.r.r.r.r.r.r.r.r.r.r.r.r.",
"r.r.r.r.r.r.r.r.r.r.r.r.r.q.L L L L L L L L L L L L L L L L L L L L q.r.r.r.r.r.r.r.r.r.r.r.r.r.",
"r.r.r.r.r.r.r.r.r.r.r.r.r.r.q.q.L L L L L L L L L L L L L L L L $.q.r.r.r.r.r.r.r.r.r.r.r.r.r.r.",
"r.r.r.r.r.r.r.r.r.r.r.r.r.r.r.r.r.r.P P P L L L L L L P P P r.r.r.r.r.r.r.r.r.r.r.r.r.r.r.r.r.r.",
"r.r.r.r.r.r.r.r.r.r.r.r.r.r.r.r.r.r.r.r.r.$.$.$.$.$.$.r.r.r.r.r.r.r.r.r.r.r.r.r.r.r.r.r.r.r.r.r."
};
