/* XPM */
static char *ad44c86abc2b48f781fb44713ab351f5[] = {
/* columns rows colors chars-per-pixel */
"48 48 225 2 ",
"   c None",
".  c #091B14",
"X  c #091B15",
"o  c #0A1B15",
"O  c #0B1B15",
"+  c #091C15",
"@  c #0A1C15",
"#  c #0A1C16",
"$  c #171E1D",
"%  c #0C2319",
"&  c #0C261C",
"*  c #0E2B1C",
"=  c #0F2B1C",
"-  c #0B2520",
";  c #0C2723",
":  c #0C2823",
">  c #0D2D22",
",  c #0C2C28",
"<  c #0D2E2A",
"1  c #152725",
"2  c #142F2E",
"3  c #192B2A",
"4  c #0E3024",
"5  c #0F3024",
"6  c #0D302D",
"7  c #0E302D",
"8  c #123520",
"9  c #123721",
"0  c #143922",
"q  c #143A23",
"w  c #143B23",
"e  c #1A3D21",
"r  c #1A3D22",
"t  c #103729",
"y  c #0E3431",
"u  c #0F3A38",
"i  c #35262C",
"p  c #38232B",
"a  c #3B252D",
"s  c #38262E",
"d  c #3C2630",
"f  c #3D2630",
"g  c #3C2731",
"h  c #3F2832",
"j  c #462B33",
"k  c #4A2C31",
"l  c #4D2E34",
"z  c #4F3033",
"x  c #513233",
"c  c #533135",
"v  c #5A3436",
"b  c #5D3537",
"n  c #5C3636",
"m  c #5A3837",
"M  c #583738",
"N  c #603737",
"B  c #613936",
"V  c #683E37",
"C  c #633D39",
"Z  c #6D3D38",
"A  c #743F39",
"S  c #174527",
"D  c #194023",
"F  c #1D4624",
"G  c #1E4624",
"H  c #194A29",
"J  c #1B512D",
"K  c #144533",
"L  c #194F31",
"P  c #11403E",
"I  c #11403F",
"U  c #13473F",
"Y  c #164E39",
"T  c #13493F",
"R  c #1E5A30",
"E  c #265D2E",
"W  c #2D652F",
"Q  c #216134",
"!  c #226635",
"~  c #236937",
"^  c #246937",
"/  c #266C37",
"(  c #266D37",
")  c #286F38",
"_  c #2D7438",
"`  c #2D7538",
"'  c #29793E",
"]  c #327032",
"[  c #6D4037",
"{  c #6C4239",
"}  c #6D433D",
"|  c #6C433E",
" . c #764239",
".. c #7A4339",
"X. c #78423A",
"o. c #794439",
"O. c #7B443A",
"+. c #7F473A",
"@. c #7D4939",
"#. c #114341",
"$. c #124342",
"%. c #124645",
"&. c #124948",
"*. c #134C4C",
"=. c #165140",
"-. c #165347",
";. c #175747",
":. c #185747",
">. c #195A41",
",. c #195A42",
"<. c #14504D",
"1. c #15514D",
"2. c #16554D",
"3. c #17594D",
"4. c #195D4B",
"5. c #185C4E",
"6. c #195E4E",
"7. c #1D6240",
"8. c #1E6440",
"9. c #1B6549",
"0. c #1B634C",
"q. c #1A604F",
"w. c #1A624F",
"e. c #1B664F",
"r. c #1C674F",
"t. c #1C684F",
"y. c #1D694F",
"u. c #1D6B50",
"i. c #1D6D50",
"p. c #1E6F50",
"a. c #1F7250",
"s. c #206A43",
"d. c #206A44",
"f. c #2A7F41",
"g. c #20714F",
"h. c #21744F",
"j. c #22764F",
"k. c #22774F",
"l. c #23794F",
"z. c #237A4F",
"x. c #267E4E",
"c. c #277F4F",
"v. c #7C4C41",
"b. c #82493A",
"n. c #804A3A",
"m. c #834B3A",
"M. c #834A3B",
"N. c #844A3A",
"B. c #874E38",
"V. c #80483D",
"C. c #81483E",
"Z. c #894E3B",
"A. c #8A4F3F",
"S. c #8F523B",
"D. c #8D523E",
"F. c #8F5441",
"G. c #955842",
"H. c #995840",
"J. c #985943",
"K. c #9C5B43",
"L. c #9A5C44",
"P. c #9A5C45",
"I. c #9A5C47",
"U. c #9A5D49",
"Y. c #9A5E49",
"T. c #A05E47",
"R. c #A15F47",
"E. c #A56247",
"W. c #AB664B",
"Q. c #AE684B",
"!. c #B66D4F",
"~. c #398239",
"^. c #3C8539",
"/. c #2B8041",
"(. c #2C8141",
"). c #2E8341",
"_. c #2E8844",
"`. c #2E8845",
"'. c #27814E",
"]. c #29834E",
"[. c #2A854D",
"{. c #2A864D",
"}. c #2B884D",
"|. c #2B894D",
" X c #2E8E4C",
".X c #338E45",
"XX c #2F904C",
"oX c #2F904D",
"OX c #2F914D",
"+X c #3E9240",
"@X c #30934C",
"#X c #31934C",
"$X c #32964C",
"%X c #33984B",
"&X c #359B4B",
"*X c #359A4C",
"=X c #359B4C",
"-X c #389849",
";X c #389D4C",
":X c #389E4C",
">X c #3AA04C",
",X c #3BA04C",
"<X c #3AA14C",
"1X c #3DA34C",
"2X c #469A41",
"3X c #429F46",
"4X c #4BAA47",
"5X c #46A94A",
"6X c #46AA4A",
"7X c #42A94D",
"8X c #44AB4D",
"9X c #45AC4D",
"0X c #47AE4D",
"qX c #49B14E",
"wX c #4AB14E",
"eX c #4BB44E",
"rX c #4CB44E",
"tX c #51B94E",
"yX c #50BA4E",
"uX c #53BC4E",
"iX c #52BD4E",
"pX c #53BC4F",
"aX c #55BF4F",
"sX c #58C24F",
"dX c #5AC54F",
/* pixels */
"                                              o                                                 ",
"                                q q   q     ^ %X% q                                             ",
"                            J D 0X:XR ' ~ ^ 1X0X^ 1X) 8 R 8                                     ",
"                          o ' / ^.pX-X4X,X,XaXdX,XaXE /.%Xq o                                   ",
"                        G eXE 0XdXdXdXdX8XdXdXdXdXdXdX0XdXW dX]                                 ",
"                        G dXdXdXdXdXdXdXdXdXdXdXdXdXdXdXdXdXdX] H J                             ",
"                      ! / ` 1XdXdXdXdXdXdXdXdXdXdXdXdXdXdXdXdX3X5X' o o                         ",
"                    + Q ,XaX8XdXdXdXdXdXdXdXdXdXdXdXdXdXdXdXpXeXdX/ ` &X+                       ",
"                    S R ^ 0XdX0XyXdXdXdXdXdXdXdXdXdXdXdXdXdXdXdXeX^.dX1X+                       ",
"                    R %X/.:X1X,XaXdXdXdXdXdXdXdXdXdXdXdXdXdXdXdXpXdXdXE o                       ",
"                    8 (.0XaX,XdXdXdXdXdXdXdXdXdXdXdXdXdXdXdXdXdXdXdXeX&XpX]                     ",
"                  o R %X0X1X%XrXdXdXdXdXdXdXdXdXdXdXdXdXdXdXrXdXdXdXdXeX.XG                     ",
"                o ' R (.yX7XqXeXrXdXdXdXdXdXdXdXdXdXdXdXdX0XpXdXdXdXdXdX5X' 8                   ",
"                + (.7XsXpXeXdXdXdXdXdXdXdXdXdXdXdXdXpXsXyX,X,XaXdXsX7XqXqX_.q                   ",
"                  q %X7XdXdXdXdXdXdXaXyXdXdXdXdXdXdXeX7X1X:X%X1X0X7X%X7X_.S                     ",
"                o ~.~ qXdXdXdXdXdXdXyX:X1XdXdXdXdXdXdXyXaXpX%X%XqXqX%XyX+Xo                     ",
"                + d.%XyXqX7XsXdXdXpX*XeX8XdXdXdXdXdXdXdXeX&X*X:XqXdX0XqXdXdXG                   ",
"                  = ' 7X%X1XaXdXdXeX:XyXdXdXdXdXdXdXdXdXdXeXrX0X%X0X1X%XrX2Xe                   ",
"                o 7._.%X%X0XdXdXrX1X%X0XdXpXrXdXdXdXdXdXdXdXpX:XqXqX%X%X(.e                     ",
"                + ,.K f.1XdXdXpXdX1X1XdXpX%X7XsXpX:X,XdXdXdXdXdXpX%X%X%XQ +                     ",
"                  o L #X1XdXeX:X0X:X:X0X:X0X1X7XdX0XyXaXyXdXrXdXeX%X%X~ K t                     ",
"                    R %X&X1X*X%X%X%X%X%XqXpX:X%X1X:X,X,X:XpX&XrXdX%X%Xs.p.K                     ",
"                  4 x.h.'.%XoXoX%XoX'.%X%X%X%X%X%X%X%X%X%X%X$X#X%Xx.#X(.Y                       ",
"                  > ,.p.%X Xh.|.%Xz.|.%X|.%X%X%X%X%X%X]. X%Xx.z.#X X8.=                         ",
"                    & 4 z.h.p.%X|.g.a.z.|.%X|.oXoX|.%X[.h.oX[.p.h.h.9.U o                       ",
"                    + I w.;.y.p.u.p.p.p.[.[.p.[.%X].[.[.p.y.y.p.2.$.%.I o                       ",
"                      6 y =.p.:.T e.u.e.p.p.p.p.].z.p.w.p.w.<.6.<.y , +                         ",
"                        : <.2., -.p.3.u.6.p.w.y.y.w.p.w.w.p.$.u *.I +                           ",
"                          + + I y $.w.-.w.w.%.&.r.-.4.$.y I *.y + o                             ",
"                              o y *.y I *.%.3 2 %.3 2 *.y o y ,                                 ",
"                                - ; : *.6 1 s $ 1 s i ; -                                       ",
"                                      o i n A l l j Z f                                         ",
"                                        f K.O.N +.v @.f                                         ",
"                                        f !.K.X.E.O. .f                                         ",
"                                        f T.m.C.Q.m.Z.f                                         ",
"                                        f X.O.H.W.O.Z.f                                         ",
"                                        f N.N m.C.+.S.f                                         ",
"                                      p U.H.V Z n c D.U.p                                       ",
"                                      C I.G.B m.| h | I.C                                       ",
"                                      v.A.z v T.U.s f m.I.M                                     ",
"                                    m F.k   p [ I.x                                             ",
"                                              p B.{                                             ",
"                                                                                                ",
"                                                                                                ",
"                                                                                                ",
"                                                                                                ",
"                                                                                                ",
"                                                                                                "
};
